MonaSans-ExpandedExtraLightItalic.ufo
<glyph name="exclam" format="2">
  <advance width="181"/>
  <unicode hex="0021"/>
  <outline>
    <contour>
      <point x="66" y="186" type="line"/>
      <point x="86" y="186" type="line"/>
      <point x="159" y="493" type="line"/>
      <point x="208" y="729" type="line"/>
      <point x="170" y="729" type="line"/>
      <point x="121" y="493" type="line"/>
    </contour>
    <contour>
      <point x="40" y="-7" type="curve" smooth="yes"/>
      <point x="58" y="-7"/>
      <point x="71" y="4"/>
      <point x="71" y="23" type="curve" smooth="yes"/>
      <point x="71" y="40"/>
      <point x="59" y="51"/>
      <point x="42" y="51" type="curve" smooth="yes"/>
      <point x="24" y="51"/>
      <point x="11" y="40"/>
      <point x="11" y="21" type="curve" smooth="yes"/>
      <point x="11" y="4"/>
      <point x="23" y="-7"/>
    </contour>
  </outline>
</glyph>
<glyph name="numbersign" format="2">
  <advance width="663"/>
  <unicode hex="0023"/>
  <outline>
    <contour>
      <point x="144" y="0" type="line"/>
      <point x="176" y="0" type="line"/>
      <point x="226" y="245" type="line"/>
      <point x="436" y="245" type="line"/>
      <point x="386" y="0" type="line"/>
      <point x="418" y="0" type="line"/>
      <point x="468" y="245" type="line"/>
      <point x="641" y="245" type="line"/>
      <point x="647" y="273" type="line"/>
      <point x="474" y="273" type="line"/>
      <point x="517" y="480" type="line"/>
      <point x="690" y="480" type="line"/>
      <point x="696" y="507" type="line"/>
      <point x="523" y="507" type="line"/>
      <point x="568" y="729" type="line"/>
      <point x="536" y="729" type="line"/>
      <point x="491" y="507" type="line"/>
      <point x="281" y="507" type="line"/>
      <point x="326" y="729" type="line"/>
      <point x="294" y="729" type="line"/>
      <point x="249" y="507" type="line"/>
      <point x="70" y="507" type="line"/>
      <point x="64" y="480" type="line"/>
      <point x="243" y="480" type="line"/>
      <point x="200" y="273" type="line"/>
      <point x="21" y="273" type="line"/>
      <point x="15" y="245" type="line"/>
      <point x="194" y="245" type="line"/>
    </contour>
    <contour>
      <point x="232" y="273" type="line"/>
      <point x="275" y="480" type="line"/>
      <point x="485" y="480" type="line"/>
      <point x="442" y="273" type="line"/>
    </contour>
  </outline>
</glyph>
<glyph name="dollar" format="2">
  <advance width="679"/>
  <unicode hex="0024"/>
  <outline>
    <contour>
      <point x="342" y="9" type="curve" smooth="yes"/>
      <point x="520" y="9"/>
      <point x="624" y="87"/>
      <point x="624" y="218" type="curve" smooth="yes"/>
      <point x="624" y="337"/>
      <point x="514" y="369"/>
      <point x="378" y="394" type="curve" smooth="yes"/>
      <point x="240" y="419"/>
      <point x="160" y="447"/>
      <point x="160" y="530" type="curve" smooth="yes"/>
      <point x="160" y="629"/>
      <point x="248" y="687"/>
      <point x="391" y="687" type="curve" smooth="yes"/>
      <point x="536" y="687"/>
      <point x="624" y="626"/>
      <point x="621" y="527" type="curve"/>
      <point x="660" y="527" type="line"/>
      <point x="663" y="647"/>
      <point x="564" y="721"/>
      <point x="395" y="721" type="curve" smooth="yes"/>
      <point x="223" y="721"/>
      <point x="120" y="649"/>
      <point x="120" y="527" type="curve" smooth="yes"/>
      <point x="120" y="427"/>
      <point x="197" y="384"/>
      <point x="375" y="356" type="curve" smooth="yes"/>
      <point x="531" y="331"/>
      <point x="582" y="291"/>
      <point x="582" y="211" type="curve" smooth="yes"/>
      <point x="582" y="104"/>
      <point x="498" y="44"/>
      <point x="342" y="44" type="curve" smooth="yes"/>
      <point x="180" y="44"/>
      <point x="72" y="110"/>
      <point x="77" y="228" type="curve"/>
      <point x="36" y="228" type="line"/>
      <point x="33" y="95"/>
      <point x="140" y="9"/>
    </contour>
    <contour>
      <point x="249" y="-85" type="line"/>
      <point x="281" y="-85" type="line"/>
      <point x="305" y="31" type="line"/>
      <point x="273" y="31" type="line"/>
    </contour>
    <contour>
      <point x="412" y="705" type="line"/>
      <point x="444" y="705" type="line"/>
      <point x="467" y="814" type="line"/>
      <point x="435" y="814" type="line"/>
    </contour>
  </outline>
</glyph>
<glyph name="percent" format="2">
  <advance width="963"/>
  <unicode hex="0025"/>
  <outline>
    <contour>
      <point x="142" y="0" type="line"/>
      <point x="186" y="0" type="line"/>
      <point x="873" y="729" type="line"/>
      <point x="829" y="729" type="line"/>
    </contour>
    <contour>
      <point x="267" y="323" type="curve" smooth="yes"/>
      <point x="385" y="323"/>
      <point x="464" y="419"/>
      <point x="464" y="558" type="curve" smooth="yes"/>
      <point x="464" y="665"/>
      <point x="405" y="729"/>
      <point x="302" y="729" type="curve" smooth="yes"/>
      <point x="184" y="729"/>
      <point x="105" y="633"/>
      <point x="105" y="494" type="curve" smooth="yes"/>
      <point x="105" y="387"/>
      <point x="164" y="323"/>
    </contour>
    <contour>
      <point x="265" y="353" type="curve" smooth="yes"/>
      <point x="184" y="353"/>
      <point x="139" y="405"/>
      <point x="139" y="494" type="curve" smooth="yes"/>
      <point x="139" y="618"/>
      <point x="205" y="699"/>
      <point x="304" y="699" type="curve" smooth="yes"/>
      <point x="385" y="699"/>
      <point x="430" y="647"/>
      <point x="430" y="558" type="curve" smooth="yes"/>
      <point x="430" y="434"/>
      <point x="364" y="353"/>
    </contour>
    <contour>
      <point x="703" y="-9" type="curve" smooth="yes"/>
      <point x="821" y="-9"/>
      <point x="900" y="87"/>
      <point x="900" y="226" type="curve" smooth="yes"/>
      <point x="900" y="333"/>
      <point x="841" y="397"/>
      <point x="738" y="397" type="curve" smooth="yes"/>
      <point x="620" y="397"/>
      <point x="541" y="301"/>
      <point x="541" y="162" type="curve" smooth="yes"/>
      <point x="541" y="55"/>
      <point x="600" y="-9"/>
    </contour>
    <contour>
      <point x="701" y="21" type="curve" smooth="yes"/>
      <point x="620" y="21"/>
      <point x="575" y="73"/>
      <point x="575" y="162" type="curve" smooth="yes"/>
      <point x="575" y="286"/>
      <point x="641" y="367"/>
      <point x="740" y="367" type="curve" smooth="yes"/>
      <point x="821" y="367"/>
      <point x="866" y="315"/>
      <point x="866" y="226" type="curve" smooth="yes"/>
      <point x="866" y="102"/>
      <point x="800" y="21"/>
    </contour>
  </outline>
</glyph>
<glyph name="ampersand" format="2">
  <advance width="776"/>
  <unicode hex="0026"/>
  <outline>
    <contour>
      <point x="652" y="-5" type="curve" smooth="yes"/>
      <point x="668" y="-5"/>
      <point x="686" y="-4"/>
      <point x="692" y="0" type="curve"/>
      <point x="699" y="39" type="line"/>
      <point x="693" y="37"/>
      <point x="678" y="34"/>
      <point x="661" y="34" type="curve" smooth="yes"/>
      <point x="589" y="34"/>
      <point x="536" y="76"/>
      <point x="456" y="174" type="curve" smooth="yes"/>
      <point x="398" y="245" type="line" smooth="yes"/>
      <point x="259" y="415"/>
      <point x="225" y="500"/>
      <point x="225" y="564" type="curve" smooth="yes"/>
      <point x="225" y="649"/>
      <point x="279" y="707"/>
      <point x="372" y="707" type="curve" smooth="yes"/>
      <point x="445" y="707"/>
      <point x="494" y="660"/>
      <point x="494" y="589" type="curve" smooth="yes"/>
      <point x="494" y="483"/>
      <point x="398" y="441"/>
      <point x="277" y="401" type="curve"/>
      <point x="294" y="375" type="line"/>
      <point x="428" y="415"/>
      <point x="531" y="474"/>
      <point x="531" y="589" type="curve" smooth="yes"/>
      <point x="531" y="680"/>
      <point x="466" y="739"/>
      <point x="371" y="739" type="curve" smooth="yes"/>
      <point x="263" y="739"/>
      <point x="188" y="668"/>
      <point x="188" y="563" type="curve" smooth="yes"/>
      <point x="188" y="504"/>
      <point x="215" y="410"/>
      <point x="366" y="225" type="curve" smooth="yes"/>
      <point x="424" y="154" type="line" smooth="yes"/>
      <point x="499" y="63"/>
      <point x="560" y="-5"/>
    </contour>
    <contour>
      <point x="222" y="-9" type="curve" smooth="yes"/>
      <point x="319" y="-9"/>
      <point x="412" y="28"/>
      <point x="474" y="105" type="curve"/>
      <point x="451" y="130" type="line"/>
      <point x="404" y="64"/>
      <point x="324" y="25"/>
      <point x="220" y="25" type="curve" smooth="yes"/>
      <point x="130" y="25"/>
      <point x="64" y="75"/>
      <point x="64" y="169" type="curve" smooth="yes"/>
      <point x="64" y="271"/>
      <point x="140" y="334"/>
      <point x="265" y="370" type="curve"/>
      <point x="248" y="397" type="line"/>
      <point x="123" y="360"/>
      <point x="25" y="287"/>
      <point x="25" y="168" type="curve" smooth="yes"/>
      <point x="25" y="55"/>
      <point x="108" y="-9"/>
    </contour>
    <contour>
      <point x="489" y="123" type="line"/>
      <point x="529" y="176"/>
      <point x="568" y="248"/>
      <point x="590" y="315" type="curve"/>
      <point x="702" y="313" type="line"/>
      <point x="703" y="354" type="line"/>
      <point x="556" y="354" type="line"/>
      <point x="552" y="322" type="line"/>
      <point x="532" y="264"/>
      <point x="509" y="211"/>
      <point x="465" y="149" type="curve"/>
    </contour>
  </outline>
</glyph>
<glyph name="quotesingle" format="2">
  <advance width="135"/>
  <unicode hex="0027"/>
  <anchor x="-19" y="0" name="#entry"/>
  <anchor x="141" y="0" name="#exit"/>
  <outline>
    <contour>
      <point x="105" y="492" type="line"/>
      <point x="125" y="492" type="line"/>
      <point x="159" y="623" type="line"/>
      <point x="181" y="729" type="line"/>
      <point x="148" y="729" type="line"/>
      <point x="126" y="623" type="line"/>
    </contour>
  </outline>
</glyph>
<glyph name="parenleft" format="2">
  <advance width="320"/>
  <unicode hex="0028"/>
  <outline>
    <contour>
      <point x="178" y="-167" type="curve"/>
      <point x="211" y="-167" type="line"/>
      <point x="105" y="-55"/>
      <point x="55" y="137"/>
      <point x="93" y="331" type="curve" smooth="yes"/>
      <point x="129" y="519"/>
      <point x="255" y="703"/>
      <point x="402" y="793" type="curve"/>
      <point x="361" y="793" type="line"/>
      <point x="212" y="702"/>
      <point x="95" y="524"/>
      <point x="58" y="333" type="curve" smooth="yes"/>
      <point x="22" y="146"/>
      <point x="64" y="-47"/>
    </contour>
  </outline>
</glyph>
<glyph name="asterisk" format="2">
  <advance width="283"/>
  <unicode hex="002A"/>
  <outline>
    <contour>
      <point x="167" y="453" type="line"/>
      <point x="196" y="453" type="line"/>
      <point x="208" y="512" type="line"/>
      <point x="213" y="580" type="line"/>
      <point x="261" y="540" type="line"/>
      <point x="306" y="510" type="line"/>
      <point x="324" y="535" type="line"/>
      <point x="279" y="565" type="line"/>
      <point x="226" y="592" type="line"/>
      <point x="291" y="619" type="line"/>
      <point x="346" y="647" type="line"/>
      <point x="338" y="672" type="line"/>
      <point x="282" y="644" type="line"/>
      <point x="218" y="605" type="line"/>
      <point x="240" y="672" type="line"/>
      <point x="252" y="729" type="line"/>
      <point x="223" y="729" type="line"/>
      <point x="211" y="672" type="line"/>
      <point x="206" y="605" type="line"/>
      <point x="160" y="644" type="line"/>
      <point x="115" y="672" type="line"/>
      <point x="97" y="647" type="line"/>
      <point x="140" y="619" type="line"/>
      <point x="194" y="592" type="line"/>
      <point x="128" y="565" type="line"/>
      <point x="73" y="535" type="line"/>
      <point x="83" y="510" type="line"/>
      <point x="139" y="540" type="line"/>
      <point x="201" y="580" type="line"/>
      <point x="179" y="512" type="line"/>
    </contour>
  </outline>
</glyph>
<glyph name="plus" format="2">
  <advance width="720"/>
  <unicode hex="002B"/>
  <outline>
    <contour>
      <point x="312" y="114" type="line"/>
      <point x="346" y="114" type="line"/>
      <point x="395" y="345" type="line"/>
      <point x="623" y="345" type="line"/>
      <point x="630" y="377" type="line"/>
      <point x="402" y="377" type="line"/>
      <point x="450" y="609" type="line"/>
      <point x="417" y="609" type="line"/>
      <point x="368" y="377" type="line"/>
      <point x="140" y="377" type="line"/>
      <point x="133" y="345" type="line"/>
      <point x="361" y="345" type="line"/>
    </contour>
  </outline>
</glyph>
<glyph name="comma" format="2">
  <advance width="148"/>
  <unicode hex="002C"/>
  <anchor x="-8" y="0" name="#entry"/>
  <anchor x="120" y="0" name="#exit"/>
  <anchor x="125" y="524" name="top"/>
  <outline>
    <contour>
      <point x="-49" y="-124" type="curve"/>
      <point x="-25" y="-124" type="line"/>
      <point x="11" y="-88"/>
      <point x="56" y="-20"/>
      <point x="56" y="18" type="curve" smooth="yes"/>
      <point x="56" y="38"/>
      <point x="44" y="51"/>
      <point x="24" y="51" type="curve" smooth="yes"/>
      <point x="6" y="51"/>
      <point x="-7" y="40"/>
      <point x="-7" y="20" type="curve" smooth="yes"/>
      <point x="-7" y="3"/>
      <point x="5" y="-8"/>
      <point x="23" y="-8" type="curve" smooth="yes"/>
      <point x="29" y="-8"/>
      <point x="34" y="-6"/>
      <point x="38" y="-4" type="curve"/>
      <point x="35" y="2" type="line"/>
      <point x="24" y="-35"/>
      <point x="-10" y="-83"/>
    </contour>
  </outline>
</glyph>
<glyph name="hyphen" format="2">
  <advance width="376"/>
  <unicode hex="002D"/>
  <outline>
    <contour>
      <point x="43" y="243" type="line"/>
      <point x="326" y="243" type="line"/>
      <point x="333" y="275" type="line"/>
      <point x="50" y="275" type="line"/>
    </contour>
  </outline>
</glyph>
<glyph name="period" format="2">
  <advance width="144"/>
  <unicode hex="002E"/>
  <anchor x="-62" y="0" name="#entry"/>
  <anchor x="99" y="0" name="#exit"/>
  <anchor x="27" y="51" name="_top"/>
  <anchor x="125" y="524" name="top"/>
  <outline>
    <contour>
      <point x="22" y="-7" type="curve" smooth="yes"/>
      <point x="40" y="-7"/>
      <point x="53" y="4"/>
      <point x="53" y="23" type="curve" smooth="yes"/>
      <point x="53" y="40"/>
      <point x="41" y="51"/>
      <point x="24" y="51" type="curve" smooth="yes"/>
      <point x="6" y="51"/>
      <point x="-7" y="40"/>
      <point x="-7" y="21" type="curve" smooth="yes"/>
      <point x="-7" y="4"/>
      <point x="5" y="-7"/>
    </contour>
  </outline>
</glyph>
<glyph name="slash" format="2">
  <advance width="445"/>
  <unicode hex="002F"/>
  <outline>
    <contour>
      <point x="-81" y="-81" type="line"/>
      <point x="-43" y="-81" type="line"/>
      <point x="533" y="729" type="line"/>
      <point x="496" y="729" type="line"/>
    </contour>
  </outline>
</glyph>
<glyph name="zero" format="2">
  <advance width="745"/>
  <unicode hex="0030"/>
  <outline>
    <contour>
      <point x="362" y="-9" type="curve" smooth="yes"/>
      <point x="582" y="-9"/>
      <point x="727" y="158"/>
      <point x="727" y="412" type="curve" smooth="yes"/>
      <point x="727" y="601"/>
      <point x="618" y="729"/>
      <point x="425" y="729" type="curve" smooth="yes"/>
      <point x="205" y="729"/>
      <point x="60" y="562"/>
      <point x="60" y="308" type="curve" smooth="yes"/>
      <point x="60" y="118"/>
      <point x="169" y="-9"/>
    </contour>
    <contour>
      <point x="366" y="25" type="curve" smooth="yes"/>
      <point x="206" y="25"/>
      <point x="99" y="121"/>
      <point x="99" y="309" type="curve" smooth="yes"/>
      <point x="99" y="539"/>
      <point x="230" y="695"/>
      <point x="421" y="695" type="curve" smooth="yes"/>
      <point x="581" y="695"/>
      <point x="688" y="599"/>
      <point x="688" y="411" type="curve" smooth="yes"/>
      <point x="688" y="181"/>
      <point x="557" y="25"/>
    </contour>
  </outline>
</glyph>
<glyph name="one" format="2">
  <advance width="294"/>
  <unicode hex="0031"/>
  <outline>
    <contour>
      <point x="128" y="0" type="line"/>
      <point x="167" y="0" type="line"/>
      <point x="318" y="721" type="line"/>
      <point x="280" y="721" type="line"/>
      <point x="259" y="652"/>
      <point x="219" y="608"/>
      <point x="123" y="608" type="curve" smooth="yes"/>
      <point x="90" y="608" type="line"/>
      <point x="84" y="579" type="line"/>
      <point x="249" y="579" type="line"/>
    </contour>
  </outline>
</glyph>
<glyph name="two" format="2">
  <advance width="627"/>
  <unicode hex="0032"/>
  <outline>
    <contour>
      <point x="5" y="0" type="line"/>
      <point x="550" y="0" type="line"/>
      <point x="557" y="34" type="line"/>
      <point x="50" y="34" type="line"/>
      <point x="97" y="256"/>
      <point x="629" y="238"/>
      <point x="629" y="527" type="curve" smooth="yes"/>
      <point x="629" y="648"/>
      <point x="532" y="729"/>
      <point x="388" y="729" type="curve" smooth="yes"/>
      <point x="221" y="729"/>
      <point x="107" y="648"/>
      <point x="79" y="508" type="curve"/>
      <point x="118" y="508" type="line"/>
      <point x="145" y="628"/>
      <point x="241" y="695"/>
      <point x="388" y="695" type="curve" smooth="yes"/>
      <point x="510" y="695"/>
      <point x="590" y="628"/>
      <point x="590" y="526" type="curve" smooth="yes"/>
      <point x="590" y="263"/>
      <point x="64" y="286"/>
      <point x="12" y="35" type="curve" smooth="yes"/>
    </contour>
  </outline>
</glyph>
<glyph name="three" format="2">
  <advance width="653"/>
  <unicode hex="0033"/>
  <outline>
    <contour>
      <point x="303" y="-10" type="curve" smooth="yes"/>
      <point x="471" y="-10"/>
      <point x="603" y="73"/>
      <point x="603" y="210" type="curve" smooth="yes"/>
      <point x="603" y="293"/>
      <point x="542" y="356"/>
      <point x="457" y="370" type="curve"/>
      <point x="459" y="374" type="line"/>
      <point x="582" y="392"/>
      <point x="660" y="459"/>
      <point x="660" y="559" type="curve" smooth="yes"/>
      <point x="660" y="662"/>
      <point x="567" y="729"/>
      <point x="396" y="729" type="curve" smooth="yes"/>
      <point x="227" y="729"/>
      <point x="114" y="651"/>
      <point x="83" y="517" type="curve"/>
      <point x="122" y="517" type="line"/>
      <point x="152" y="631"/>
      <point x="247" y="696"/>
      <point x="394" y="696" type="curve" smooth="yes"/>
      <point x="534" y="696"/>
      <point x="622" y="651"/>
      <point x="622" y="553" type="curve" smooth="yes"/>
      <point x="622" y="454"/>
      <point x="531" y="391"/>
      <point x="376" y="391" type="curve" smooth="yes"/>
      <point x="283" y="391" type="line"/>
      <point x="276" y="358" type="line"/>
      <point x="334" y="358" type="line" smooth="yes"/>
      <point x="487" y="358"/>
      <point x="564" y="309"/>
      <point x="564" y="211" type="curve" smooth="yes"/>
      <point x="564" y="102"/>
      <point x="470" y="24"/>
      <point x="306" y="24" type="curve" smooth="yes"/>
      <point x="155" y="24"/>
      <point x="59" y="94"/>
      <point x="67" y="218" type="curve"/>
      <point x="31" y="218" type="line"/>
      <point x="23" y="81"/>
      <point x="120" y="-10"/>
    </contour>
  </outline>
</glyph>
<glyph name="four" format="2">
  <advance width="664"/>
  <unicode hex="0034"/>
  <outline>
    <contour>
      <point x="408" y="0" type="line"/>
      <point x="445" y="0" type="line"/>
      <point x="594" y="721" type="line"/>
      <point x="554" y="721" type="line"/>
      <point x="14" y="232" type="line"/>
      <point x="7" y="197" type="line"/>
      <point x="633" y="197" type="line"/>
      <point x="640" y="229" type="line"/>
      <point x="62" y="229" type="line"/>
      <point x="549" y="671" type="line"/>
      <point x="547" y="671" type="line"/>
    </contour>
  </outline>
</glyph>
<glyph name="five" format="2">
  <advance width="659"/>
  <unicode hex="0035"/>
  <outline>
    <contour>
      <point x="301" y="-10" type="curve" smooth="yes"/>
      <point x="493" y="-10"/>
      <point x="620" y="85"/>
      <point x="620" y="249" type="curve" smooth="yes"/>
      <point x="620" y="384"/>
      <point x="522" y="470"/>
      <point x="359" y="470" type="curve" smooth="yes"/>
      <point x="267" y="470"/>
      <point x="174" y="437"/>
      <point x="122" y="386" type="curve"/>
      <point x="119" y="387" type="line"/>
      <point x="201" y="687" type="line"/>
      <point x="686" y="687" type="line"/>
      <point x="692" y="721" type="line"/>
      <point x="174" y="721" type="line"/>
      <point x="75" y="345" type="line"/>
      <point x="112" y="345" type="line"/>
      <point x="165" y="400"/>
      <point x="260" y="437"/>
      <point x="356" y="437" type="curve" smooth="yes"/>
      <point x="491" y="437"/>
      <point x="581" y="369"/>
      <point x="581" y="249" type="curve" smooth="yes"/>
      <point x="581" y="114"/>
      <point x="482" y="24"/>
      <point x="304" y="24" type="curve" smooth="yes"/>
      <point x="163" y="24"/>
      <point x="69" y="104"/>
      <point x="68" y="224" type="curve"/>
      <point x="32" y="224" type="line"/>
      <point x="34" y="84"/>
      <point x="142" y="-10"/>
    </contour>
  </outline>
</glyph>
<glyph name="six" format="2">
  <advance width="691"/>
  <unicode hex="0036"/>
  <outline>
    <contour>
      <point x="347" y="-10" type="curve" smooth="yes"/>
      <point x="524" y="-10"/>
      <point x="649" y="90"/>
      <point x="649" y="243" type="curve" smooth="yes"/>
      <point x="649" y="384"/>
      <point x="536" y="464"/>
      <point x="386" y="464" type="curve" smooth="yes"/>
      <point x="265" y="464"/>
      <point x="144" y="417"/>
      <point x="96" y="303" type="curve"/>
      <point x="92" y="303" type="line"/>
      <point x="111" y="538"/>
      <point x="212" y="695"/>
      <point x="437" y="695" type="curve" smooth="yes"/>
      <point x="559" y="695"/>
      <point x="649" y="632"/>
      <point x="663" y="537" type="curve"/>
      <point x="699" y="537" type="line"/>
      <point x="685" y="653"/>
      <point x="581" y="729"/>
      <point x="438" y="729" type="curve" smooth="yes"/>
      <point x="245" y="729"/>
      <point x="106" y="619"/>
      <point x="66" y="387" type="curve" smooth="yes"/>
      <point x="24" y="139"/>
      <point x="114" y="-10"/>
    </contour>
    <contour>
      <point x="345" y="24" type="curve" smooth="yes"/>
      <point x="207" y="24"/>
      <point x="103" y="92"/>
      <point x="103" y="214" type="curve" smooth="yes"/>
      <point x="103" y="345"/>
      <point x="220" y="432"/>
      <point x="379" y="432" type="curve" smooth="yes"/>
      <point x="516" y="432"/>
      <point x="610" y="366"/>
      <point x="610" y="239" type="curve" smooth="yes"/>
      <point x="610" y="111"/>
      <point x="504" y="24"/>
    </contour>
  </outline>
</glyph>
<glyph name="seven" format="2">
  <advance width="588"/>
  <unicode hex="0037"/>
  <outline>
    <contour>
      <point x="154" y="0" type="curve"/>
      <point x="195" y="0" type="line"/>
      <point x="272" y="220"/>
      <point x="418" y="459"/>
      <point x="662" y="696" type="curve"/>
      <point x="668" y="721" type="line"/>
      <point x="126" y="721" type="line"/>
      <point x="85" y="524" type="line"/>
      <point x="117" y="524" type="line"/>
      <point x="151" y="690" type="line"/>
      <point x="613" y="690" type="line"/>
      <point x="414" y="498"/>
      <point x="248" y="270"/>
    </contour>
  </outline>
</glyph>
<glyph name="eight" format="2">
  <advance width="666"/>
  <unicode hex="0038"/>
  <outline>
    <contour>
      <point x="312" y="-7" type="curve" smooth="yes"/>
      <point x="490" y="-7"/>
      <point x="614" y="64"/>
      <point x="614" y="206" type="curve" smooth="yes"/>
      <point x="614" y="292"/>
      <point x="549" y="357"/>
      <point x="455" y="366" type="curve"/>
      <point x="455" y="370" type="line"/>
      <point x="582" y="379"/>
      <point x="670" y="443"/>
      <point x="670" y="557" type="curve" smooth="yes"/>
      <point x="670" y="678"/>
      <point x="544" y="729"/>
      <point x="399" y="729" type="curve" smooth="yes"/>
      <point x="225" y="729"/>
      <point x="113" y="653"/>
      <point x="113" y="529" type="curve" smooth="yes"/>
      <point x="113" y="457"/>
      <point x="164" y="398"/>
      <point x="256" y="381" type="curve"/>
      <point x="255" y="378" type="line"/>
      <point x="126" y="376"/>
      <point x="22" y="296"/>
      <point x="22" y="177" type="curve" smooth="yes"/>
      <point x="22" y="66"/>
      <point x="126" y="-7"/>
    </contour>
    <contour>
      <point x="314" y="27" type="curve" smooth="yes"/>
      <point x="162" y="27"/>
      <point x="62" y="83"/>
      <point x="62" y="181" type="curve" smooth="yes"/>
      <point x="62" y="299"/>
      <point x="153" y="358"/>
      <point x="316" y="358" type="curve" smooth="yes"/>
      <point x="480" y="358"/>
      <point x="574" y="310"/>
      <point x="574" y="210" type="curve" smooth="yes"/>
      <point x="574" y="95"/>
      <point x="488" y="27"/>
    </contour>
    <contour>
      <point x="392" y="389" type="curve" smooth="yes"/>
      <point x="274" y="389"/>
      <point x="151" y="422"/>
      <point x="151" y="531" type="curve" smooth="yes"/>
      <point x="151" y="637"/>
      <point x="240" y="697"/>
      <point x="392" y="697" type="curve" smooth="yes"/>
      <point x="521" y="697"/>
      <point x="632" y="657"/>
      <point x="632" y="554" type="curve" smooth="yes"/>
      <point x="632" y="447"/>
      <point x="544" y="389"/>
    </contour>
  </outline>
</glyph>
<glyph name="equal" format="2">
  <advance width="720"/>
  <unicode hex="003D"/>
  <anchor x="381" y="366" name="center"/>
  <outline>
    <contour>
      <point x="157" y="464" type="line"/>
      <point x="647" y="464" type="line"/>
      <point x="653" y="496" type="line"/>
      <point x="163" y="496" type="line"/>
    </contour>
    <contour>
      <point x="107" y="227" type="line"/>
      <point x="597" y="227" type="line"/>
      <point x="604" y="259" type="line"/>
      <point x="114" y="259" type="line"/>
    </contour>
  </outline>
</glyph>
<glyph name="greater" format="2">
  <advance width="720"/>
  <unicode hex="003E"/>
  <outline>
    <contour>
      <point x="68" y="116" type="line"/>
      <point x="641" y="339" type="line"/>
      <point x="651" y="383" type="line"/>
      <point x="171" y="606" type="line"/>
      <point x="163" y="569" type="line"/>
      <point x="607" y="365" type="line"/>
      <point x="606" y="361" type="line"/>
      <point x="77" y="157" type="line"/>
    </contour>
  </outline>
</glyph>
<glyph name="question" format="2">
  <advance width="529"/>
  <unicode hex="003F"/>
  <outline>
    <contour>
      <point x="215" y="164" type="line"/>
      <point x="249" y="164" type="line"/>
      <point x="254" y="181" type="line"/>
      <point x="279" y="303"/>
      <point x="542" y="329"/>
      <point x="550" y="543" type="curve" smooth="yes"/>
      <point x="554" y="659"/>
      <point x="470" y="736"/>
      <point x="331" y="736" type="curve" smooth="yes"/>
      <point x="212" y="736"/>
      <point x="118" y="679"/>
      <point x="90" y="559" type="curve"/>
      <point x="124" y="559" type="line"/>
      <point x="145" y="646"/>
      <point x="217" y="704"/>
      <point x="324" y="704" type="curve" smooth="yes"/>
      <point x="433" y="704"/>
      <point x="515" y="655"/>
      <point x="511" y="543" type="curve" smooth="yes"/>
      <point x="504" y="341"/>
      <point x="254" y="331"/>
      <point x="218" y="182" type="curve"/>
    </contour>
    <contour>
      <point x="209" y="-7" type="curve" smooth="yes"/>
      <point x="227" y="-7"/>
      <point x="240" y="4"/>
      <point x="240" y="23" type="curve" smooth="yes"/>
      <point x="240" y="40"/>
      <point x="228" y="51"/>
      <point x="211" y="51" type="curve" smooth="yes"/>
      <point x="193" y="51"/>
      <point x="180" y="40"/>
      <point x="180" y="21" type="curve" smooth="yes"/>
      <point x="180" y="4"/>
      <point x="192" y="-7"/>
    </contour>
  </outline>
</glyph>
<glyph name="at" format="2">
  <advance width="979"/>
  <unicode hex="0040"/>
  <outline>
    <contour>
      <point x="464" y="-101" type="curve" smooth="yes"/>
      <point x="540" y="-101"/>
      <point x="626" y="-86"/>
      <point x="686" y="-52" type="curve"/>
      <point x="677" y="-23" type="line"/>
      <point x="622" y="-53"/>
      <point x="551" y="-70"/>
      <point x="470" y="-70" type="curve" smooth="yes"/>
      <point x="240" y="-70"/>
      <point x="91" y="58"/>
      <point x="91" y="251" type="curve" smooth="yes"/>
      <point x="91" y="509"/>
      <point x="278" y="707"/>
      <point x="538" y="707" type="curve" smooth="yes"/>
      <point x="769" y="707"/>
      <point x="920" y="586"/>
      <point x="920" y="402" type="curve" smooth="yes"/>
      <point x="920" y="274"/>
      <point x="862" y="111"/>
      <point x="721" y="111" type="curve" smooth="yes"/>
      <point x="650" y="111"/>
      <point x="619" y="163"/>
      <point x="645" y="255" type="curve" smooth="yes"/>
      <point x="716" y="504" type="line"/>
      <point x="683" y="504" type="line"/>
      <point x="651" y="398" type="line"/>
      <point x="648" y="398" type="line"/>
      <point x="637" y="471"/>
      <point x="581" y="519"/>
      <point x="498" y="519" type="curve" smooth="yes"/>
      <point x="372" y="519"/>
      <point x="279" y="396"/>
      <point x="279" y="265" type="curve" smooth="yes"/>
      <point x="279" y="173"/>
      <point x="336" y="110"/>
      <point x="435" y="110" type="curve" smooth="yes"/>
      <point x="506" y="110"/>
      <point x="568" y="146"/>
      <point x="606" y="212" type="curve"/>
      <point x="609" y="212" type="line"/>
      <point x="594" y="145"/>
      <point x="637" y="83"/>
      <point x="719" y="83" type="curve" smooth="yes"/>
      <point x="857" y="83"/>
      <point x="953" y="213"/>
      <point x="953" y="406" type="curve" smooth="yes"/>
      <point x="953" y="606"/>
      <point x="783" y="738"/>
      <point x="543" y="738" type="curve" smooth="yes"/>
      <point x="264" y="738"/>
      <point x="57" y="529"/>
      <point x="57" y="248" type="curve" smooth="yes"/>
      <point x="57" y="38"/>
      <point x="216" y="-101"/>
    </contour>
    <contour>
      <point x="444" y="139" type="curve" smooth="yes"/>
      <point x="360" y="139"/>
      <point x="314" y="186"/>
      <point x="314" y="264" type="curve" smooth="yes"/>
      <point x="314" y="380"/>
      <point x="386" y="491"/>
      <point x="501" y="491" type="curve" smooth="yes"/>
      <point x="599" y="491"/>
      <point x="647" y="413"/>
      <point x="630" y="312" type="curve"/>
      <point x="602" y="207"/>
      <point x="539" y="139"/>
    </contour>
  </outline>
</glyph>
<glyph name="A" format="2">
  <advance width="794"/>
  <unicode hex="0041"/>
  <anchor x="355" y="23" name="bottom"/>
  <anchor x="724" y="0" name="ogonek"/>
  <anchor x="494" y="729" name="top"/>
  <outline>
    <contour>
      <point x="-38" y="0" type="line"/>
      <point x="4" y="0" type="line"/>
      <point x="438" y="620" type="line"/>
      <point x="487" y="692" type="line"/>
      <point x="490" y="692" type="line"/>
      <point x="509" y="620" type="line"/>
      <point x="683" y="0" type="line"/>
      <point x="724" y="0" type="line"/>
      <point x="517" y="729" type="line"/>
      <point x="471" y="729" type="line"/>
    </contour>
    <contour>
      <point x="134" y="200" type="line"/>
      <point x="636" y="200" type="line"/>
      <point x="626" y="233" type="line"/>
      <point x="157" y="233" type="line"/>
    </contour>
  </outline>
</glyph>
<glyph name="B" format="2">
  <advance width="727"/>
  <unicode hex="0042"/>
  <anchor x="315" y="0" name="bottom"/>
  <anchor x="466" y="729" name="top"/>
  <outline>
    <contour>
      <point x="18" y="0" type="line"/>
      <point x="402" y="0" type="line" smooth="yes"/>
      <point x="573" y="0"/>
      <point x="673" y="83"/>
      <point x="678" y="221" type="curve" smooth="yes"/>
      <point x="681" y="295"/>
      <point x="635" y="357"/>
      <point x="567" y="372" type="curve"/>
      <point x="567" y="375" type="line"/>
      <point x="661" y="395"/>
      <point x="728" y="468"/>
      <point x="732" y="564" type="curve" smooth="yes"/>
      <point x="735" y="669"/>
      <point x="673" y="729"/>
      <point x="537" y="729" type="curve" smooth="yes"/>
      <point x="169" y="729" type="line"/>
    </contour>
    <contour>
      <point x="63" y="36" type="line"/>
      <point x="201" y="694" type="line"/>
      <point x="530" y="694" type="line" smooth="yes"/>
      <point x="639" y="694"/>
      <point x="695" y="647"/>
      <point x="692" y="562" type="curve" smooth="yes"/>
      <point x="688" y="456"/>
      <point x="613" y="391"/>
      <point x="483" y="391" type="curve" smooth="yes"/>
      <point x="129" y="391" type="line"/>
      <point x="120" y="356" type="line"/>
      <point x="485" y="356" type="line" smooth="yes"/>
      <point x="590" y="356"/>
      <point x="641" y="307"/>
      <point x="638" y="219" type="curve" smooth="yes"/>
      <point x="634" y="104"/>
      <point x="550" y="36"/>
      <point x="409" y="36" type="curve" smooth="yes"/>
    </contour>
  </outline>
</glyph>
<glyph name="C" format="2">
  <advance width="796"/>
  <unicode hex="0043"/>
  <anchor x="370" y="0" name="bottom"/>
  <anchor x="478" y="729" name="top"/>
  <outline>
    <contour>
      <point x="395" y="-9" type="curve" smooth="yes"/>
      <point x="569" y="-9"/>
      <point x="717" y="80"/>
      <point x="765" y="236" type="curve"/>
      <point x="726" y="236" type="line"/>
      <point x="680" y="109"/>
      <point x="564" y="27"/>
      <point x="400" y="27" type="curve" smooth="yes"/>
      <point x="214" y="27"/>
      <point x="92" y="133"/>
      <point x="99" y="330" type="curve" smooth="yes"/>
      <point x="107" y="559"/>
      <point x="251" y="703"/>
      <point x="473" y="703" type="curve" smooth="yes"/>
      <point x="626" y="703"/>
      <point x="743" y="620"/>
      <point x="765" y="497" type="curve"/>
      <point x="803" y="497" type="line"/>
      <point x="783" y="642"/>
      <point x="652" y="739"/>
      <point x="475" y="739" type="curve" smooth="yes"/>
      <point x="235" y="739"/>
      <point x="68" y="575"/>
      <point x="59" y="333" type="curve" smooth="yes"/>
      <point x="52" y="121"/>
      <point x="185" y="-9"/>
    </contour>
  </outline>
</glyph>
<glyph name="D" format="2">
  <advance width="783"/>
  <unicode hex="0044"/>
  <anchor x="351" y="0" name="bottom"/>
  <anchor x="131" y="365" name="center"/>
  <anchor x="418" y="729" name="top"/>
  <outline>
    <contour>
      <point x="18" y="0" type="line"/>
      <point x="325" y="0" type="line" smooth="yes"/>
      <point x="594" y="0"/>
      <point x="761" y="153"/>
      <point x="770" y="410" type="curve" smooth="yes"/>
      <point x="777" y="624"/>
      <point x="638" y="729"/>
      <point x="418" y="729" type="curve" smooth="yes"/>
      <point x="169" y="729" type="line"/>
    </contour>
    <contour>
      <point x="63" y="37" type="line"/>
      <point x="200" y="693" type="line"/>
      <point x="414" y="693" type="line" smooth="yes"/>
      <point x="638" y="693"/>
      <point x="735" y="582"/>
      <point x="729" y="410" type="curve" smooth="yes"/>
      <point x="721" y="179"/>
      <point x="581" y="37"/>
      <point x="340" y="37" type="curve" smooth="yes"/>
    </contour>
  </outline>
</glyph>
<glyph name="E" format="2">
  <advance width="653"/>
  <unicode hex="0045"/>
  <anchor x="297" y="0" name="bottom"/>
  <anchor x="576" y="0" name="ogonek"/>
  <anchor x="448" y="729" name="top"/>
  <anchor x="128" y="729" name="topleft"/>
  <outline>
    <contour>
      <point x="18" y="0" type="line"/>
      <point x="576" y="0" type="line"/>
      <point x="584" y="37" type="line"/>
      <point x="48" y="37" type="line"/>
      <point x="60" y="21" type="line"/>
      <point x="205" y="715" type="line"/>
      <point x="181" y="693" type="line"/>
      <point x="720" y="693" type="line"/>
      <point x="727" y="729" type="line"/>
      <point x="169" y="729" type="line"/>
    </contour>
    <contour>
      <point x="122" y="358" type="line"/>
      <point x="605" y="358" type="line"/>
      <point x="612" y="392" type="line"/>
      <point x="130" y="392" type="line"/>
    </contour>
  </outline>
</glyph>
<glyph name="F" format="2">
  <advance width="646"/>
  <unicode hex="0046"/>
  <anchor x="283" y="0" name="bottom"/>
  <anchor x="434" y="729" name="top"/>
  <outline>
    <contour>
      <point x="18" y="0" type="line"/>
      <point x="56" y="0" type="line"/>
      <point x="202" y="705" type="line"/>
      <point x="187" y="693" type="line"/>
      <point x="718" y="693" type="line"/>
      <point x="725" y="729" type="line"/>
      <point x="169" y="729" type="line"/>
    </contour>
    <contour>
      <point x="106" y="349" type="line"/>
      <point x="608" y="349" type="line"/>
      <point x="614" y="384" type="line"/>
      <point x="116" y="384" type="line"/>
    </contour>
  </outline>
</glyph>
<glyph name="G" format="2">
  <advance width="819"/>
  <unicode hex="0047"/>
  <anchor x="392" y="0" name="bottom"/>
  <anchor x="478" y="729" name="top"/>
  <outline>
    <contour>
      <point x="392" y="-9" type="curve" smooth="yes"/>
      <point x="524" y="-9"/>
      <point x="646" y="44"/>
      <point x="703" y="145" type="curve"/>
      <point x="710" y="145" type="line"/>
      <point x="684" y="0" type="line"/>
      <point x="717" y="0" type="line"/>
      <point x="793" y="376" type="line"/>
      <point x="400" y="376" type="line"/>
      <point x="393" y="340" type="line"/>
      <point x="757" y="340" type="line"/>
      <point x="749" y="349" type="line"/>
      <point x="733" y="277" type="line" smooth="yes"/>
      <point x="700" y="127"/>
      <point x="589" y="25"/>
      <point x="397" y="25" type="curve" smooth="yes"/>
      <point x="215" y="25"/>
      <point x="99" y="129"/>
      <point x="99" y="314" type="curve" smooth="yes"/>
      <point x="99" y="552"/>
      <point x="246" y="703"/>
      <point x="473" y="703" type="curve" smooth="yes"/>
      <point x="629" y="703"/>
      <point x="744" y="627"/>
      <point x="761" y="514" type="curve"/>
      <point x="801" y="514" type="line"/>
      <point x="785" y="650"/>
      <point x="653" y="739"/>
      <point x="475" y="739" type="curve" smooth="yes"/>
      <point x="230" y="739"/>
      <point x="59" y="568"/>
      <point x="59" y="317" type="curve" smooth="yes"/>
      <point x="59" y="115"/>
      <point x="190" y="-9"/>
    </contour>
  </outline>
</glyph>
<glyph name="H" format="2">
  <advance width="802"/>
  <unicode hex="0048"/>
  <anchor x="358" y="0" name="bottom"/>
  <anchor x="470" y="592" name="center"/>
  <anchor x="509" y="729" name="top"/>
  <anchor x="128" y="729" name="topleft"/>
  <outline>
    <contour>
      <point x="18" y="0" type="line"/>
      <point x="56" y="0" type="line"/>
      <point x="207" y="729" type="line"/>
      <point x="169" y="729" type="line"/>
    </contour>
    <contour>
      <point x="639" y="0" type="line"/>
      <point x="676" y="0" type="line"/>
      <point x="827" y="729" type="line"/>
      <point x="790" y="729" type="line"/>
    </contour>
    <contour>
      <point x="111" y="352" type="line"/>
      <point x="730" y="352" type="line"/>
      <point x="739" y="388" type="line"/>
      <point x="118" y="388" type="line"/>
    </contour>
  </outline>
</glyph>
<glyph name="I" format="2">
  <advance width="182"/>
  <unicode hex="0049"/>
  <anchor x="37" y="0" name="bottom"/>
  <anchor x="56" y="0" name="ogonek"/>
  <anchor x="188" y="729" name="top"/>
  <anchor x="128" y="729" name="topleft"/>
  <outline>
    <contour>
      <point x="18" y="0" type="line"/>
      <point x="56" y="0" type="line"/>
      <point x="207" y="729" type="line"/>
      <point x="169" y="729" type="line"/>
    </contour>
  </outline>
</glyph>
<glyph name="J" format="2">
  <advance width="386"/>
  <unicode hex="004A"/>
  <anchor x="151" y="0" name="bottom"/>
  <anchor x="398" y="729" name="top"/>
  <outline>
    <contour>
      <point x="-37" y="0" type="line"/>
      <point x="65" y="0" type="line" smooth="yes"/>
      <point x="200" y="0"/>
      <point x="278" y="57"/>
      <point x="308" y="202" type="curve" smooth="yes"/>
      <point x="417" y="729" type="line"/>
      <point x="379" y="729" type="line"/>
      <point x="271" y="203" type="line" smooth="yes"/>
      <point x="247" y="88"/>
      <point x="190" y="35"/>
      <point x="68" y="35" type="curve" smooth="yes"/>
      <point x="-30" y="35" type="line"/>
    </contour>
  </outline>
</glyph>
<glyph name="K" format="2">
  <advance width="688"/>
  <unicode hex="004B"/>
  <anchor x="301" y="0" name="bottom"/>
  <anchor x="452" y="729" name="top"/>
  <outline>
    <contour>
      <point x="574" y="0" type="line"/>
      <point x="618" y="0" type="line"/>
      <point x="378" y="410" type="line"/>
      <point x="762" y="729" type="line"/>
      <point x="708" y="729" type="line"/>
      <point x="91" y="217" type="line"/>
      <point x="80" y="166" type="line"/>
      <point x="349" y="387" type="line"/>
    </contour>
    <contour>
      <point x="18" y="0" type="line"/>
      <point x="56" y="0" type="line"/>
      <point x="207" y="729" type="line"/>
      <point x="169" y="729" type="line"/>
    </contour>
  </outline>
</glyph>
<glyph name="L" format="2">
  <advance width="569"/>
  <unicode hex="004C"/>
  <anchor x="245" y="0" name="bottom"/>
  <anchor x="348" y="365" name="center"/>
  <anchor x="188" y="729" name="top"/>
  <anchor x="321" y="729" name="topright"/>
  <outline>
    <contour>
      <point x="18" y="0" type="line"/>
      <point x="499" y="0" type="line"/>
      <point x="506" y="36" type="line"/>
      <point x="54" y="36" type="line"/>
      <point x="62" y="28" type="line"/>
      <point x="207" y="729" type="line"/>
      <point x="169" y="729" type="line"/>
    </contour>
  </outline>
</glyph>
<glyph name="M" format="2">
  <advance width="914"/>
  <unicode hex="004D"/>
  <anchor x="403" y="0" name="bottom"/>
  <anchor x="554" y="729" name="top"/>
  <outline>
    <contour>
      <point x="18" y="0" type="line"/>
      <point x="56" y="0" type="line"/>
      <point x="143" y="420" type="line"/>
      <point x="197" y="693" type="line"/>
      <point x="204" y="693" type="line"/>
      <point x="261" y="465" type="line"/>
      <point x="386" y="0" type="line"/>
      <point x="425" y="0" type="line"/>
      <point x="740" y="467" type="line"/>
      <point x="889" y="693" type="line"/>
      <point x="896" y="693" type="line"/>
      <point x="837" y="420" type="line"/>
      <point x="750" y="0" type="line"/>
      <point x="788" y="0" type="line"/>
      <point x="939" y="729" type="line"/>
      <point x="874" y="729" type="line"/>
      <point x="554" y="258" type="line"/>
      <point x="415" y="43" type="line"/>
      <point x="409" y="43" type="line"/>
      <point x="355" y="258" type="line"/>
      <point x="228" y="729" type="line"/>
      <point x="169" y="729" type="line"/>
    </contour>
  </outline>
</glyph>
<glyph name="O" format="2">
  <advance width="829"/>
  <unicode hex="004F"/>
  <anchor x="393" y="-9" name="bottom"/>
  <anchor x="447" y="365" name="center"/>
  <anchor x="709" y="10" name="ogonek"/>
  <anchor x="477" y="729" name="top"/>
  <anchor x="123" y="729" name="topleft"/>
  <anchor x="630" y="709" name="topright"/>
  <outline>
    <contour>
      <point x="398" y="-9" type="curve" smooth="yes"/>
      <point x="636" y="-9"/>
      <point x="805" y="155"/>
      <point x="814" y="397" type="curve" smooth="yes"/>
      <point x="821" y="608"/>
      <point x="689" y="739"/>
      <point x="477" y="739" type="curve" smooth="yes"/>
      <point x="236" y="739"/>
      <point x="68" y="575"/>
      <point x="59" y="333" type="curve" smooth="yes"/>
      <point x="52" y="121"/>
      <point x="185" y="-9"/>
    </contour>
    <contour>
      <point x="400" y="27" type="curve" smooth="yes"/>
      <point x="214" y="27"/>
      <point x="92" y="133"/>
      <point x="99" y="330" type="curve" smooth="yes"/>
      <point x="107" y="559"/>
      <point x="251" y="703"/>
      <point x="472" y="703" type="curve" smooth="yes"/>
      <point x="659" y="703"/>
      <point x="781" y="597"/>
      <point x="774" y="400" type="curve" smooth="yes"/>
      <point x="766" y="171"/>
      <point x="622" y="27"/>
    </contour>
  </outline>
</glyph>
<glyph name="P" format="2">
  <advance width="693"/>
  <unicode hex="0050"/>
  <anchor x="304" y="0" name="bottom"/>
  <anchor x="455" y="729" name="top"/>
  <outline>
    <contour>
      <point x="18" y="0" type="line"/>
      <point x="56" y="0" type="line"/>
      <point x="203" y="705" type="line"/>
      <point x="186" y="692" type="line"/>
      <point x="481" y="692" type="line" smooth="yes"/>
      <point x="606" y="692"/>
      <point x="682" y="647"/>
      <point x="678" y="537" type="curve" smooth="yes"/>
      <point x="673" y="401"/>
      <point x="589" y="326"/>
      <point x="430" y="326" type="curve" smooth="yes"/>
      <point x="114" y="326" type="line"/>
      <point x="107" y="290" type="line"/>
      <point x="425" y="290" type="line" smooth="yes"/>
      <point x="605" y="290"/>
      <point x="712" y="381"/>
      <point x="718" y="540" type="curve" smooth="yes"/>
      <point x="722" y="656"/>
      <point x="646" y="729"/>
      <point x="492" y="729" type="curve" smooth="yes"/>
      <point x="169" y="729" type="line"/>
    </contour>
  </outline>
</glyph>
<glyph name="R" format="2">
  <advance width="728"/>
  <unicode hex="0052"/>
  <anchor x="320" y="0" name="bottom"/>
  <anchor x="409" y="729" name="top"/>
  <outline>
    <contour>
      <point x="18" y="0" type="line"/>
      <point x="56" y="0" type="line"/>
      <point x="200" y="693" type="line"/>
      <point x="511" y="693" type="line" smooth="yes"/>
      <point x="635" y="693"/>
      <point x="726" y="640"/>
      <point x="696" y="511" type="curve" smooth="yes"/>
      <point x="678" y="421"/>
      <point x="607" y="371"/>
      <point x="493" y="371" type="curve" smooth="yes"/>
      <point x="124" y="371" type="line"/>
      <point x="117" y="336" type="line"/>
      <point x="492" y="336" type="line" smooth="yes"/>
      <point x="611" y="336"/>
      <point x="632" y="292"/>
      <point x="610" y="183" type="curve" smooth="yes"/>
      <point x="589" y="77" type="line" smooth="yes"/>
      <point x="582" y="40"/>
      <point x="580" y="17"/>
      <point x="583" y="0" type="curve"/>
      <point x="622" y="0" type="line"/>
      <point x="618" y="18"/>
      <point x="617" y="35"/>
      <point x="625" y="73" type="curve" smooth="yes"/>
      <point x="650" y="190" type="line" smooth="yes"/>
      <point x="671" y="288"/>
      <point x="640" y="333"/>
      <point x="574" y="351" type="curve"/>
      <point x="575" y="358" type="line"/>
      <point x="662" y="374"/>
      <point x="719" y="430"/>
      <point x="736" y="512" type="curve" smooth="yes"/>
      <point x="763" y="632"/>
      <point x="701" y="729"/>
      <point x="521" y="729" type="curve" smooth="yes"/>
      <point x="169" y="729" type="line"/>
    </contour>
  </outline>
</glyph>
<glyph name="S" format="2">
  <advance width="671"/>
  <unicode hex="0053"/>
  <anchor x="330" y="0" name="bottom"/>
  <anchor x="394" y="729" name="top"/>
  <outline>
    <contour>
      <point x="335" y="-10" type="curve" smooth="yes"/>
      <point x="516" y="-10"/>
      <point x="626" y="70"/>
      <point x="626" y="206" type="curve" smooth="yes"/>
      <point x="626" y="332"/>
      <point x="523" y="366"/>
      <point x="376" y="393" type="curve" smooth="yes"/>
      <point x="231" y="419"/>
      <point x="149" y="448"/>
      <point x="149" y="537" type="curve" smooth="yes"/>
      <point x="149" y="642"/>
      <point x="239" y="704"/>
      <point x="389" y="704" type="curve" smooth="yes"/>
      <point x="539" y="704"/>
      <point x="630" y="640"/>
      <point x="626" y="535" type="curve"/>
      <point x="665" y="535" type="line"/>
      <point x="669" y="658"/>
      <point x="570" y="738"/>
      <point x="393" y="738" type="curve" smooth="yes"/>
      <point x="212" y="738"/>
      <point x="109" y="659"/>
      <point x="109" y="534" type="curve" smooth="yes"/>
      <point x="109" y="430"/>
      <point x="191" y="384"/>
      <point x="371" y="356" type="curve" smooth="yes"/>
      <point x="532" y="329"/>
      <point x="585" y="285"/>
      <point x="585" y="202" type="curve" smooth="yes"/>
      <point x="585" y="88"/>
      <point x="498" y="24"/>
      <point x="335" y="24" type="curve" smooth="yes"/>
      <point x="168" y="24"/>
      <point x="56" y="94"/>
      <point x="62" y="220" type="curve"/>
      <point x="21" y="220" type="line"/>
      <point x="17" y="80"/>
      <point x="127" y="-10"/>
    </contour>
  </outline>
</glyph>
<glyph name="T" format="2">
  <advance width="648"/>
  <unicode hex="0054"/>
  <anchor x="270" y="0" name="bottom"/>
  <anchor x="346" y="365" name="center"/>
  <anchor x="421" y="729" name="top"/>
  <outline>
    <contour>
      <point x="251" y="0" type="line"/>
      <point x="289" y="0" type="line"/>
      <point x="435" y="702" type="line"/>
      <point x="397" y="702" type="line"/>
    </contour>
    <contour>
      <point x="106" y="693" type="line"/>
      <point x="722" y="693" type="line"/>
      <point x="729" y="729" type="line"/>
      <point x="114" y="729" type="line"/>
    </contour>
  </outline>
</glyph>
<glyph name="U" format="2">
  <advance width="757"/>
  <unicode hex="0055"/>
  <anchor x="352" y="0" name="bottom"/>
  <anchor x="399" y="0" name="ogonek"/>
  <anchor x="475" y="729" name="top"/>
  <anchor x="755" y="729" name="topright"/>
  <outline>
    <contour>
      <point x="352" y="-8" type="curve" smooth="yes"/>
      <point x="528" y="-8"/>
      <point x="655" y="65"/>
      <point x="699" y="276" type="curve" smooth="yes"/>
      <point x="793" y="729" type="line"/>
      <point x="755" y="729" type="line"/>
      <point x="663" y="289" type="line" smooth="yes"/>
      <point x="627" y="119"/>
      <point x="544" y="28"/>
      <point x="358" y="28" type="curve" smooth="yes"/>
      <point x="171" y="28"/>
      <point x="68" y="122"/>
      <point x="107" y="308" type="curve" smooth="yes"/>
      <point x="195" y="729" type="line"/>
      <point x="157" y="729" type="line"/>
      <point x="68" y="305" type="line" smooth="yes"/>
      <point x="27" y="109"/>
      <point x="137" y="-8"/>
    </contour>
  </outline>
</glyph>
<glyph name="V" format="2">
  <advance width="813"/>
  <unicode hex="0056"/>
  <anchor x="363" y="0" name="bottom"/>
  <anchor x="514" y="729" name="top"/>
  <outline>
    <contour>
      <point x="325" y="0" type="line"/>
      <point x="373" y="0" type="line"/>
      <point x="894" y="729" type="line"/>
      <point x="848" y="729" type="line"/>
      <point x="397" y="94" type="line"/>
      <point x="358" y="36" type="line"/>
      <point x="352" y="36" type="line"/>
      <point x="337" y="93" type="line"/>
      <point x="151" y="729" type="line"/>
      <point x="113" y="729" type="line"/>
    </contour>
  </outline>
</glyph>
<glyph name="W" format="2">
  <advance width="1078"/>
  <unicode hex="0057"/>
  <anchor x="481" y="0" name="bottom"/>
  <anchor x="632" y="729" name="top"/>
  <outline>
    <contour>
      <point x="219" y="0" type="line"/>
      <point x="271" y="0" type="line"/>
      <point x="555" y="554" type="line"/>
      <point x="623" y="687" type="line"/>
      <point x="628" y="687" type="line"/>
      <point x="640" y="552" type="line"/>
      <point x="688" y="0" type="line"/>
      <point x="744" y="0" type="line"/>
      <point x="1157" y="729" type="line"/>
      <point x="1115" y="729" type="line"/>
      <point x="806" y="186" type="line"/>
      <point x="727" y="42" type="line"/>
      <point x="719" y="42" type="line"/>
      <point x="708" y="174" type="line"/>
      <point x="660" y="729" type="line"/>
      <point x="606" y="729" type="line"/>
      <point x="322" y="178" type="line"/>
      <point x="254" y="43" type="line"/>
      <point x="248" y="43" type="line"/>
      <point x="224" y="237" type="line"/>
      <point x="153" y="729" type="line"/>
      <point x="115" y="729" type="line"/>
    </contour>
  </outline>
</glyph>
<glyph name="X" format="2">
  <advance width="691"/>
  <unicode hex="0058"/>
  <anchor x="302" y="0" name="bottom"/>
  <anchor x="453" y="729" name="top"/>
  <outline>
    <contour>
      <point x="-39" y="0" type="line"/>
      <point x="10" y="0" type="line"/>
      <point x="305" y="290" type="line"/>
      <point x="364" y="348" type="line"/>
      <point x="366" y="348" type="line"/>
      <point x="404" y="285" type="line"/>
      <point x="576" y="0" type="line"/>
      <point x="621" y="0" type="line"/>
      <point x="393" y="373" type="line"/>
      <point x="753" y="729" type="line"/>
      <point x="704" y="729" type="line"/>
      <point x="445" y="472" type="line"/>
      <point x="374" y="402" type="line"/>
      <point x="370" y="401" type="line"/>
      <point x="326" y="473" type="line"/>
      <point x="173" y="729" type="line"/>
      <point x="131" y="729" type="line"/>
      <point x="344" y="377" type="line"/>
    </contour>
  </outline>
</glyph>
<glyph name="Y" format="2">
  <advance width="683"/>
  <unicode hex="0059"/>
  <anchor x="284" y="0" name="bottom"/>
  <anchor x="435" y="729" name="top"/>
  <anchor x="123" y="729" name="topleft"/>
  <outline>
    <contour>
      <point x="265" y="0" type="line"/>
      <point x="303" y="0" type="line"/>
      <point x="364" y="296" type="line"/>
      <point x="766" y="729" type="line"/>
      <point x="717" y="729" type="line"/>
      <point x="466" y="457" type="line"/>
      <point x="353" y="334" type="line"/>
      <point x="348" y="334" type="line"/>
      <point x="287" y="456" type="line"/>
      <point x="151" y="729" type="line"/>
      <point x="111" y="729" type="line"/>
      <point x="327" y="299" type="line"/>
    </contour>
  </outline>
</glyph>
<glyph name="Z" format="2">
  <advance width="668"/>
  <unicode hex="005A"/>
  <anchor x="280" y="0" name="bottom"/>
  <anchor x="355" y="365" name="center"/>
  <anchor x="431" y="729" name="top"/>
  <outline>
    <contour>
      <point x="-33" y="0" type="line"/>
      <point x="594" y="0" type="line"/>
      <point x="601" y="37" type="line"/>
      <point x="32" y="37" type="line"/>
      <point x="727" y="698" type="line"/>
      <point x="733" y="729" type="line"/>
      <point x="133" y="729" type="line"/>
      <point x="126" y="693" type="line"/>
      <point x="668" y="693" type="line"/>
      <point x="-27" y="32" type="line"/>
    </contour>
  </outline>
</glyph>
<glyph name="bracketleft" format="2">
  <advance width="331"/>
  <unicode hex="005B"/>
  <outline>
    <contour>
      <point x="-11" y="-167" type="line"/>
      <point x="216" y="-167" type="line"/>
      <point x="223" y="-135" type="line"/>
      <point x="32" y="-135" type="line"/>
      <point x="220" y="761" type="line"/>
      <point x="411" y="761" type="line"/>
      <point x="418" y="793" type="line"/>
      <point x="191" y="793" type="line"/>
    </contour>
  </outline>
</glyph>
<glyph name="backslash" format="2">
  <advance width="416"/>
  <unicode hex="005C"/>
  <outline>
    <contour>
      <point x="322" y="-81" type="line"/>
      <point x="357" y="-81" type="line"/>
      <point x="118" y="729" type="line"/>
      <point x="86" y="729" type="line"/>
    </contour>
  </outline>
</glyph>
<glyph name="asciicircum" format="2">
  <advance width="720"/>
  <unicode hex="005E"/>
  <outline>
    <contour>
      <point x="225" y="476" type="line"/>
      <point x="269" y="476" type="line"/>
      <point x="450" y="694" type="line"/>
      <point x="542" y="476" type="line"/>
      <point x="586" y="476" type="line"/>
      <point x="477" y="729" type="line"/>
      <point x="440" y="729" type="line"/>
    </contour>
  </outline>
</glyph>
<glyph name="underscore" format="2">
  <advance width="445"/>
  <unicode hex="005F"/>
  <outline>
    <contour>
      <point x="-14" y="-32" type="line"/>
      <point x="338" y="-32" type="line"/>
      <point x="345" y="0" type="line"/>
      <point x="-7" y="0" type="line"/>
    </contour>
  </outline>
</glyph>
<glyph name="a" format="2">
  <advance width="638"/>
  <unicode hex="0061"/>
  <anchor x="274" y="0" name="bottom"/>
  <anchor x="518" y="0" name="ogonek"/>
  <anchor x="382" y="517" name="top"/>
  <outline>
    <contour>
      <point x="261" y="-10" type="curve" smooth="yes"/>
      <point x="364" y="-10"/>
      <point x="453" y="37"/>
      <point x="501" y="109" type="curve"/>
      <point x="504" y="109" type="line"/>
      <point x="481" y="0" type="line"/>
      <point x="518" y="0" type="line"/>
      <point x="625" y="517" type="line"/>
      <point x="595" y="517" type="line"/>
      <point x="560" y="370" type="line"/>
      <point x="557" y="370" type="line"/>
      <point x="542" y="463"/>
      <point x="454" y="527"/>
      <point x="336" y="527" type="curve" smooth="yes"/>
      <point x="165" y="527"/>
      <point x="39" y="399"/>
      <point x="33" y="221" type="curve" smooth="yes"/>
      <point x="28" y="80"/>
      <point x="121" y="-10"/>
    </contour>
    <contour>
      <point x="269" y="24" type="curve" smooth="yes"/>
      <point x="143" y="24"/>
      <point x="66" y="101"/>
      <point x="70" y="223" type="curve" smooth="yes"/>
      <point x="76" y="381"/>
      <point x="186" y="493"/>
      <point x="332" y="493" type="curve" smooth="yes"/>
      <point x="483" y="493"/>
      <point x="561" y="394"/>
      <point x="532" y="247" type="curve" smooth="yes"/>
      <point x="526" y="217" type="line" smooth="yes"/>
      <point x="503" y="102"/>
      <point x="399" y="24"/>
    </contour>
  </outline>
</glyph>
<glyph name="b" format="2">
  <advance width="637"/>
  <unicode hex="0062"/>
  <anchor x="278" y="0" name="bottom"/>
  <anchor x="429" y="729" name="top"/>
  <outline>
    <contour>
      <point x="301" y="-10" type="curve" smooth="yes"/>
      <point x="476" y="-10"/>
      <point x="604" y="124"/>
      <point x="604" y="307" type="curve" smooth="yes"/>
      <point x="604" y="442"/>
      <point x="512" y="527"/>
      <point x="377" y="527" type="curve" smooth="yes"/>
      <point x="273" y="527"/>
      <point x="185" y="480"/>
      <point x="136" y="408" type="curve"/>
      <point x="133" y="408" type="line"/>
      <point x="200" y="729" type="line"/>
      <point x="163" y="729" type="line"/>
      <point x="12" y="0" type="line"/>
      <point x="43" y="0" type="line"/>
      <point x="77" y="147" type="line"/>
      <point x="80" y="147" type="line"/>
      <point x="95" y="54"/>
      <point x="183" y="-10"/>
    </contour>
    <contour>
      <point x="305" y="24" type="curve" smooth="yes"/>
      <point x="154" y="24"/>
      <point x="75" y="123"/>
      <point x="105" y="270" type="curve" smooth="yes"/>
      <point x="111" y="300" type="line" smooth="yes"/>
      <point x="133" y="415"/>
      <point x="238" y="493"/>
      <point x="368" y="493" type="curve" smooth="yes"/>
      <point x="490" y="493"/>
      <point x="567" y="420"/>
      <point x="567" y="303" type="curve" smooth="yes"/>
      <point x="567" y="157"/>
      <point x="467" y="24"/>
    </contour>
  </outline>
</glyph>
<glyph name="c" format="2">
  <advance width="609"/>
  <unicode hex="0063"/>
  <anchor x="283" y="0" name="bottom"/>
  <anchor x="349" y="517" name="top"/>
  <outline>
    <contour>
      <point x="284" y="-10" type="curve" smooth="yes"/>
      <point x="423" y="-10"/>
      <point x="537" y="65"/>
      <point x="567" y="173" type="curve"/>
      <point x="529" y="173" type="line"/>
      <point x="500" y="83"/>
      <point x="405" y="24"/>
      <point x="288" y="24" type="curve" smooth="yes"/>
      <point x="156" y="24"/>
      <point x="70" y="94"/>
      <point x="70" y="221" type="curve" smooth="yes"/>
      <point x="70" y="382"/>
      <point x="184" y="493"/>
      <point x="344" y="493" type="curve" smooth="yes"/>
      <point x="445" y="493"/>
      <point x="537" y="444"/>
      <point x="554" y="354" type="curve"/>
      <point x="592" y="354" type="line"/>
      <point x="583" y="452"/>
      <point x="485" y="527"/>
      <point x="349" y="527" type="curve" smooth="yes"/>
      <point x="166" y="527"/>
      <point x="33" y="400"/>
      <point x="33" y="220" type="curve" smooth="yes"/>
      <point x="33" y="81"/>
      <point x="130" y="-10"/>
    </contour>
  </outline>
</glyph>
<glyph name="d" format="2">
  <advance width="645"/>
  <unicode hex="0064"/>
  <anchor x="276" y="0" name="bottom"/>
  <anchor x="587" y="631" name="center"/>
  <anchor x="427" y="729" name="top"/>
  <anchor x="721" y="729" name="topright"/>
  <outline>
    <contour>
      <point x="262" y="-10" type="curve" smooth="yes"/>
      <point x="366" y="-10"/>
      <point x="459" y="29"/>
      <point x="507" y="109" type="curve"/>
      <point x="510" y="109" type="line"/>
      <point x="491" y="0" type="line"/>
      <point x="524" y="0" type="line"/>
      <point x="676" y="729" type="line"/>
      <point x="639" y="729" type="line"/>
      <point x="563" y="363" type="line"/>
      <point x="559" y="363" type="line"/>
      <point x="545" y="461"/>
      <point x="456" y="527"/>
      <point x="336" y="527" type="curve" smooth="yes"/>
      <point x="166" y="527"/>
      <point x="39" y="399"/>
      <point x="33" y="222" type="curve" smooth="yes"/>
      <point x="28" y="81"/>
      <point x="122" y="-10"/>
    </contour>
    <contour>
      <point x="268" y="24" type="curve" smooth="yes"/>
      <point x="143" y="24"/>
      <point x="66" y="101"/>
      <point x="70" y="223" type="curve" smooth="yes"/>
      <point x="76" y="381"/>
      <point x="186" y="493"/>
      <point x="332" y="493" type="curve" smooth="yes"/>
      <point x="484" y="493"/>
      <point x="566" y="393"/>
      <point x="537" y="247" type="curve" smooth="yes"/>
      <point x="531" y="217" type="line" smooth="yes"/>
      <point x="508" y="103"/>
      <point x="412" y="24"/>
    </contour>
  </outline>
</glyph>
<glyph name="e" format="2">
  <advance width="612"/>
  <unicode hex="0065"/>
  <anchor x="284" y="0" name="bottom"/>
  <anchor x="366" y="0" name="ogonek"/>
  <anchor x="346" y="517" name="top"/>
  <outline>
    <contour>
      <point x="283" y="-9" type="curve" smooth="yes"/>
      <point x="414" y="-9"/>
      <point x="525" y="57"/>
      <point x="556" y="152" type="curve"/>
      <point x="519" y="152" type="line"/>
      <point x="487" y="76"/>
      <point x="400" y="25"/>
      <point x="289" y="25" type="curve" smooth="yes"/>
      <point x="142" y="25"/>
      <point x="56" y="117"/>
      <point x="72" y="256" type="curve"/>
      <point x="576" y="256" type="line"/>
      <point x="611" y="418"/>
      <point x="516" y="527"/>
      <point x="344" y="527" type="curve" smooth="yes"/>
      <point x="169" y="527"/>
      <point x="38" y="400"/>
      <point x="32" y="225" type="curve" smooth="yes"/>
      <point x="27" y="84"/>
      <point x="134" y="-9"/>
    </contour>
    <contour>
      <point x="77" y="280" type="line"/>
      <point x="101" y="408"/>
      <point x="204" y="493"/>
      <point x="341" y="493" type="curve" smooth="yes"/>
      <point x="484" y="493"/>
      <point x="564" y="409"/>
      <point x="542" y="279" type="curve"/>
      <point x="552" y="289" type="line"/>
      <point x="67" y="289" type="line"/>
    </contour>
  </outline>
</glyph>
<glyph name="f" format="2">
  <advance width="290"/>
  <unicode hex="0066"/>
  <anchor x="81" y="0" name="bottom"/>
  <anchor x="245" y="729" name="top"/>
  <outline>
    <contour>
      <point x="64" y="0" type="line"/>
      <point x="100" y="0" type="line"/>
      <point x="200" y="485" type="line"/>
      <point x="326" y="485" type="line"/>
      <point x="333" y="517" type="line"/>
      <point x="207" y="517" type="line"/>
      <point x="224" y="599" type="line" smooth="yes"/>
      <point x="239" y="673"/>
      <point x="264" y="695"/>
      <point x="330" y="695" type="curve" smooth="yes"/>
      <point x="384" y="695" type="line"/>
      <point x="391" y="729" type="line"/>
      <point x="323" y="729" type="line" smooth="yes"/>
      <point x="253" y="729"/>
      <point x="208" y="697"/>
      <point x="191" y="614" type="curve" smooth="yes"/>
      <point x="171" y="517" type="line"/>
      <point x="65" y="517" type="line"/>
      <point x="59" y="485" type="line"/>
      <point x="164" y="485" type="line"/>
    </contour>
  </outline>
</glyph>
<glyph name="g" format="2">
  <advance width="614"/>
  <unicode hex="0067"/>
  <anchor x="227" y="-167" name="bottom"/>
  <anchor x="327" y="517" name="top"/>
  <outline>
    <contour>
      <point x="235" y="-177" type="curve" smooth="yes"/>
      <point x="380" y="-177"/>
      <point x="471" y="-113"/>
      <point x="498" y="14" type="curve" smooth="yes"/>
      <point x="603" y="517" type="line"/>
      <point x="567" y="517" type="line"/>
      <point x="539" y="383" type="line"/>
      <point x="534" y="383" type="line"/>
      <point x="514" y="468"/>
      <point x="433" y="526"/>
      <point x="323" y="526" type="curve" smooth="yes"/>
      <point x="161" y="526"/>
      <point x="41" y="408"/>
      <point x="35" y="243" type="curve" smooth="yes"/>
      <point x="31" y="115"/>
      <point x="124" y="28"/>
      <point x="268" y="28" type="curve" smooth="yes"/>
      <point x="359" y="28"/>
      <point x="439" y="68"/>
      <point x="483" y="138" type="curve"/>
      <point x="488" y="138" type="line"/>
      <point x="463" y="19" type="line" smooth="yes"/>
      <point x="443" y="-79"/>
      <point x="381" y="-144"/>
      <point x="238" y="-144" type="curve" smooth="yes"/>
      <point x="141" y="-144"/>
      <point x="41" y="-112"/>
      <point x="34" y="-20" type="curve"/>
      <point x="-2" y="-20" type="line"/>
      <point x="0" y="-114"/>
      <point x="94" y="-177"/>
    </contour>
    <contour>
      <point x="275" y="61" type="curve" smooth="yes"/>
      <point x="149" y="61"/>
      <point x="70" y="136"/>
      <point x="74" y="247" type="curve" smooth="yes"/>
      <point x="79" y="390"/>
      <point x="182" y="492"/>
      <point x="322" y="492" type="curve" smooth="yes"/>
      <point x="464" y="492"/>
      <point x="551" y="400"/>
      <point x="518" y="267" type="curve" smooth="yes"/>
      <point x="509" y="230" type="line" smooth="yes"/>
      <point x="486" y="131"/>
      <point x="390" y="61"/>
    </contour>
  </outline>
</glyph>
<glyph name="h" format="2">
  <advance width="620"/>
  <unicode hex="0068"/>
  <anchor x="274" y="0" name="bottom"/>
  <anchor x="211" y="631" name="center"/>
  <anchor x="182" y="729" name="top"/>
  <outline>
    <contour>
      <point x="12" y="0" type="line"/>
      <point x="49" y="0" type="line"/>
      <point x="108" y="285" type="line" smooth="yes"/>
      <point x="136" y="419"/>
      <point x="244" y="494"/>
      <point x="367" y="494" type="curve" smooth="yes"/>
      <point x="496" y="494"/>
      <point x="566" y="429"/>
      <point x="532" y="266" type="curve" smooth="yes"/>
      <point x="477" y="0" type="line"/>
      <point x="513" y="0" type="line"/>
      <point x="570" y="270" type="line" smooth="yes"/>
      <point x="605" y="434"/>
      <point x="531" y="527"/>
      <point x="376" y="527" type="curve" smooth="yes"/>
      <point x="286" y="527"/>
      <point x="192" y="485"/>
      <point x="138" y="406" type="curve"/>
      <point x="133" y="406" type="line"/>
      <point x="200" y="729" type="line"/>
      <point x="163" y="729" type="line"/>
    </contour>
  </outline>
</glyph>
<glyph name="k" format="2">
  <advance width="556"/>
  <unicode hex="006B"/>
  <anchor x="235" y="0" name="bottom"/>
  <anchor x="386" y="729" name="top"/>
  <outline>
    <contour>
      <point x="12" y="0" type="line"/>
      <point x="49" y="0" type="line"/>
      <point x="86" y="182" type="line"/>
      <point x="263" y="300" type="line"/>
      <point x="296" y="244" type="line"/>
      <point x="446" y="0" type="line"/>
      <point x="491" y="0" type="line"/>
      <point x="292" y="320" type="line"/>
      <point x="584" y="517" type="line"/>
      <point x="529" y="517" type="line"/>
      <point x="178" y="280" type="line"/>
      <point x="95" y="222" type="line"/>
      <point x="200" y="729" type="line"/>
      <point x="163" y="729" type="line"/>
    </contour>
  </outline>
</glyph>
<glyph name="l" format="2">
  <advance width="169"/>
  <unicode hex="006C"/>
  <anchor x="31" y="0" name="bottom"/>
  <anchor x="106" y="365" name="center"/>
  <anchor x="181" y="729" name="top"/>
  <anchor x="200" y="729" name="topright"/>
  <outline>
    <contour>
      <point x="12" y="0" type="line"/>
      <point x="49" y="0" type="line"/>
      <point x="200" y="729" type="line"/>
      <point x="163" y="729" type="line"/>
    </contour>
  </outline>
</glyph>
<glyph name="m" format="2">
  <advance width="992"/>
  <unicode hex="006D"/>
  <anchor x="459" y="0" name="bottom"/>
  <anchor x="567" y="517" name="top"/>
  <outline>
    <contour>
      <point x="13" y="0" type="line"/>
      <point x="50" y="0" type="line"/>
      <point x="107" y="276" type="line" smooth="yes"/>
      <point x="135" y="409"/>
      <point x="228" y="494"/>
      <point x="344" y="494" type="curve" smooth="yes"/>
      <point x="455" y="494"/>
      <point x="521" y="433"/>
      <point x="487" y="274" type="curve" smooth="yes"/>
      <point x="430" y="0" type="line"/>
      <point x="466" y="0" type="line"/>
      <point x="527" y="287" type="line" smooth="yes"/>
      <point x="556" y="424"/>
      <point x="647" y="494"/>
      <point x="761" y="494" type="curve" smooth="yes"/>
      <point x="872" y="494"/>
      <point x="937" y="434"/>
      <point x="906" y="283" type="curve" smooth="yes"/>
      <point x="848" y="0" type="line"/>
      <point x="884" y="0" type="line"/>
      <point x="944" y="287" type="line" smooth="yes"/>
      <point x="978" y="451"/>
      <point x="900" y="527"/>
      <point x="770" y="527" type="curve" smooth="yes"/>
      <point x="672" y="527"/>
      <point x="583" y="477"/>
      <point x="536" y="385" type="curve"/>
      <point x="529" y="385" type="line"/>
      <point x="517" y="481"/>
      <point x="449" y="527"/>
      <point x="353" y="527" type="curve" smooth="yes"/>
      <point x="271" y="527"/>
      <point x="189" y="484"/>
      <point x="141" y="406" type="curve"/>
      <point x="136" y="406" type="line"/>
      <point x="156" y="517" type="line"/>
      <point x="120" y="517" type="line"/>
    </contour>
  </outline>
</glyph>
<glyph name="n" format="2">
  <advance width="620"/>
  <unicode hex="006E"/>
  <anchor x="274" y="0" name="bottom"/>
  <anchor x="382" y="517" name="top"/>
  <outline>
    <contour>
      <point x="12" y="0" type="line"/>
      <point x="50" y="0" type="line"/>
      <point x="107" y="276" type="line" smooth="yes"/>
      <point x="135" y="409"/>
      <point x="239" y="494"/>
      <point x="368" y="494" type="curve" smooth="yes"/>
      <point x="497" y="494"/>
      <point x="567" y="429"/>
      <point x="533" y="266" type="curve" smooth="yes"/>
      <point x="478" y="0" type="line"/>
      <point x="514" y="0" type="line"/>
      <point x="570" y="270" type="line" smooth="yes"/>
      <point x="605" y="434"/>
      <point x="531" y="527"/>
      <point x="377" y="527" type="curve" smooth="yes"/>
      <point x="286" y="527"/>
      <point x="195" y="485"/>
      <point x="141" y="406" type="curve"/>
      <point x="136" y="406" type="line"/>
      <point x="156" y="517" type="line"/>
      <point x="120" y="517" type="line"/>
    </contour>
  </outline>
</glyph>
<glyph name="o" format="2">
  <advance width="631"/>
  <unicode hex="006F"/>
  <anchor x="283" y="0" name="bottom"/>
  <anchor x="316" y="259" name="center"/>
  <anchor x="534" y="10" name="ogonek"/>
  <anchor x="349" y="517" name="top"/>
  <anchor x="458" y="507" name="topright"/>
  <outline>
    <contour>
      <point x="284" y="-10" type="curve" smooth="yes"/>
      <point x="466" y="-10"/>
      <point x="598" y="119"/>
      <point x="598" y="298" type="curve" smooth="yes"/>
      <point x="598" y="436"/>
      <point x="502" y="527"/>
      <point x="348" y="527" type="curve" smooth="yes"/>
      <point x="165" y="527"/>
      <point x="33" y="399"/>
      <point x="33" y="219" type="curve" smooth="yes"/>
      <point x="33" y="80"/>
      <point x="129" y="-10"/>
    </contour>
    <contour>
      <point x="288" y="24" type="curve" smooth="yes"/>
      <point x="156" y="24"/>
      <point x="71" y="94"/>
      <point x="71" y="221" type="curve" smooth="yes"/>
      <point x="71" y="382"/>
      <point x="184" y="493"/>
      <point x="344" y="493" type="curve" smooth="yes"/>
      <point x="476" y="493"/>
      <point x="561" y="422"/>
      <point x="561" y="296" type="curve" smooth="yes"/>
      <point x="561" y="136"/>
      <point x="448" y="24"/>
    </contour>
  </outline>
</glyph>
<glyph name="q" format="2">
  <advance width="637"/>
  <unicode hex="0071"/>
  <anchor x="274" y="0" name="bottom"/>
  <anchor x="382" y="517" name="top"/>
  <outline>
    <contour>
      <point x="446" y="-167" type="line"/>
      <point x="483" y="-167" type="line"/>
      <point x="624" y="517" type="line"/>
      <point x="594" y="517" type="line"/>
      <point x="560" y="370" type="line"/>
      <point x="556" y="370" type="line"/>
      <point x="541" y="463"/>
      <point x="454" y="527"/>
      <point x="335" y="527" type="curve" smooth="yes"/>
      <point x="164" y="527"/>
      <point x="39" y="399"/>
      <point x="33" y="221" type="curve" smooth="yes"/>
      <point x="28" y="80"/>
      <point x="120" y="-10"/>
      <point x="260" y="-10" type="curve" smooth="yes"/>
      <point x="363" y="-10"/>
      <point x="452" y="37"/>
      <point x="500" y="109" type="curve"/>
      <point x="503" y="109" type="line"/>
    </contour>
    <contour>
      <point x="268" y="24" type="curve" smooth="yes"/>
      <point x="143" y="24"/>
      <point x="66" y="101"/>
      <point x="70" y="223" type="curve" smooth="yes"/>
      <point x="76" y="381"/>
      <point x="185" y="493"/>
      <point x="331" y="493" type="curve" smooth="yes"/>
      <point x="482" y="493"/>
      <point x="561" y="394"/>
      <point x="531" y="247" type="curve" smooth="yes"/>
      <point x="525" y="217" type="line" smooth="yes"/>
      <point x="504" y="102"/>
      <point x="399" y="24"/>
    </contour>
  </outline>
</glyph>
<glyph name="r" format="2">
  <advance width="327"/>
  <unicode hex="0072"/>
  <anchor x="30" y="0" name="bottom"/>
  <anchor x="230" y="517" name="top"/>
  <outline>
    <contour>
      <point x="12" y="0" type="line"/>
      <point x="48" y="0" type="line"/>
      <point x="118" y="336" type="line"/>
      <point x="147" y="432"/>
      <point x="228" y="488"/>
      <point x="313" y="488" type="curve" smooth="yes"/>
      <point x="333" y="488"/>
      <point x="351" y="486"/>
      <point x="362" y="481" type="curve"/>
      <point x="370" y="517" type="line"/>
      <point x="360" y="521"/>
      <point x="342" y="524"/>
      <point x="319" y="524" type="curve" smooth="yes"/>
      <point x="243" y="524"/>
      <point x="172" y="482"/>
      <point x="135" y="413" type="curve"/>
      <point x="133" y="413" type="line"/>
      <point x="152" y="517" type="line"/>
      <point x="120" y="517" type="line"/>
    </contour>
  </outline>
</glyph>
<glyph name="s" format="2">
  <advance width="533"/>
  <unicode hex="0073"/>
  <anchor x="249" y="0" name="bottom"/>
  <anchor x="286" y="517" name="top"/>
  <outline>
    <contour>
      <point x="247" y="-10" type="curve" smooth="yes"/>
      <point x="396" y="-10"/>
      <point x="475" y="45"/>
      <point x="475" y="151" type="curve" smooth="yes"/>
      <point x="475" y="244"/>
      <point x="381" y="262"/>
      <point x="285" y="279" type="curve" smooth="yes"/>
      <point x="176" y="297"/>
      <point x="112" y="313"/>
      <point x="112" y="381" type="curve" smooth="yes"/>
      <point x="112" y="452"/>
      <point x="177" y="494"/>
      <point x="281" y="494" type="curve" smooth="yes"/>
      <point x="400" y="494"/>
      <point x="475" y="452"/>
      <point x="474" y="367" type="curve"/>
      <point x="513" y="367" type="line"/>
      <point x="519" y="465"/>
      <point x="427" y="527"/>
      <point x="286" y="527" type="curve" smooth="yes"/>
      <point x="155" y="527"/>
      <point x="74" y="469"/>
      <point x="74" y="377" type="curve" smooth="yes"/>
      <point x="74" y="287"/>
      <point x="166" y="265"/>
      <point x="266" y="247" type="curve" smooth="yes"/>
      <point x="398" y="224"/>
      <point x="437" y="206"/>
      <point x="437" y="142" type="curve" smooth="yes"/>
      <point x="437" y="65"/>
      <point x="374" y="24"/>
      <point x="255" y="24" type="curve" smooth="yes"/>
      <point x="106" y="24"/>
      <point x="37" y="78"/>
      <point x="44" y="160" type="curve"/>
      <point x="7" y="160" type="line"/>
      <point x="-2" y="59"/>
      <point x="86" y="-10"/>
    </contour>
  </outline>
</glyph>
<glyph name="t" format="2">
  <advance width="326"/>
  <unicode hex="0074"/>
  <anchor x="177" y="0" name="bottom"/>
  <anchor x="160" y="259" name="center"/>
  <anchor x="200" y="517" name="top"/>
  <anchor x="272" y="776" name="topright"/>
  <outline>
    <contour>
      <point x="179" y="0" type="curve" smooth="yes"/>
      <point x="253" y="0" type="line"/>
      <point x="260" y="35" type="line"/>
      <point x="198" y="35" type="line" smooth="yes"/>
      <point x="145" y="35"/>
      <point x="119" y="48"/>
      <point x="132" y="111" type="curve" smooth="yes"/>
      <point x="209" y="485" type="line"/>
      <point x="355" y="485" type="line"/>
      <point x="361" y="517" type="line"/>
      <point x="216" y="517" type="line"/>
      <point x="252" y="690" type="line"/>
      <point x="214" y="681" type="line"/>
      <point x="180" y="517" type="line"/>
      <point x="65" y="517" type="line"/>
      <point x="59" y="485" type="line"/>
      <point x="173" y="485" type="line"/>
      <point x="95" y="108" type="line" smooth="yes"/>
      <point x="80" y="34"/>
      <point x="116" y="0"/>
    </contour>
  </outline>
</glyph>
<glyph name="u" format="2">
  <advance width="620"/>
  <unicode hex="0075"/>
  <anchor x="261" y="0" name="bottom"/>
  <anchor x="500" y="0" name="ogonek"/>
  <anchor x="357" y="517" name="top"/>
  <anchor x="571" y="517" name="topright"/>
  <outline>
    <contour>
      <point x="243" y="-10" type="curve" smooth="yes"/>
      <point x="334" y="-10"/>
      <point x="425" y="33"/>
      <point x="479" y="112" type="curve"/>
      <point x="484" y="112" type="line"/>
      <point x="464" y="0" type="line"/>
      <point x="500" y="0" type="line"/>
      <point x="607" y="517" type="line"/>
      <point x="571" y="517" type="line"/>
      <point x="513" y="241" type="line" smooth="yes"/>
      <point x="485" y="109"/>
      <point x="382" y="23"/>
      <point x="252" y="23" type="curve" smooth="yes"/>
      <point x="124" y="23"/>
      <point x="55" y="88"/>
      <point x="88" y="251" type="curve" smooth="yes"/>
      <point x="142" y="517" type="line"/>
      <point x="106" y="517" type="line"/>
      <point x="50" y="247" type="line" smooth="yes"/>
      <point x="14" y="72"/>
      <point x="99" y="-10"/>
    </contour>
  </outline>
</glyph>
<glyph name="v" format="2">
  <advance width="571"/>
  <unicode hex="0076"/>
  <anchor x="242" y="0" name="bottom"/>
  <anchor x="350" y="517" name="top"/>
  <outline>
    <contour>
      <point x="214" y="0" type="line"/>
      <point x="251" y="0" type="line"/>
      <point x="614" y="517" type="line"/>
      <point x="572" y="517" type="line"/>
      <point x="296" y="121" type="line"/>
      <point x="240" y="35" type="line"/>
      <point x="238" y="35" type="line"/>
      <point x="214" y="120" type="line"/>
      <point x="104" y="517" type="line"/>
      <point x="66" y="517" type="line"/>
    </contour>
  </outline>
</glyph>
<glyph name="w" format="2">
  <advance width="810"/>
  <unicode hex="0077"/>
  <anchor x="361" y="0" name="bottom"/>
  <anchor x="457" y="517" name="top"/>
  <outline>
    <contour>
      <point x="142" y="0" type="line"/>
      <point x="191" y="0" type="line"/>
      <point x="335" y="265" type="line"/>
      <point x="447" y="479" type="line"/>
      <point x="453" y="479" type="line"/>
      <point x="477" y="265" type="line"/>
      <point x="511" y="0" type="line"/>
      <point x="560" y="0" type="line"/>
      <point x="849" y="517" type="line"/>
      <point x="808" y="517" type="line"/>
      <point x="642" y="218" type="line"/>
      <point x="544" y="35" type="line"/>
      <point x="539" y="35" type="line"/>
      <point x="516" y="218" type="line"/>
      <point x="478" y="517" type="line"/>
      <point x="435" y="517" type="line"/>
      <point x="273" y="218" type="line"/>
      <point x="175" y="35" type="line"/>
      <point x="170" y="35" type="line"/>
      <point x="147" y="218" type="line"/>
      <point x="105" y="517" type="line"/>
      <point x="69" y="517" type="line"/>
    </contour>
  </outline>
</glyph>
<glyph name="x" format="2">
  <advance width="537"/>
  <unicode hex="0078"/>
  <anchor x="225" y="0" name="bottom"/>
  <anchor x="333" y="517" name="top"/>
  <outline>
    <contour>
      <point x="-43" y="0" type="line"/>
      <point x="4" y="0" type="line"/>
      <point x="234" y="210" type="line"/>
      <point x="265" y="237" type="line"/>
      <point x="269" y="237" type="line"/>
      <point x="288" y="210" type="line"/>
      <point x="427" y="0" type="line"/>
      <point x="471" y="0" type="line"/>
      <point x="295" y="263" type="line"/>
      <point x="567" y="517" type="line"/>
      <point x="517" y="517" type="line"/>
      <point x="305" y="316" type="line"/>
      <point x="276" y="289" type="line"/>
      <point x="271" y="289" type="line"/>
      <point x="253" y="316" type="line"/>
      <point x="120" y="517" type="line"/>
      <point x="77" y="517" type="line"/>
      <point x="245" y="268" type="line"/>
    </contour>
  </outline>
</glyph>
<glyph name="y" format="2">
  <advance width="554"/>
  <unicode hex="0079"/>
  <anchor x="334" y="0" name="bottom"/>
  <anchor x="329" y="517" name="top"/>
  <outline>
    <contour>
      <point x="-48" y="-167" type="line"/>
      <point x="2" y="-167" type="line" smooth="yes"/>
      <point x="86" y="-167"/>
      <point x="134" y="-143"/>
      <point x="179" y="-79" type="curve" smooth="yes"/>
      <point x="597" y="517" type="line"/>
      <point x="555" y="517" type="line"/>
      <point x="314" y="169" type="line"/>
      <point x="244" y="69" type="line"/>
      <point x="239" y="69" type="line"/>
      <point x="210" y="165" type="line"/>
      <point x="103" y="517" type="line"/>
      <point x="65" y="517" type="line"/>
      <point x="226" y="8" type="line"/>
      <point x="226" y="44" type="line"/>
      <point x="163" y="-46" type="line" smooth="yes"/>
      <point x="121" y="-106"/>
      <point x="89" y="-133"/>
      <point x="7" y="-133" type="curve" smooth="yes"/>
      <point x="-41" y="-133" type="line"/>
    </contour>
  </outline>
</glyph>
<glyph name="z" format="2">
  <advance width="525"/>
  <unicode hex="007A"/>
  <anchor x="220" y="0" name="bottom"/>
  <anchor x="274" y="259" name="center"/>
  <anchor x="328" y="517" name="top"/>
  <outline>
    <contour>
      <point x="-38" y="0" type="line"/>
      <point x="454" y="0" type="line"/>
      <point x="460" y="32" type="line"/>
      <point x="24" y="32" type="line"/>
      <point x="543" y="487" type="line"/>
      <point x="550" y="517" type="line"/>
      <point x="83" y="517" type="line"/>
      <point x="76" y="485" type="line"/>
      <point x="488" y="485" type="line"/>
      <point x="-32" y="29" type="line"/>
    </contour>
  </outline>
</glyph>
<glyph name="braceleft" format="2">
  <advance width="376"/>
  <unicode hex="007B"/>
  <outline>
    <contour>
      <point x="84" y="-167" type="curve" smooth="yes"/>
      <point x="261" y="-167" type="line"/>
      <point x="268" y="-135" type="line"/>
      <point x="86" y="-135" type="line"/>
      <point x="158" y="208" type="line" smooth="yes"/>
      <point x="171" y="267"/>
      <point x="146" y="309"/>
      <point x="111" y="311" type="curve"/>
      <point x="111" y="315" type="line"/>
      <point x="146" y="316"/>
      <point x="189" y="356"/>
      <point x="201" y="417" type="curve" smooth="yes"/>
      <point x="274" y="761" type="line"/>
      <point x="456" y="761" type="line"/>
      <point x="463" y="793" type="line"/>
      <point x="286" y="793" type="line" smooth="yes"/>
      <point x="258" y="793"/>
      <point x="241" y="775"/>
      <point x="236" y="750" type="curve" smooth="yes"/>
      <point x="166" y="417" type="line" smooth="yes"/>
      <point x="154" y="361"/>
      <point x="116" y="331"/>
      <point x="86" y="331" type="curve" smooth="yes"/>
      <point x="38" y="331" type="line"/>
      <point x="31" y="294" type="line"/>
      <point x="78" y="294" type="line" smooth="yes"/>
      <point x="109" y="294"/>
      <point x="134" y="264"/>
      <point x="123" y="209" type="curve" smooth="yes"/>
      <point x="53" y="-124" type="line" smooth="yes"/>
      <point x="48" y="-149"/>
      <point x="56" y="-167"/>
    </contour>
  </outline>
</glyph>
<glyph name="bar" format="2">
  <advance width="207"/>
  <unicode hex="007C"/>
  <outline>
    <contour>
      <point x="18" y="-67" type="line"/>
      <point x="53" y="-67" type="line"/>
      <point x="220" y="729" type="line"/>
      <point x="184" y="729" type="line"/>
    </contour>
  </outline>
</glyph>
<glyph name="asciitilde" format="2">
  <advance width="720"/>
  <unicode hex="007E"/>
  <outline>
    <contour>
      <point x="116" y="302" type="curve"/>
      <point x="147" y="302" type="line"/>
      <point x="152" y="343"/>
      <point x="174" y="366"/>
      <point x="206" y="366" type="curve" smooth="yes"/>
      <point x="259" y="366"/>
      <point x="310" y="318"/>
      <point x="372" y="318" type="curve" smooth="yes"/>
      <point x="427" y="318"/>
      <point x="473" y="353"/>
      <point x="483" y="420" type="curve"/>
      <point x="451" y="420" type="line"/>
      <point x="443" y="376"/>
      <point x="417" y="356"/>
      <point x="382" y="356" type="curve" smooth="yes"/>
      <point x="317" y="356"/>
      <point x="272" y="404"/>
      <point x="214" y="404" type="curve" smooth="yes"/>
      <point x="166" y="404"/>
      <point x="125" y="370"/>
    </contour>
  </outline>
</glyph>
<glyph name="cent" format="2">
  <advance width="634"/>
  <unicode hex="00A2"/>
  <outline>
    <contour>
      <point x="317" y="97" type="curve" smooth="yes"/>
      <point x="456" y="97"/>
      <point x="570" y="172"/>
      <point x="600" y="280" type="curve"/>
      <point x="562" y="280" type="line"/>
      <point x="533" y="190"/>
      <point x="438" y="131"/>
      <point x="321" y="131" type="curve" smooth="yes"/>
      <point x="189" y="131"/>
      <point x="103" y="201"/>
      <point x="103" y="328" type="curve" smooth="yes"/>
      <point x="103" y="489"/>
      <point x="217" y="600"/>
      <point x="377" y="600" type="curve" smooth="yes"/>
      <point x="478" y="600"/>
      <point x="570" y="551"/>
      <point x="587" y="461" type="curve"/>
      <point x="625" y="461" type="line"/>
      <point x="616" y="559"/>
      <point x="518" y="634"/>
      <point x="382" y="634" type="curve" smooth="yes"/>
      <point x="199" y="634"/>
      <point x="66" y="507"/>
      <point x="66" y="327" type="curve" smooth="yes"/>
      <point x="66" y="188"/>
      <point x="163" y="97"/>
    </contour>
    <contour>
      <point x="252" y="0" type="line"/>
      <point x="285" y="0" type="line"/>
      <point x="309" y="117" type="line"/>
      <point x="276" y="117" type="line"/>
    </contour>
    <contour>
      <point x="378" y="613" type="line"/>
      <point x="411" y="613" type="line"/>
      <point x="435" y="729" type="line"/>
      <point x="402" y="729" type="line"/>
    </contour>
  </outline>
</glyph>
<glyph name="sterling" format="2">
  <advance width="675"/>
  <unicode hex="00A3"/>
  <outline>
    <contour>
      <point x="61" y="24" type="curve"/>
      <point x="106" y="25" type="line"/>
      <point x="177" y="71"/>
      <point x="228" y="164"/>
      <point x="228" y="267" type="curve" smooth="yes"/>
      <point x="228" y="353"/>
      <point x="193" y="399"/>
      <point x="193" y="482" type="curve" smooth="yes"/>
      <point x="193" y="622"/>
      <point x="293" y="701"/>
      <point x="432" y="701" type="curve" smooth="yes"/>
      <point x="567" y="701"/>
      <point x="647" y="626"/>
      <point x="641" y="509" type="curve"/>
      <point x="681" y="509" type="line"/>
      <point x="687" y="650"/>
      <point x="586" y="738"/>
      <point x="434" y="738" type="curve" smooth="yes"/>
      <point x="269" y="738"/>
      <point x="153" y="636"/>
      <point x="153" y="480" type="curve" smooth="yes"/>
      <point x="153" y="393"/>
      <point x="188" y="341"/>
      <point x="188" y="261" type="curve" smooth="yes"/>
      <point x="188" y="166"/>
      <point x="139" y="75"/>
    </contour>
    <contour>
      <point x="-21" y="0" type="line"/>
      <point x="561" y="0" type="line"/>
      <point x="598" y="176" type="line"/>
      <point x="561" y="176" type="line"/>
      <point x="531" y="36" type="line"/>
      <point x="-14" y="36" type="line"/>
    </contour>
    <contour>
      <point x="72" y="332" type="line"/>
      <point x="514" y="332" type="line"/>
      <point x="522" y="367" type="line"/>
      <point x="80" y="367" type="line"/>
    </contour>
  </outline>
</glyph>
<glyph name="currency" format="2">
  <advance width="677"/>
  <unicode hex="00A4"/>
  <outline>
    <contour>
      <point x="104" y="83" type="line"/>
      <point x="224" y="201" type="line"/>
      <point x="259" y="174"/>
      <point x="302" y="158"/>
      <point x="351" y="158" type="curve" smooth="yes"/>
      <point x="400" y="158"/>
      <point x="444" y="173"/>
      <point x="479" y="202" type="curve"/>
      <point x="593" y="83" type="line"/>
      <point x="616" y="103" type="line"/>
      <point x="503" y="223" type="line"/>
      <point x="533" y="255"/>
      <point x="552" y="301"/>
      <point x="554" y="350" type="curve" smooth="yes"/>
      <point x="556" y="403"/>
      <point x="538" y="446"/>
      <point x="513" y="480" type="curve"/>
      <point x="634" y="597" type="line"/>
      <point x="612" y="620" type="line"/>
      <point x="490" y="501" type="line"/>
      <point x="457" y="529"/>
      <point x="412" y="543"/>
      <point x="364" y="543" type="curve" smooth="yes"/>
      <point x="312" y="543"/>
      <point x="268" y="526"/>
      <point x="235" y="501" type="curve"/>
      <point x="123" y="620" type="line"/>
      <point x="99" y="597" type="line"/>
      <point x="212" y="480" type="line"/>
      <point x="182" y="446"/>
      <point x="161" y="399"/>
      <point x="160" y="350" type="curve" smooth="yes"/>
      <point x="158" y="300"/>
      <point x="175" y="255"/>
      <point x="202" y="223" type="curve"/>
      <point x="82" y="103" type="line"/>
    </contour>
    <contour>
      <point x="352" y="189" type="curve" smooth="yes"/>
      <point x="256" y="189"/>
      <point x="189" y="257"/>
      <point x="192" y="350" type="curve" smooth="yes"/>
      <point x="196" y="444"/>
      <point x="268" y="511"/>
      <point x="363" y="511" type="curve" smooth="yes"/>
      <point x="457" y="511"/>
      <point x="524" y="444"/>
      <point x="521" y="350" type="curve" smooth="yes"/>
      <point x="518" y="257"/>
      <point x="447" y="189"/>
    </contour>
  </outline>
</glyph>
<glyph name="yen" format="2">
  <advance width="672"/>
  <unicode hex="00A5"/>
  <outline>
    <contour>
      <point x="261" y="0" type="line"/>
      <point x="300" y="0" type="line"/>
      <point x="332" y="159" type="line"/>
      <point x="550" y="159" type="line"/>
      <point x="556" y="192" type="line"/>
      <point x="340" y="192" type="line"/>
      <point x="363" y="303" type="line"/>
      <point x="580" y="303" type="line"/>
      <point x="586" y="336" type="line"/>
      <point x="394" y="336" type="line"/>
      <point x="742" y="729" type="line"/>
      <point x="692" y="729" type="line"/>
      <point x="350" y="336" type="line"/>
      <point x="344" y="336" type="line"/>
      <point x="164" y="729" type="line"/>
      <point x="124" y="729" type="line"/>
      <point x="308" y="336" type="line"/>
      <point x="131" y="336" type="line"/>
      <point x="125" y="303" type="line"/>
      <point x="324" y="303" type="line"/>
      <point x="300" y="192" type="line"/>
      <point x="101" y="192" type="line"/>
      <point x="95" y="159" type="line"/>
      <point x="293" y="159" type="line"/>
    </contour>
  </outline>
</glyph>
<glyph name="brokenbar" format="2">
  <advance width="207"/>
  <unicode hex="00A6"/>
  <outline>
    <contour>
      <point x="119" y="417" type="line"/>
      <point x="154" y="417" type="line"/>
      <point x="220" y="729" type="line"/>
      <point x="184" y="729" type="line"/>
    </contour>
    <contour>
      <point x="18" y="-67" type="line"/>
      <point x="53" y="-67" type="line"/>
      <point x="119" y="245" type="line"/>
      <point x="83" y="245" type="line"/>
    </contour>
  </outline>
</glyph>
<glyph name="section" format="2">
  <advance width="506"/>
  <unicode hex="00A7"/>
  <outline>
    <contour>
      <point x="220" y="-10" type="curve" smooth="yes"/>
      <point x="338" y="-10"/>
      <point x="417" y="48"/>
      <point x="417" y="152" type="curve" smooth="yes"/>
      <point x="417" y="183"/>
      <point x="406" y="207"/>
      <point x="387" y="225" type="curve"/>
      <point x="439" y="253"/>
      <point x="468" y="297"/>
      <point x="468" y="353" type="curve" smooth="yes"/>
      <point x="468" y="437"/>
      <point x="405" y="469"/>
      <point x="318" y="490" type="curve" smooth="yes"/>
      <point x="230" y="511"/>
      <point x="183" y="535"/>
      <point x="183" y="589" type="curve" smooth="yes"/>
      <point x="183" y="658"/>
      <point x="237" y="704"/>
      <point x="327" y="704" type="curve" smooth="yes"/>
      <point x="421" y="704"/>
      <point x="480" y="658"/>
      <point x="475" y="583" type="curve"/>
      <point x="512" y="583" type="line"/>
      <point x="515" y="675"/>
      <point x="443" y="737"/>
      <point x="330" y="737" type="curve" smooth="yes"/>
      <point x="230" y="737"/>
      <point x="145" y="684"/>
      <point x="145" y="586" type="curve" smooth="yes"/>
      <point x="145" y="551"/>
      <point x="156" y="526"/>
      <point x="181" y="505" type="curve"/>
      <point x="129" y="479"/>
      <point x="94" y="429"/>
      <point x="94" y="377" type="curve" smooth="yes"/>
      <point x="94" y="303"/>
      <point x="147" y="270"/>
      <point x="246" y="246" type="curve" smooth="yes"/>
      <point x="336" y="224"/>
      <point x="378" y="201"/>
      <point x="378" y="147" type="curve" smooth="yes"/>
      <point x="378" y="67"/>
      <point x="322" y="23"/>
      <point x="222" y="23" type="curve" smooth="yes"/>
      <point x="118" y="23"/>
      <point x="54" y="74"/>
      <point x="60" y="161" type="curve"/>
      <point x="25" y="161" type="line"/>
      <point x="19" y="58"/>
      <point x="88" y="-10"/>
    </contour>
    <contour>
      <point x="363" y="243" type="curve"/>
      <point x="334" y="261"/>
      <point x="297" y="272"/>
      <point x="258" y="281" type="curve" smooth="yes"/>
      <point x="174" y="300"/>
      <point x="132" y="325"/>
      <point x="132" y="378" type="curve" smooth="yes"/>
      <point x="132" y="428"/>
      <point x="163" y="464"/>
      <point x="210" y="489" type="curve"/>
      <point x="233" y="475"/>
      <point x="264" y="466"/>
      <point x="306" y="456" type="curve" smooth="yes"/>
      <point x="391" y="435"/>
      <point x="429" y="408"/>
      <point x="429" y="348" type="curve" smooth="yes"/>
      <point x="429" y="301"/>
      <point x="405" y="268"/>
    </contour>
  </outline>
</glyph>
<glyph name="ordfeminine" format="2">
  <advance width="462"/>
  <unicode hex="00AA"/>
  <outline>
    <contour>
      <point x="249" y="385" type="curve" smooth="yes"/>
      <point x="315" y="385"/>
      <point x="370" y="416"/>
      <point x="399" y="459" type="curve"/>
      <point x="401" y="459" type="line"/>
      <point x="388" y="392" type="line"/>
      <point x="424" y="392" type="line"/>
      <point x="494" y="730" type="line"/>
      <point x="461" y="730" type="line"/>
      <point x="439" y="639" type="line"/>
      <point x="437" y="639" type="line"/>
      <point x="427" y="697"/>
      <point x="369" y="736"/>
      <point x="296" y="736" type="curve" smooth="yes"/>
      <point x="184" y="736"/>
      <point x="100" y="651"/>
      <point x="100" y="531" type="curve" smooth="yes"/>
      <point x="100" y="438"/>
      <point x="162" y="385"/>
    </contour>
    <contour>
      <point x="259" y="417" type="curve" smooth="yes"/>
      <point x="182" y="417"/>
      <point x="137" y="465"/>
      <point x="137" y="533" type="curve" smooth="yes"/>
      <point x="137" y="630"/>
      <point x="204" y="705"/>
      <point x="298" y="705" type="curve" smooth="yes"/>
      <point x="393" y="705"/>
      <point x="434" y="641"/>
      <point x="420" y="554" type="curve" smooth="yes"/>
      <point x="417" y="535" type="line" smooth="yes"/>
      <point x="404" y="465"/>
      <point x="340" y="417"/>
    </contour>
  </outline>
</glyph>
<glyph name="guillemetleft" format="2">
  <advance width="365"/>
  <unicode hex="00AB"/>
  <outline>
    <contour>
      <point x="125" y="80" type="line"/>
      <point x="154" y="80" type="line"/>
      <point x="81" y="298" type="line"/>
      <point x="227" y="517" type="line"/>
      <point x="192" y="517" type="line"/>
      <point x="44" y="298" type="line"/>
    </contour>
    <contour>
      <point x="269" y="79" type="line"/>
      <point x="298" y="79" type="line"/>
      <point x="225" y="298" type="line"/>
      <point x="372" y="517" type="line"/>
      <point x="338" y="517" type="line"/>
      <point x="188" y="298" type="line"/>
    </contour>
  </outline>
</glyph>
<glyph name="logicalnot" format="2">
  <advance width="720"/>
  <unicode hex="00AC"/>
  <outline>
    <contour>
      <point x="524" y="119" type="line"/>
      <point x="555" y="119" type="line"/>
      <point x="610" y="380" type="line"/>
      <point x="115" y="380" type="line"/>
      <point x="108" y="348" type="line"/>
      <point x="572" y="348" type="line"/>
    </contour>
  </outline>
</glyph>
<glyph name="registered" format="2">
  <advance width="629"/>
  <unicode hex="00AE"/>
  <outline>
    <contour>
      <point x="341" y="231" type="curve" smooth="yes"/>
      <point x="500" y="231"/>
      <point x="622" y="350"/>
      <point x="622" y="506" type="curve" smooth="yes"/>
      <point x="622" y="642"/>
      <point x="523" y="739"/>
      <point x="381" y="739" type="curve" smooth="yes"/>
      <point x="223" y="739"/>
      <point x="100" y="618"/>
      <point x="100" y="462" type="curve" smooth="yes"/>
      <point x="100" y="327"/>
      <point x="199" y="231"/>
    </contour>
    <contour>
      <point x="341" y="259" type="curve" smooth="yes"/>
      <point x="215" y="259"/>
      <point x="128" y="342"/>
      <point x="128" y="460" type="curve" smooth="yes"/>
      <point x="128" y="602"/>
      <point x="238" y="711"/>
      <point x="381" y="711" type="curve" smooth="yes"/>
      <point x="507" y="711"/>
      <point x="594" y="627"/>
      <point x="594" y="506" type="curve" smooth="yes"/>
      <point x="594" y="365"/>
      <point x="484" y="259"/>
    </contour>
    <contour>
      <point x="227" y="352" type="line"/>
      <point x="255" y="352" type="line"/>
      <point x="308" y="600" type="line"/>
      <point x="416" y="600" type="line" smooth="yes"/>
      <point x="453" y="600"/>
      <point x="471" y="583"/>
      <point x="470" y="552" type="curve" smooth="yes"/>
      <point x="469" y="520"/>
      <point x="446" y="495"/>
      <point x="401" y="495" type="curve" smooth="yes"/>
      <point x="278" y="495" type="line"/>
      <point x="274" y="470" type="line"/>
      <point x="404" y="470" type="line" smooth="yes"/>
      <point x="433" y="470"/>
      <point x="444" y="459"/>
      <point x="436" y="421" type="curve" smooth="yes"/>
      <point x="428" y="382" type="line" smooth="yes"/>
      <point x="426" y="373"/>
      <point x="425" y="357"/>
      <point x="426" y="352" type="curve"/>
      <point x="454" y="352" type="line"/>
      <point x="453" y="361"/>
      <point x="454" y="370"/>
      <point x="456" y="378" type="curve" smooth="yes"/>
      <point x="465" y="425" type="line" smooth="yes"/>
      <point x="471" y="454"/>
      <point x="462" y="473"/>
      <point x="439" y="482" type="curve"/>
      <point x="439" y="483" type="line"/>
      <point x="471" y="492"/>
      <point x="498" y="516"/>
      <point x="499" y="555" type="curve" smooth="yes"/>
      <point x="500" y="596"/>
      <point x="472" y="624"/>
      <point x="425" y="624" type="curve" smooth="yes"/>
      <point x="285" y="624" type="line"/>
    </contour>
  </outline>
</glyph>
<glyph name="degree" format="2">
  <advance width="425"/>
  <unicode hex="00B0"/>
  <outline>
    <contour>
      <point x="275" y="443" type="curve" smooth="yes"/>
      <point x="362" y="443"/>
      <point x="432" y="506"/>
      <point x="432" y="596" type="curve" smooth="yes"/>
      <point x="432" y="681"/>
      <point x="368" y="737"/>
      <point x="285" y="737" type="curve" smooth="yes"/>
      <point x="199" y="737"/>
      <point x="130" y="675"/>
      <point x="130" y="584" type="curve" smooth="yes"/>
      <point x="130" y="500"/>
      <point x="193" y="443"/>
    </contour>
    <contour>
      <point x="276" y="478" type="curve" smooth="yes"/>
      <point x="213" y="478"/>
      <point x="166" y="522"/>
      <point x="166" y="586" type="curve" smooth="yes"/>
      <point x="166" y="654"/>
      <point x="219" y="702"/>
      <point x="284" y="702" type="curve" smooth="yes"/>
      <point x="348" y="702"/>
      <point x="395" y="658"/>
      <point x="395" y="594" type="curve" smooth="yes"/>
      <point x="395" y="526"/>
      <point x="343" y="478"/>
    </contour>
  </outline>
</glyph>
<glyph name="plusminus" format="2">
  <advance width="720"/>
  <unicode hex="00B1"/>
  <outline>
    <contour>
      <point x="324" y="172" type="line"/>
      <point x="358" y="172" type="line"/>
      <point x="398" y="365" type="line"/>
      <point x="628" y="365" type="line"/>
      <point x="635" y="399" type="line"/>
      <point x="405" y="399" type="line"/>
      <point x="445" y="585" type="line"/>
      <point x="411" y="585" type="line"/>
      <point x="372" y="399" type="line"/>
      <point x="144" y="399" type="line"/>
      <point x="137" y="365" type="line"/>
      <point x="365" y="365" type="line"/>
    </contour>
    <contour>
      <point x="61" y="0" type="line"/>
      <point x="552" y="0" type="line"/>
      <point x="559" y="34" type="line"/>
      <point x="68" y="34" type="line"/>
    </contour>
  </outline>
</glyph>
<glyph name="paragraph" format="2">
  <advance width="591"/>
  <unicode hex="00B6"/>
  <outline>
    <contour>
      <point x="296" y="0" type="line"/>
      <point x="327" y="0" type="line"/>
      <point x="327" y="699" type="line"/>
      <point x="470" y="699" type="line"/>
      <point x="470" y="0" type="line"/>
      <point x="500" y="0" type="line"/>
      <point x="500" y="699" type="line"/>
      <point x="595" y="699" type="line"/>
      <point x="595" y="729" type="line"/>
      <point x="297" y="729" type="line" smooth="yes"/>
      <point x="184" y="729"/>
      <point x="108" y="678"/>
      <point x="108" y="571" type="curve" smooth="yes"/>
      <point x="108" y="472"/>
      <point x="168" y="406"/>
      <point x="296" y="407" type="curve"/>
    </contour>
  </outline>
</glyph>
<glyph name="periodcentered" format="2">
  <advance width="210"/>
  <unicode hex="00B7"/>
  <outline>
    <contour>
      <point x="96" y="206" type="curve" smooth="yes"/>
      <point x="143" y="206"/>
      <point x="181" y="243"/>
      <point x="181" y="292" type="curve" smooth="yes"/>
      <point x="181" y="325"/>
      <point x="160" y="348"/>
      <point x="122" y="348" type="curve" smooth="yes"/>
      <point x="74" y="348"/>
      <point x="35" y="308"/>
      <point x="35" y="261" type="curve" smooth="yes"/>
      <point x="35" y="229"/>
      <point x="59" y="206"/>
    </contour>
  </outline>
</glyph>
<glyph name="ordmasculine" format="2">
  <advance width="449"/>
  <unicode hex="00BA"/>
  <anchor x="260" y="392" name="bottom"/>
  <anchor x="288" y="561" name="center"/>
  <anchor x="431" y="399" name="ogonek"/>
  <anchor x="310" y="730" name="top"/>
  <anchor x="529" y="730" name="topright"/>
  <outline>
    <contour>
      <point x="268" y="385" type="curve" smooth="yes"/>
      <point x="385" y="385"/>
      <point x="470" y="464"/>
      <point x="474" y="576" type="curve" smooth="yes"/>
      <point x="477" y="677"/>
      <point x="414" y="736"/>
      <point x="308" y="736" type="curve" smooth="yes"/>
      <point x="188" y="736"/>
      <point x="104" y="657"/>
      <point x="100" y="543" type="curve" smooth="yes"/>
      <point x="97" y="448"/>
      <point x="161" y="385"/>
    </contour>
    <contour>
      <point x="271" y="417" type="curve" smooth="yes"/>
      <point x="190" y="417"/>
      <point x="135" y="459"/>
      <point x="138" y="545" type="curve" smooth="yes"/>
      <point x="141" y="640"/>
      <point x="208" y="705"/>
      <point x="305" y="705" type="curve" smooth="yes"/>
      <point x="385" y="705"/>
      <point x="440" y="664"/>
      <point x="437" y="575" type="curve" smooth="yes"/>
      <point x="434" y="484"/>
      <point x="368" y="417"/>
    </contour>
  </outline>
</glyph>
<glyph name="AE" format="2">
  <advance width="1117"/>
  <unicode hex="00C6"/>
  <anchor x="505" y="0" name="bottom"/>
  <anchor x="656" y="729" name="top"/>
  <outline>
    <contour>
      <point x="-38" y="0" type="line"/>
      <point x="4" y="0" type="line"/>
      <point x="144" y="200" type="line"/>
      <point x="627" y="200" type="line"/>
      <point x="683" y="0" type="line"/>
      <point x="1040" y="0" type="line"/>
      <point x="1048" y="37" type="line"/>
      <point x="713" y="37" type="line"/>
      <point x="622" y="358" type="line"/>
      <point x="1069" y="358" type="line"/>
      <point x="1076" y="392" type="line"/>
      <point x="613" y="392" type="line"/>
      <point x="527" y="693" type="line"/>
      <point x="1184" y="693" type="line"/>
      <point x="1191" y="729" type="line"/>
      <point x="471" y="729" type="line"/>
    </contour>
    <contour>
      <point x="167" y="233" type="line"/>
      <point x="438" y="620" type="line"/>
      <point x="487" y="692" type="line"/>
      <point x="490" y="692" type="line"/>
      <point x="509" y="620" type="line"/>
      <point x="618" y="233" type="line"/>
    </contour>
  </outline>
</glyph>
<glyph name="multiply" format="2">
  <advance width="720"/>
  <unicode hex="00D7"/>
  <outline>
    <contour>
      <point x="168" y="160" type="line"/>
      <point x="380" y="337" type="line"/>
      <point x="518" y="160" type="line"/>
      <point x="545" y="182" type="line"/>
      <point x="406" y="359" type="line"/>
      <point x="620" y="538" type="line"/>
      <point x="601" y="564" type="line"/>
      <point x="386" y="386" type="line"/>
      <point x="250" y="560" type="line"/>
      <point x="222" y="538" type="line"/>
      <point x="359" y="363" type="line"/>
      <point x="147" y="186" type="line"/>
    </contour>
  </outline>
</glyph>
<glyph name="germandbls" format="2">
  <advance width="649"/>
  <unicode hex="00DF"/>
  <outline>
    <contour>
      <point x="67" y="0" type="line"/>
      <point x="104" y="0" type="line"/>
      <point x="220" y="527" type="line" smooth="yes"/>
      <point x="243" y="631"/>
      <point x="322" y="700"/>
      <point x="435" y="700" type="curve" smooth="yes"/>
      <point x="538" y="700"/>
      <point x="596" y="648"/>
      <point x="596" y="564" type="curve" smooth="yes"/>
      <point x="596" y="467"/>
      <point x="522" y="407"/>
      <point x="415" y="407" type="curve" smooth="yes"/>
      <point x="342" y="407" type="line"/>
      <point x="334" y="372" type="line"/>
      <point x="411" y="372" type="line" smooth="yes"/>
      <point x="510" y="372"/>
      <point x="573" y="327"/>
      <point x="573" y="234" type="curve" smooth="yes"/>
      <point x="573" y="106"/>
      <point x="476" y="34"/>
      <point x="334" y="34" type="curve" smooth="yes"/>
      <point x="203" y="34" type="line"/>
      <point x="196" y="0" type="line"/>
      <point x="330" y="0" type="line" smooth="yes"/>
      <point x="507" y="0"/>
      <point x="608" y="91"/>
      <point x="608" y="226" type="curve" smooth="yes"/>
      <point x="608" y="314"/>
      <point x="561" y="374"/>
      <point x="480" y="387" type="curve"/>
      <point x="481" y="392" type="line"/>
      <point x="567" y="407"/>
      <point x="634" y="472"/>
      <point x="634" y="569" type="curve" smooth="yes"/>
      <point x="634" y="670"/>
      <point x="564" y="736"/>
      <point x="438" y="736" type="curve" smooth="yes"/>
      <point x="311" y="736"/>
      <point x="211" y="661"/>
      <point x="182" y="529" type="curve" smooth="yes"/>
    </contour>
    <contour>
      <point x="57" y="483" type="line"/>
      <point x="179" y="483" type="line"/>
      <point x="186" y="517" type="line"/>
      <point x="66" y="517" type="line"/>
    </contour>
  </outline>
</glyph>
<glyph name="ae" format="2">
  <advance width="1030"/>
  <unicode hex="00E6"/>
  <outline>
    <contour>
      <point x="189" y="-10" type="curve" smooth="yes"/>
      <point x="318" y="-10"/>
      <point x="415" y="46"/>
      <point x="458" y="140" type="curve"/>
      <point x="462" y="140" type="line"/>
      <point x="493" y="51"/>
      <point x="581" y="-9"/>
      <point x="704" y="-9" type="curve" smooth="yes"/>
      <point x="834" y="-9"/>
      <point x="942" y="55"/>
      <point x="974" y="152" type="curve"/>
      <point x="937" y="152" type="line"/>
      <point x="905" y="76"/>
      <point x="820" y="25"/>
      <point x="707" y="25" type="curve" smooth="yes"/>
      <point x="557" y="25"/>
      <point x="465" y="121"/>
      <point x="491" y="266" type="curve" smooth="yes"/>
      <point x="493" y="277" type="line" smooth="yes"/>
      <point x="516" y="406"/>
      <point x="622" y="493"/>
      <point x="759" y="493" type="curve" smooth="yes"/>
      <point x="898" y="493"/>
      <point x="978" y="414"/>
      <point x="962" y="290" type="curve"/>
      <point x="488" y="290" type="line"/>
      <point x="482" y="256" type="line"/>
      <point x="994" y="256" type="line"/>
      <point x="1029" y="418"/>
      <point x="934" y="527"/>
      <point x="762" y="527" type="curve" smooth="yes"/>
      <point x="657" y="527"/>
      <point x="568" y="482"/>
      <point x="513" y="408" type="curve"/>
      <point x="510" y="408" type="line"/>
      <point x="487" y="482"/>
      <point x="416" y="527"/>
      <point x="296" y="527" type="curve" smooth="yes"/>
      <point x="182" y="527"/>
      <point x="89" y="476"/>
      <point x="67" y="373" type="curve"/>
      <point x="104" y="373" type="line"/>
      <point x="122" y="444"/>
      <point x="186" y="493"/>
      <point x="291" y="493" type="curve" smooth="yes"/>
      <point x="409" y="493"/>
      <point x="496" y="451"/>
      <point x="469" y="316" type="curve" smooth="yes"/>
      <point x="446" y="199" type="line" smooth="yes"/>
      <point x="425" y="92"/>
      <point x="334" y="21"/>
      <point x="199" y="21" type="curve" smooth="yes"/>
      <point x="109" y="21"/>
      <point x="51" y="60"/>
      <point x="51" y="132" type="curve" smooth="yes"/>
      <point x="51" y="237"/>
      <point x="156" y="256"/>
      <point x="277" y="256" type="curve" smooth="yes"/>
      <point x="473" y="256" type="line"/>
      <point x="478" y="290" type="line"/>
      <point x="279" y="290" type="line" smooth="yes"/>
      <point x="125" y="290"/>
      <point x="18" y="253"/>
      <point x="13" y="133" type="curve" smooth="yes"/>
      <point x="10" y="47"/>
      <point x="80" y="-10"/>
    </contour>
  </outline>
</glyph>
<glyph name="eth" format="2">
  <advance width="631"/>
  <unicode hex="00F0"/>
  <outline>
    <contour>
      <point x="295" y="-9" type="curve" smooth="yes"/>
      <point x="476" y="-9"/>
      <point x="594" y="108"/>
      <point x="594" y="279" type="curve" smooth="yes"/>
      <point x="594" y="450"/>
      <point x="466" y="619"/>
      <point x="363" y="729" type="curve"/>
      <point x="316" y="729" type="line"/>
      <point x="410" y="638"/>
      <point x="503" y="508"/>
      <point x="545" y="403" type="curve"/>
      <point x="541" y="400" type="line"/>
      <point x="491" y="484"/>
      <point x="407" y="508"/>
      <point x="329" y="508" type="curve" smooth="yes"/>
      <point x="156" y="508"/>
      <point x="34" y="391"/>
      <point x="34" y="228" type="curve" smooth="yes"/>
      <point x="34" y="77"/>
      <point x="139" y="-9"/>
    </contour>
    <contour>
      <point x="298" y="25" type="curve" smooth="yes"/>
      <point x="159" y="25"/>
      <point x="72" y="99"/>
      <point x="72" y="230" type="curve" smooth="yes"/>
      <point x="72" y="370"/>
      <point x="171" y="474"/>
      <point x="330" y="474" type="curve" smooth="yes"/>
      <point x="454" y="474"/>
      <point x="556" y="410"/>
      <point x="556" y="268" type="curve" smooth="yes"/>
      <point x="556" y="137"/>
      <point x="469" y="25"/>
    </contour>
    <contour>
      <point x="185" y="596" type="line"/>
      <point x="581" y="642" type="line"/>
      <point x="585" y="673" type="line"/>
      <point x="190" y="628" type="line"/>
    </contour>
  </outline>
</glyph>
<glyph name="divide" format="2">
  <advance width="720"/>
  <unicode hex="00F7"/>
  <outline>
    <contour>
      <point x="133" y="345" type="line"/>
      <point x="623" y="345" type="line"/>
      <point x="630" y="377" type="line"/>
      <point x="140" y="377" type="line"/>
    </contour>
    <contour>
      <point x="317" y="186" type="line"/>
      <point x="372" y="186" type="line"/>
      <point x="383" y="240" type="line"/>
      <point x="327" y="240" type="line"/>
    </contour>
    <contour>
      <point x="378" y="482" type="line"/>
      <point x="434" y="482" type="line"/>
      <point x="446" y="536" type="line"/>
      <point x="390" y="536" type="line"/>
    </contour>
  </outline>
</glyph>
<glyph name="thorn" format="2">
  <advance width="644"/>
  <unicode hex="00FE"/>
  <anchor x="271" y="0" name="bottom"/>
  <anchor x="422" y="729" name="top"/>
  <outline>
    <contour>
      <point x="-22" y="-167" type="line"/>
      <point x="14" y="-167" type="line"/>
      <point x="81" y="154" type="line"/>
      <point x="85" y="154" type="line"/>
      <point x="99" y="56"/>
      <point x="188" y="-10"/>
      <point x="308" y="-10" type="curve" smooth="yes"/>
      <point x="478" y="-10"/>
      <point x="605" y="118"/>
      <point x="611" y="295" type="curve" smooth="yes"/>
      <point x="616" y="436"/>
      <point x="522" y="527"/>
      <point x="382" y="527" type="curve" smooth="yes"/>
      <point x="278" y="527"/>
      <point x="185" y="488"/>
      <point x="137" y="408" type="curve"/>
      <point x="134" y="408" type="line"/>
      <point x="200" y="729" type="line"/>
      <point x="163" y="729" type="line"/>
    </contour>
    <contour>
      <point x="312" y="24" type="curve" smooth="yes"/>
      <point x="160" y="24"/>
      <point x="78" y="124"/>
      <point x="107" y="270" type="curve" smooth="yes"/>
      <point x="113" y="300" type="line" smooth="yes"/>
      <point x="136" y="414"/>
      <point x="232" y="493"/>
      <point x="376" y="493" type="curve" smooth="yes"/>
      <point x="501" y="493"/>
      <point x="578" y="416"/>
      <point x="574" y="294" type="curve" smooth="yes"/>
      <point x="568" y="136"/>
      <point x="458" y="24"/>
    </contour>
  </outline>
</glyph>
<glyph name="idotless" format="2">
  <advance width="168"/>
  <unicode hex="0131"/>
  <anchor x="30" y="0" name="bottom"/>
  <anchor x="48" y="0" name="ogonek"/>
  <anchor x="138" y="517" name="top"/>
  <outline>
    <contour>
      <point x="12" y="0" type="line"/>
      <point x="48" y="0" type="line"/>
      <point x="156" y="517" type="line"/>
      <point x="120" y="517" type="line"/>
    </contour>
  </outline>
</glyph>
<glyph name="Eng" format="2">
  <advance width="797"/>
  <unicode hex="014A"/>
  <outline>
    <contour>
      <point x="18" y="0" type="line"/>
      <point x="56" y="0" type="line"/>
      <point x="146" y="436" type="line"/>
      <point x="197" y="689" type="line"/>
      <point x="201" y="689" type="line"/>
      <point x="619" y="0" type="line"/>
      <point x="670" y="0" type="line"/>
      <point x="822" y="729" type="line"/>
      <point x="784" y="729" type="line"/>
      <point x="697" y="303" type="line"/>
      <point x="644" y="40" type="line"/>
      <point x="639" y="40" type="line"/>
      <point x="222" y="729" type="line"/>
      <point x="169" y="729" type="line"/>
    </contour>
    <contour>
      <point x="459" y="-167" type="line"/>
      <point x="509" y="-167" type="line" smooth="yes"/>
      <point x="574" y="-167"/>
      <point x="641" y="-140"/>
      <point x="661" y="-43" type="curve" smooth="yes"/>
      <point x="670" y="0" type="line"/>
      <point x="633" y="0" type="line"/>
      <point x="626" y="-35" type="line" smooth="yes"/>
      <point x="611" y="-107"/>
      <point x="576" y="-133"/>
      <point x="512" y="-133" type="curve" smooth="yes"/>
      <point x="466" y="-133" type="line"/>
    </contour>
  </outline>
</glyph>
<glyph name="eng" format="2">
  <advance width="620"/>
  <unicode hex="014B"/>
  <outline>
    <contour>
      <point x="307" y="-167" type="line"/>
      <point x="361" y="-167" type="line" smooth="yes"/>
      <point x="440" y="-167"/>
      <point x="485" y="-134"/>
      <point x="503" y="-50" type="curve" smooth="yes"/>
      <point x="570" y="270" type="line" smooth="yes"/>
      <point x="604" y="434"/>
      <point x="531" y="527"/>
      <point x="377" y="527" type="curve" smooth="yes"/>
      <point x="286" y="527"/>
      <point x="195" y="485"/>
      <point x="141" y="406" type="curve"/>
      <point x="136" y="406" type="line"/>
      <point x="156" y="517" type="line"/>
      <point x="120" y="517" type="line"/>
      <point x="13" y="0" type="line"/>
      <point x="50" y="0" type="line"/>
      <point x="107" y="276" type="line" smooth="yes"/>
      <point x="134" y="409"/>
      <point x="239" y="494"/>
      <point x="368" y="494" type="curve" smooth="yes"/>
      <point x="497" y="494"/>
      <point x="567" y="429"/>
      <point x="533" y="266" type="curve" smooth="yes"/>
      <point x="467" y="-46" type="line" smooth="yes"/>
      <point x="456" y="-102"/>
      <point x="432" y="-133"/>
      <point x="360" y="-133" type="curve" smooth="yes"/>
      <point x="314" y="-133" type="line"/>
    </contour>
  </outline>
</glyph>
<glyph name="OE" format="2">
  <advance width="1143"/>
  <unicode hex="0152"/>
  <anchor x="518" y="0" name="bottom"/>
  <anchor x="669" y="729" name="top"/>
  <outline>
    <contour>
      <point x="403" y="-10" type="curve" smooth="yes"/>
      <point x="441" y="-10"/>
      <point x="483" y="-6"/>
      <point x="515" y="0" type="curve"/>
      <point x="1066" y="0" type="line"/>
      <point x="1074" y="37" type="line"/>
      <point x="553" y="37" type="line"/>
      <point x="620" y="358" type="line"/>
      <point x="1095" y="358" type="line"/>
      <point x="1102" y="392" type="line"/>
      <point x="628" y="392" type="line"/>
      <point x="690" y="693" type="line"/>
      <point x="1210" y="693" type="line"/>
      <point x="1217" y="729" type="line"/>
      <point x="633" y="729" type="line"/>
      <point x="583" y="737"/>
      <point x="540" y="739"/>
      <point x="495" y="739" type="curve" smooth="yes"/>
      <point x="259" y="739"/>
      <point x="101" y="611"/>
      <point x="65" y="396" type="curve" smooth="yes"/>
      <point x="24" y="147"/>
      <point x="147" y="-10"/>
    </contour>
    <contour>
      <point x="412" y="26" type="curve" smooth="yes"/>
      <point x="177" y="26"/>
      <point x="65" y="163"/>
      <point x="104" y="391" type="curve" smooth="yes"/>
      <point x="138" y="587"/>
      <point x="279" y="703"/>
      <point x="491" y="703" type="curve" smooth="yes"/>
      <point x="551" y="703"/>
      <point x="604" y="697"/>
      <point x="650" y="686" type="curve"/>
      <point x="516" y="38" type="line"/>
      <point x="489" y="31"/>
      <point x="451" y="26"/>
    </contour>
  </outline>
</glyph>
<glyph name="oe" format="2">
  <advance width="1138"/>
  <unicode hex="0153"/>
  <anchor x="526" y="0" name="bottom"/>
  <anchor x="624" y="517" name="top"/>
  <outline>
    <contour>
      <point x="284" y="-10" type="curve" smooth="yes"/>
      <point x="413" y="-10"/>
      <point x="517" y="55"/>
      <point x="567" y="156" type="curve"/>
      <point x="566" y="156" type="line"/>
      <point x="591" y="55"/>
      <point x="685" y="-9"/>
      <point x="809" y="-9" type="curve" smooth="yes"/>
      <point x="940" y="-9"/>
      <point x="1051" y="57"/>
      <point x="1082" y="152" type="curve"/>
      <point x="1045" y="152" type="line"/>
      <point x="1013" y="76"/>
      <point x="926" y="25"/>
      <point x="815" y="25" type="curve" smooth="yes"/>
      <point x="665" y="25"/>
      <point x="568" y="123"/>
      <point x="600" y="269" type="curve" smooth="yes"/>
      <point x="602" y="278" type="line" smooth="yes"/>
      <point x="629" y="407"/>
      <point x="730" y="493"/>
      <point x="867" y="493" type="curve" smooth="yes"/>
      <point x="1007" y="493"/>
      <point x="1087" y="412"/>
      <point x="1070" y="287" type="curve"/>
      <point x="1072" y="289" type="line"/>
      <point x="597" y="289" type="line"/>
      <point x="590" y="256" type="line"/>
      <point x="1102" y="256" type="line"/>
      <point x="1137" y="418"/>
      <point x="1042" y="527"/>
      <point x="870" y="527" type="curve" smooth="yes"/>
      <point x="743" y="527"/>
      <point x="640" y="460"/>
      <point x="590" y="359" type="curve"/>
      <point x="591" y="359" type="line"/>
      <point x="567" y="461"/>
      <point x="479" y="527"/>
      <point x="348" y="527" type="curve" smooth="yes"/>
      <point x="169" y="527"/>
      <point x="39" y="405"/>
      <point x="33" y="230" type="curve" smooth="yes"/>
      <point x="28" y="85"/>
      <point x="125" y="-10"/>
    </contour>
    <contour>
      <point x="288" y="24" type="curve" smooth="yes"/>
      <point x="152" y="24"/>
      <point x="66" y="98"/>
      <point x="71" y="232" type="curve" smooth="yes"/>
      <point x="76" y="387"/>
      <point x="188" y="493"/>
      <point x="344" y="493" type="curve" smooth="yes"/>
      <point x="480" y="493"/>
      <point x="566" y="418"/>
      <point x="561" y="285" type="curve" smooth="yes"/>
      <point x="556" y="131"/>
      <point x="444" y="24"/>
    </contour>
  </outline>
</glyph>
<glyph name="florin" format="2">
  <advance width="408"/>
  <unicode hex="0192"/>
  <outline>
    <contour>
      <point x="-63" y="-167" type="line"/>
      <point x="-8" y="-167" type="line" smooth="yes"/>
      <point x="80" y="-167"/>
      <point x="144" y="-120"/>
      <point x="164" y="-22" type="curve" smooth="yes"/>
      <point x="289" y="580" type="line" smooth="yes"/>
      <point x="306" y="661"/>
      <point x="344" y="695"/>
      <point x="422" y="695" type="curve" smooth="yes"/>
      <point x="473" y="695" type="line"/>
      <point x="480" y="729" type="line"/>
      <point x="425" y="729" type="line" smooth="yes"/>
      <point x="337" y="729"/>
      <point x="273" y="682"/>
      <point x="253" y="584" type="curve" smooth="yes"/>
      <point x="128" y="-18" type="line" smooth="yes"/>
      <point x="111" y="-99"/>
      <point x="73" y="-133"/>
      <point x="-5" y="-133" type="curve" smooth="yes"/>
      <point x="-56" y="-133" type="line"/>
    </contour>
    <contour>
      <point x="78" y="384" type="line"/>
      <point x="386" y="384" type="line"/>
      <point x="393" y="418" type="line"/>
      <point x="85" y="418" type="line"/>
    </contour>
  </outline>
</glyph>
<glyph name="jdotless" format="2">
  <advance width="169"/>
  <unicode hex="0237"/>
  <anchor x="0" y="-200" name="bottom"/>
  <anchor x="139" y="517" name="top"/>
  <outline>
    <contour>
      <point x="-158" y="-167" type="line"/>
      <point x="-104" y="-167" type="line" smooth="yes"/>
      <point x="-25" y="-167"/>
      <point x="20" y="-134"/>
      <point x="38" y="-50" type="curve" smooth="yes"/>
      <point x="157" y="517" type="line"/>
      <point x="120" y="517" type="line"/>
      <point x="2" y="-46" type="line" smooth="yes"/>
      <point x="-9" y="-102"/>
      <point x="-33" y="-133"/>
      <point x="-105" y="-133" type="curve" smooth="yes"/>
      <point x="-151" y="-133" type="line"/>
    </contour>
  </outline>
</glyph>
<glyph name="gravecomb" format="2">
  <unicode hex="0300"/>
  <anchor x="230" y="672" name="_top"/>
  <outline>
    <contour>
      <point x="228" y="746" type="line"/>
      <point x="260" y="746" type="line"/>
      <point x="209" y="882" type="line"/>
      <point x="169" y="882" type="line"/>
    </contour>
  </outline>
</glyph>
<glyph name="acutecomb" format="2">
  <unicode hex="0301"/>
  <anchor x="143" y="672" name="_top"/>
  <outline>
    <contour>
      <point x="141" y="746" type="line"/>
      <point x="176" y="746" type="line"/>
      <point x="292" y="882" type="line"/>
      <point x="247" y="882" type="line"/>
    </contour>
  </outline>
</glyph>
<glyph name="tildecomb" format="2">
  <unicode hex="0303"/>
  <anchor x="292" y="672" name="_top"/>
  <outline>
    <contour>
      <point x="387" y="776" type="curve" smooth="yes"/>
      <point x="430" y="776"/>
      <point x="462" y="790"/>
      <point x="496" y="825" type="curve"/>
      <point x="477" y="838" type="line"/>
      <point x="453" y="817"/>
      <point x="426" y="808"/>
      <point x="401" y="808" type="curve" smooth="yes"/>
      <point x="351" y="808"/>
      <point x="300" y="836"/>
      <point x="254" y="836" type="curve" smooth="yes"/>
      <point x="211" y="836"/>
      <point x="185" y="822"/>
      <point x="149" y="786" type="curve"/>
      <point x="167" y="774" type="line"/>
      <point x="192" y="797"/>
      <point x="214" y="803"/>
      <point x="239" y="803" type="curve" smooth="yes"/>
      <point x="289" y="803"/>
      <point x="319" y="776"/>
    </contour>
  </outline>
</glyph>
<glyph name="macroncomb" format="2">
  <unicode hex="0304"/>
  <anchor x="314" y="671" name="_top"/>
  <outline>
    <contour>
      <point x="149" y="780" type="line"/>
      <point x="524" y="780" type="line"/>
      <point x="530" y="813" type="line"/>
      <point x="155" y="813" type="line"/>
    </contour>
  </outline>
</glyph>
<glyph name="brevecomb" format="2">
  <unicode hex="0306"/>
  <anchor x="265" y="672" name="_top"/>
  <outline>
    <contour>
      <point x="285" y="742" type="curve" smooth="yes"/>
      <point x="368" y="742"/>
      <point x="422" y="791"/>
      <point x="433" y="882" type="curve"/>
      <point x="397" y="882" type="line"/>
      <point x="390" y="818"/>
      <point x="354" y="774"/>
      <point x="288" y="774" type="curve" smooth="yes"/>
      <point x="229" y="774"/>
      <point x="197" y="809"/>
      <point x="207" y="882" type="curve"/>
      <point x="169" y="882" type="line"/>
      <point x="159" y="793"/>
      <point x="201" y="742"/>
    </contour>
  </outline>
</glyph>
<glyph name="hookabovecomb" format="2">
  <unicode hex="0309"/>
  <anchor x="188" y="673" name="_top"/>
  <outline>
    <contour>
      <point x="185" y="731" type="line"/>
      <point x="257" y="760"/>
      <point x="299" y="795"/>
      <point x="299" y="846" type="curve" smooth="yes"/>
      <point x="299" y="887"/>
      <point x="269" y="914"/>
      <point x="216" y="914" type="curve" smooth="yes"/>
      <point x="202" y="914"/>
      <point x="186" y="912"/>
      <point x="175" y="909" type="curve"/>
      <point x="170" y="881" type="line"/>
      <point x="179" y="883"/>
      <point x="194" y="885"/>
      <point x="210" y="885" type="curve" smooth="yes"/>
      <point x="243" y="885"/>
      <point x="264" y="872"/>
      <point x="264" y="844" type="curve" smooth="yes"/>
      <point x="264" y="811"/>
      <point x="242" y="787"/>
      <point x="171" y="758" type="curve"/>
    </contour>
  </outline>
</glyph>
<glyph name="ringcomb" format="2">
  <unicode hex="030A"/>
  <anchor x="236" y="672" name="_top"/>
  <outline>
    <contour>
      <point x="261" y="721" type="curve" smooth="yes"/>
      <point x="327" y="721"/>
      <point x="375" y="765"/>
      <point x="375" y="825" type="curve" smooth="yes"/>
      <point x="375" y="881"/>
      <point x="334" y="919"/>
      <point x="274" y="919" type="curve" smooth="yes"/>
      <point x="207" y="919"/>
      <point x="158" y="876"/>
      <point x="158" y="815" type="curve" smooth="yes"/>
      <point x="158" y="758"/>
      <point x="199" y="721"/>
    </contour>
    <contour>
      <point x="261" y="750" type="curve" smooth="yes"/>
      <point x="217" y="750"/>
      <point x="191" y="774"/>
      <point x="191" y="815" type="curve" smooth="yes"/>
      <point x="191" y="860"/>
      <point x="224" y="890"/>
      <point x="274" y="890" type="curve" smooth="yes"/>
      <point x="316" y="890"/>
      <point x="342" y="866"/>
      <point x="342" y="825" type="curve" smooth="yes"/>
      <point x="342" y="781"/>
      <point x="309" y="750"/>
    </contour>
  </outline>
</glyph>
<glyph name="hungarumlautcomb" format="2">
  <unicode hex="030B"/>
  <anchor x="215" y="672" name="_top"/>
  <outline>
    <contour>
      <point x="141" y="746" type="line"/>
      <point x="177" y="746" type="line"/>
      <point x="295" y="882" type="line"/>
      <point x="250" y="882" type="line"/>
    </contour>
    <contour>
      <point x="284" y="746" type="line"/>
      <point x="321" y="746" type="line"/>
      <point x="446" y="882" type="line"/>
      <point x="398" y="882" type="line"/>
    </contour>
  </outline>
</glyph>
<glyph name="caroncomb" format="2">
  <unicode hex="030C"/>
  <anchor x="266" y="672" name="_top"/>
  <outline>
    <contour>
      <point x="259" y="746" type="line"/>
      <point x="304" y="746" type="line"/>
      <point x="448" y="882" type="line"/>
      <point x="404" y="882" type="line"/>
      <point x="284" y="773" type="line"/>
      <point x="209" y="882" type="line"/>
      <point x="169" y="882" type="line"/>
    </contour>
  </outline>
</glyph>
<glyph name="commaturnedabovecomb" format="2">
  <unicode hex="0312"/>
  <anchor x="142" y="672" name="_top"/>
  <outline>
    <contour>
      <point x="141" y="746" type="line"/>
      <point x="174" y="746" type="line"/>
      <point x="178" y="767" type="line" smooth="yes"/>
      <point x="187" y="816"/>
      <point x="213" y="850"/>
      <point x="270" y="882" type="curve"/>
      <point x="258" y="901" type="line"/>
      <point x="202" y="877"/>
      <point x="158" y="837"/>
      <point x="145" y="767" type="curve" smooth="yes"/>
    </contour>
  </outline>
</glyph>
<glyph name="horncomb" format="2">
  <unicode hex="031B"/>
  <anchor x="95" y="525" name="_topright"/>
  <outline>
    <contour>
      <point x="89" y="495" type="line"/>
      <point x="192" y="494"/>
      <point x="253" y="553"/>
      <point x="265" y="668" type="curve"/>
      <point x="230" y="668" type="line"/>
      <point x="220" y="574"/>
      <point x="174" y="525"/>
      <point x="95" y="525" type="curve"/>
    </contour>
  </outline>
</glyph>
<glyph name="dotbelowcomb" format="2">
  <unicode hex="0323"/>
  <anchor x="17" y="0" name="_bottom"/>
  <outline>
    <contour>
      <point x="-8" y="-147" type="curve" smooth="yes"/>
      <point x="10" y="-147"/>
      <point x="23" y="-136"/>
      <point x="23" y="-117" type="curve" smooth="yes"/>
      <point x="23" y="-100"/>
      <point x="11" y="-89"/>
      <point x="-6" y="-89" type="curve" smooth="yes"/>
      <point x="-24" y="-89"/>
      <point x="-37" y="-100"/>
      <point x="-37" y="-119" type="curve" smooth="yes"/>
      <point x="-37" y="-136"/>
      <point x="-25" y="-147"/>
    </contour>
  </outline>
</glyph>
<glyph name="commaaccentcomb" format="2">
  <unicode hex="0326"/>
  <anchor x="48" y="0" name="_bottom"/>
  <outline>
    <contour>
      <point x="-53" y="-192" type="line"/>
      <point x="-21" y="-192" type="line"/>
      <point x="56" y="-56" type="line"/>
      <point x="15" y="-56" type="line"/>
    </contour>
  </outline>
</glyph>
<glyph name="cedillacomb" format="2">
  <unicode hex="0327"/>
  <anchor x="101" y="0" name="_bottom"/>
  <outline>
    <contour>
      <point x="61" y="-234" type="curve" smooth="yes"/>
      <point x="123" y="-234"/>
      <point x="165" y="-200"/>
      <point x="165" y="-148" type="curve" smooth="yes"/>
      <point x="165" y="-100"/>
      <point x="132" y="-68"/>
      <point x="77" y="-53" type="curve"/>
      <point x="124" y="6" type="line"/>
      <point x="91" y="9" type="line"/>
      <point x="38" y="-52" type="line"/>
      <point x="45" y="-72" type="line"/>
      <point x="111" y="-90"/>
      <point x="130" y="-111"/>
      <point x="130" y="-148" type="curve" smooth="yes"/>
      <point x="130" y="-180"/>
      <point x="108" y="-204"/>
      <point x="61" y="-204" type="curve" smooth="yes"/>
      <point x="23" y="-204"/>
      <point x="-5" y="-184"/>
      <point x="-11" y="-153" type="curve"/>
      <point x="-46" y="-159" type="line"/>
      <point x="-37" y="-204"/>
      <point x="6" y="-234"/>
    </contour>
  </outline>
</glyph>
<glyph name="ogonekcomb" format="2">
  <unicode hex="0328"/>
  <anchor x="125" y="0" name="_ogonek"/>
  <outline>
    <contour>
      <point x="54" y="-209" type="curve" smooth="yes"/>
      <point x="70" y="-209"/>
      <point x="88" y="-207"/>
      <point x="99" y="-204" type="curve"/>
      <point x="104" y="-175" type="line"/>
      <point x="93" y="-179"/>
      <point x="77" y="-181"/>
      <point x="61" y="-181" type="curve" smooth="yes"/>
      <point x="15" y="-181"/>
      <point x="-6" y="-161"/>
      <point x="-6" y="-128" type="curve" smooth="yes"/>
      <point x="-6" y="-90"/>
      <point x="24" y="-50"/>
      <point x="125" y="0" type="curve"/>
      <point x="120" y="16" type="line"/>
      <point x="103" y="16" type="line"/>
      <point x="3" y="-30"/>
      <point x="-39" y="-81"/>
      <point x="-39" y="-132" type="curve" smooth="yes"/>
      <point x="-39" y="-180"/>
      <point x="-3" y="-209"/>
    </contour>
  </outline>
</glyph>
<glyph name="strokeshortcomb" format="2">
  <unicode hex="0335"/>
  <anchor x="213" y="307" name="_center"/>
  <outline>
    <contour>
      <point x="47" y="290" type="line"/>
      <point x="371" y="290" type="line"/>
      <point x="379" y="324" type="line"/>
      <point x="55" y="324" type="line"/>
    </contour>
  </outline>
</glyph>
<glyph name="strokelongcomb" format="2">
  <unicode hex="0336"/>
  <anchor x="485" y="369" name="_center"/>
  <outline>
    <contour>
      <point x="59" y="352" type="line"/>
      <point x="903" y="352" type="line"/>
      <point x="911" y="386" type="line"/>
      <point x="67" y="386" type="line"/>
    </contour>
  </outline>
</glyph>
<glyph name="slashlongcomb" format="2">
  <unicode hex="0338"/>
  <anchor x="319" y="259" name="_center"/>
  <outline>
    <contour>
      <point x="-26" y="-60" type="line"/>
      <point x="21" y="-60" type="line"/>
      <point x="663" y="577" type="line"/>
      <point x="620" y="577" type="line"/>
    </contour>
  </outline>
</glyph>
<glyph name="mu" format="2">
  <advance width="655"/>
  <unicode hex="03BC"/>
  <outline>
    <contour>
      <point x="6" y="-132" type="line"/>
      <point x="43" y="-132" type="line"/>
      <point x="91" y="143" type="line"/>
      <point x="74" y="133" type="line"/>
      <point x="75" y="45"/>
      <point x="148" y="-8"/>
      <point x="264" y="-8" type="curve" smooth="yes"/>
      <point x="364" y="-8"/>
      <point x="464" y="40"/>
      <point x="516" y="130" type="curve"/>
      <point x="521" y="130" type="line"/>
      <point x="498" y="0" type="line"/>
      <point x="535" y="0" type="line"/>
      <point x="626" y="517" type="line"/>
      <point x="589" y="517" type="line"/>
      <point x="545" y="262" type="line" smooth="yes"/>
      <point x="519" y="120"/>
      <point x="423" y="26"/>
      <point x="275" y="26" type="curve" smooth="yes"/>
      <point x="145" y="26"/>
      <point x="81" y="86"/>
      <point x="107" y="234" type="curve" smooth="yes"/>
      <point x="157" y="517" type="line"/>
      <point x="120" y="517" type="line"/>
    </contour>
  </outline>
</glyph>
<glyph name="pi" format="2">
  <advance width="575"/>
  <unicode hex="03C0"/>
  <outline>
    <contour>
      <point x="458" y="-7" type="curve" smooth="yes"/>
      <point x="478" y="-7"/>
      <point x="493" y="-4"/>
      <point x="500" y="1" type="curve"/>
      <point x="508" y="38" type="line"/>
      <point x="499" y="33"/>
      <point x="487" y="29"/>
      <point x="470" y="29" type="curve" smooth="yes"/>
      <point x="426" y="29"/>
      <point x="425" y="63"/>
      <point x="437" y="118" type="curve" smooth="yes"/>
      <point x="514" y="485" type="line"/>
      <point x="603" y="485" type="line"/>
      <point x="609" y="517" type="line"/>
      <point x="65" y="517" type="line"/>
      <point x="58" y="485" type="line"/>
      <point x="150" y="485" type="line"/>
      <point x="47" y="0" type="line"/>
      <point x="84" y="0" type="line"/>
      <point x="186" y="485" type="line"/>
      <point x="477" y="485" type="line"/>
      <point x="395" y="98" type="line" smooth="yes"/>
      <point x="382" y="34"/>
      <point x="398" y="-7"/>
    </contour>
  </outline>
</glyph>
<glyph name="Germandbls" format="2">
  <advance width="709"/>
  <unicode hex="1E9E"/>
  <outline>
    <contour>
      <point x="17" y="0" type="line"/>
      <point x="56" y="0" type="line"/>
      <point x="201" y="692" type="line"/>
      <point x="669" y="692" type="line"/>
      <point x="368" y="415" type="line"/>
      <point x="361" y="382" type="line"/>
      <point x="476" y="382" type="line" smooth="yes"/>
      <point x="569" y="382"/>
      <point x="631" y="340"/>
      <point x="631" y="241" type="curve" smooth="yes"/>
      <point x="631" y="119"/>
      <point x="547" y="37"/>
      <point x="399" y="37" type="curve" smooth="yes"/>
      <point x="150" y="37" type="line"/>
      <point x="142" y="0" type="line"/>
      <point x="397" y="0" type="line" smooth="yes"/>
      <point x="571" y="0"/>
      <point x="670" y="99"/>
      <point x="670" y="239" type="curve" smooth="yes"/>
      <point x="670" y="349"/>
      <point x="602" y="417"/>
      <point x="476" y="417" type="curve" smooth="yes"/>
      <point x="419" y="417" type="line"/>
      <point x="427" y="408" type="line"/>
      <point x="429" y="424" type="line"/>
      <point x="705" y="678" type="line"/>
      <point x="716" y="729" type="line"/>
      <point x="170" y="729" type="line"/>
    </contour>
  </outline>
</glyph>
<glyph name="endash" format="2">
  <advance width="518"/>
  <unicode hex="2013"/>
  <outline>
    <contour>
      <point x="43" y="243" type="line"/>
      <point x="468" y="243" type="line"/>
      <point x="475" y="275" type="line"/>
      <point x="50" y="275" type="line"/>
    </contour>
  </outline>
</glyph>
<glyph name="emdash" format="2">
  <advance width="696"/>
  <unicode hex="2014"/>
  <outline>
    <contour>
      <point x="43" y="243" type="line"/>
      <point x="646" y="243" type="line"/>
      <point x="653" y="275" type="line"/>
      <point x="50" y="275" type="line"/>
    </contour>
  </outline>
</glyph>
<glyph name="bullet" format="2">
  <advance width="270"/>
  <unicode hex="2022"/>
  <outline>
    <contour>
      <point x="119" y="171" type="curve" smooth="yes"/>
      <point x="190" y="171"/>
      <point x="248" y="227"/>
      <point x="248" y="298" type="curve" smooth="yes"/>
      <point x="248" y="349"/>
      <point x="215" y="384"/>
      <point x="159" y="384" type="curve" smooth="yes"/>
      <point x="87" y="384"/>
      <point x="29" y="325"/>
      <point x="29" y="256" type="curve" smooth="yes"/>
      <point x="29" y="206"/>
      <point x="64" y="171"/>
    </contour>
  </outline>
</glyph>
<glyph name="perthousand" format="2">
  <advance width="1363"/>
  <unicode hex="2030"/>
  <outline>
    <contour>
      <point x="142" y="0" type="line"/>
      <point x="186" y="0" type="line"/>
      <point x="873" y="729" type="line"/>
      <point x="829" y="729" type="line"/>
    </contour>
    <contour>
      <point x="267" y="323" type="curve" smooth="yes"/>
      <point x="385" y="323"/>
      <point x="464" y="419"/>
      <point x="464" y="558" type="curve" smooth="yes"/>
      <point x="464" y="665"/>
      <point x="405" y="729"/>
      <point x="302" y="729" type="curve" smooth="yes"/>
      <point x="184" y="729"/>
      <point x="105" y="633"/>
      <point x="105" y="494" type="curve" smooth="yes"/>
      <point x="105" y="387"/>
      <point x="164" y="323"/>
    </contour>
    <contour>
      <point x="265" y="353" type="curve" smooth="yes"/>
      <point x="184" y="353"/>
      <point x="139" y="405"/>
      <point x="139" y="494" type="curve" smooth="yes"/>
      <point x="139" y="618"/>
      <point x="205" y="699"/>
      <point x="304" y="699" type="curve" smooth="yes"/>
      <point x="385" y="699"/>
      <point x="430" y="647"/>
      <point x="430" y="558" type="curve" smooth="yes"/>
      <point x="430" y="434"/>
      <point x="364" y="353"/>
    </contour>
    <contour>
      <point x="703" y="-9" type="curve" smooth="yes"/>
      <point x="821" y="-9"/>
      <point x="900" y="87"/>
      <point x="900" y="226" type="curve" smooth="yes"/>
      <point x="900" y="333"/>
      <point x="841" y="397"/>
      <point x="738" y="397" type="curve" smooth="yes"/>
      <point x="620" y="397"/>
      <point x="541" y="301"/>
      <point x="541" y="162" type="curve" smooth="yes"/>
      <point x="541" y="55"/>
      <point x="600" y="-9"/>
    </contour>
    <contour>
      <point x="701" y="21" type="curve" smooth="yes"/>
      <point x="620" y="21"/>
      <point x="575" y="73"/>
      <point x="575" y="162" type="curve" smooth="yes"/>
      <point x="575" y="286"/>
      <point x="641" y="367"/>
      <point x="740" y="367" type="curve" smooth="yes"/>
      <point x="821" y="367"/>
      <point x="866" y="315"/>
      <point x="866" y="226" type="curve" smooth="yes"/>
      <point x="866" y="102"/>
      <point x="800" y="21"/>
    </contour>
    <contour>
      <point x="1103" y="-9" type="curve" smooth="yes"/>
      <point x="1221" y="-9"/>
      <point x="1300" y="87"/>
      <point x="1300" y="226" type="curve" smooth="yes"/>
      <point x="1300" y="333"/>
      <point x="1241" y="397"/>
      <point x="1138" y="397" type="curve" smooth="yes"/>
      <point x="1020" y="397"/>
      <point x="941" y="301"/>
      <point x="941" y="162" type="curve" smooth="yes"/>
      <point x="941" y="55"/>
      <point x="1000" y="-9"/>
    </contour>
    <contour>
      <point x="1101" y="21" type="curve" smooth="yes"/>
      <point x="1020" y="21"/>
      <point x="975" y="73"/>
      <point x="975" y="162" type="curve" smooth="yes"/>
      <point x="975" y="286"/>
      <point x="1041" y="367"/>
      <point x="1140" y="367" type="curve" smooth="yes"/>
      <point x="1221" y="367"/>
      <point x="1266" y="315"/>
      <point x="1266" y="226" type="curve" smooth="yes"/>
      <point x="1266" y="102"/>
      <point x="1200" y="21"/>
    </contour>
  </outline>
</glyph>
<glyph name="guilsinglleft" format="2">
  <advance width="221"/>
  <unicode hex="2039"/>
  <outline>
    <contour>
      <point x="125" y="80" type="line"/>
      <point x="154" y="80" type="line"/>
      <point x="81" y="298" type="line"/>
      <point x="227" y="517" type="line"/>
      <point x="192" y="517" type="line"/>
      <point x="44" y="298" type="line"/>
    </contour>
  </outline>
</glyph>
<glyph name="zeroinferior" format="2">
  <advance width="487"/>
  <unicode hex="2080"/>
  <anchor x="226" y="177" name="_center"/>
  <outline>
    <contour>
      <point x="203" y="-46" type="curve" smooth="yes"/>
      <point x="318" y="-46"/>
      <point x="401" y="27"/>
      <point x="424" y="140" type="curve" smooth="yes"/>
      <point x="441" y="218"/>
      <point x="437" y="397"/>
      <point x="249" y="397" type="curve" smooth="yes"/>
      <point x="134" y="397"/>
      <point x="51" y="325"/>
      <point x="28" y="212" type="curve" smooth="yes"/>
      <point x="14" y="136"/>
      <point x="9" y="-46"/>
    </contour>
    <contour>
      <point x="207" y="-14" type="curve" smooth="yes"/>
      <point x="48" y="-14"/>
      <point x="52" y="143"/>
      <point x="65" y="207" type="curve" smooth="yes"/>
      <point x="85" y="303"/>
      <point x="153" y="365"/>
      <point x="245" y="365" type="curve" smooth="yes"/>
      <point x="404" y="365"/>
      <point x="400" y="211"/>
      <point x="387" y="145" type="curve" smooth="yes"/>
      <point x="367" y="48"/>
      <point x="299" y="-14"/>
    </contour>
  </outline>
</glyph>
<glyph name="oneinferior" format="2">
  <advance width="220"/>
  <unicode hex="2081"/>
  <anchor x="92" y="177" name="_center"/>
  <outline>
    <contour>
      <point x="56" y="-40" type="line"/>
      <point x="92" y="-40" type="line"/>
      <point x="183" y="393" type="line"/>
      <point x="147" y="393" type="line"/>
      <point x="132" y="345"/>
      <point x="101" y="323"/>
      <point x="49" y="323" type="curve" smooth="yes"/>
      <point x="30" y="323" type="line"/>
      <point x="24" y="296" type="line"/>
      <point x="126" y="296" type="line"/>
    </contour>
  </outline>
</glyph>
<glyph name="twoinferior" format="2">
  <advance width="395"/>
  <unicode hex="2082"/>
  <anchor x="166" y="177" name="_center"/>
  <outline>
    <contour>
      <point x="-28" y="-40" type="line"/>
      <point x="302" y="-40" type="line"/>
      <point x="308" y="-9" type="line"/>
      <point x="22" y="-9" type="line"/>
      <point x="58" y="110"/>
      <point x="360" y="114"/>
      <point x="360" y="286" type="curve" smooth="yes"/>
      <point x="360" y="356"/>
      <point x="309" y="398"/>
      <point x="222" y="398" type="curve" smooth="yes"/>
      <point x="128" y="398"/>
      <point x="52" y="352"/>
      <point x="34" y="262" type="curve"/>
      <point x="71" y="262" type="line"/>
      <point x="83" y="324"/>
      <point x="138" y="368"/>
      <point x="219" y="368" type="curve" smooth="yes"/>
      <point x="282" y="368"/>
      <point x="322" y="338"/>
      <point x="322" y="284" type="curve" smooth="yes"/>
      <point x="322" y="131"/>
      <point x="5" y="139"/>
      <point x="-26" y="-28" type="curve" smooth="yes"/>
    </contour>
  </outline>
</glyph>
<glyph name="threeinferior" format="2">
  <advance width="425"/>
  <unicode hex="2083"/>
  <anchor x="189" y="177" name="_center"/>
  <outline>
    <contour>
      <point x="163" y="-46" type="curve" smooth="yes"/>
      <point x="266" y="-46"/>
      <point x="344" y="3"/>
      <point x="347" y="83" type="curve" smooth="yes"/>
      <point x="349" y="141"/>
      <point x="316" y="174"/>
      <point x="262" y="182" type="curve"/>
      <point x="263" y="184" type="line"/>
      <point x="329" y="191"/>
      <point x="379" y="231"/>
      <point x="381" y="290" type="curve" smooth="yes"/>
      <point x="384" y="358"/>
      <point x="325" y="397"/>
      <point x="224" y="397" type="curve" smooth="yes"/>
      <point x="130" y="397"/>
      <point x="55" y="351"/>
      <point x="41" y="269" type="curve"/>
      <point x="75" y="269" type="line"/>
      <point x="89" y="332"/>
      <point x="147" y="367"/>
      <point x="220" y="367" type="curve" smooth="yes"/>
      <point x="303" y="367"/>
      <point x="345" y="340"/>
      <point x="343" y="285" type="curve" smooth="yes"/>
      <point x="341" y="229"/>
      <point x="286" y="198"/>
      <point x="205" y="198" type="curve" smooth="yes"/>
      <point x="150" y="198" type="line"/>
      <point x="144" y="170" type="line"/>
      <point x="197" y="170" type="line" smooth="yes"/>
      <point x="273" y="170"/>
      <point x="311" y="142"/>
      <point x="309" y="84" type="curve" smooth="yes"/>
      <point x="307" y="27"/>
      <point x="256" y="-15"/>
      <point x="165" y="-15" type="curve" smooth="yes"/>
      <point x="80" y="-15"/>
      <point x="29" y="24"/>
      <point x="33" y="92" type="curve"/>
      <point x="-3" y="92" type="line"/>
      <point x="-7" y="9"/>
      <point x="49" y="-46"/>
    </contour>
  </outline>
</glyph>
<glyph name="fourinferior" format="2">
  <advance width="414"/>
  <unicode hex="2084"/>
  <anchor x="172" y="177" name="_center"/>
  <outline>
    <contour>
      <point x="215" y="-40" type="line"/>
      <point x="252" y="-40" type="line"/>
      <point x="341" y="393" type="line"/>
      <point x="300" y="393" type="line"/>
      <point x="-15" y="104" type="line"/>
      <point x="-21" y="74" type="line"/>
      <point x="359" y="74" type="line"/>
      <point x="365" y="104" type="line"/>
      <point x="27" y="104" type="line"/>
      <point x="298" y="353" type="line"/>
      <point x="296" y="353" type="line"/>
    </contour>
  </outline>
</glyph>
<glyph name="fiveinferior" format="2">
  <advance width="436"/>
  <unicode hex="2085"/>
  <anchor x="210" y="177" name="_center"/>
  <outline>
    <contour>
      <point x="172" y="-46" type="curve" smooth="yes"/>
      <point x="280" y="-46"/>
      <point x="366" y="8"/>
      <point x="369" y="106" type="curve" smooth="yes"/>
      <point x="372" y="195"/>
      <point x="319" y="243"/>
      <point x="214" y="243" type="curve" smooth="yes"/>
      <point x="160" y="243"/>
      <point x="107" y="223"/>
      <point x="79" y="196" type="curve"/>
      <point x="77" y="197" type="line"/>
      <point x="122" y="361" type="line"/>
      <point x="404" y="361" type="line"/>
      <point x="410" y="393" type="line"/>
      <point x="95" y="393" type="line"/>
      <point x="34" y="162" type="line"/>
      <point x="70" y="162" type="line"/>
      <point x="97" y="193"/>
      <point x="146" y="213"/>
      <point x="204" y="213" type="curve" smooth="yes"/>
      <point x="288" y="213"/>
      <point x="333" y="179"/>
      <point x="330" y="109" type="curve" smooth="yes"/>
      <point x="327" y="33"/>
      <point x="275" y="-15"/>
      <point x="174" y="-15" type="curve" smooth="yes"/>
      <point x="93" y="-15"/>
      <point x="42" y="27"/>
      <point x="46" y="95" type="curve"/>
      <point x="10" y="95" type="line"/>
      <point x="4" y="7"/>
      <point x="70" y="-46"/>
    </contour>
  </outline>
</glyph>
<glyph name="sixinferior" format="2">
  <advance width="452"/>
  <unicode hex="2086"/>
  <anchor x="215" y="177" name="_center"/>
  <outline>
    <contour>
      <point x="197" y="-46" type="curve" smooth="yes"/>
      <point x="306" y="-46"/>
      <point x="377" y="13"/>
      <point x="380" y="104" type="curve" smooth="yes"/>
      <point x="383" y="189"/>
      <point x="319" y="239"/>
      <point x="223" y="239" type="curve" smooth="yes"/>
      <point x="150" y="239"/>
      <point x="88" y="210"/>
      <point x="60" y="156" type="curve"/>
      <point x="58" y="156" type="line"/>
      <point x="70" y="283"/>
      <point x="131" y="366"/>
      <point x="245" y="366" type="curve" smooth="yes"/>
      <point x="323" y="366"/>
      <point x="370" y="333"/>
      <point x="375" y="280" type="curve"/>
      <point x="410" y="279" type="line"/>
      <point x="406" y="350"/>
      <point x="344" y="397"/>
      <point x="247" y="397" type="curve" smooth="yes"/>
      <point x="117" y="397"/>
      <point x="27" y="306"/>
      <point x="21" y="129" type="curve" smooth="yes"/>
      <point x="17" y="18"/>
      <point x="69" y="-46"/>
    </contour>
    <contour>
      <point x="196" y="-15" type="curve" smooth="yes"/>
      <point x="110" y="-15"/>
      <point x="57" y="26"/>
      <point x="60" y="91" type="curve" smooth="yes"/>
      <point x="63" y="164"/>
      <point x="125" y="211"/>
      <point x="214" y="211" type="curve" smooth="yes"/>
      <point x="289" y="211"/>
      <point x="345" y="173"/>
      <point x="343" y="107" type="curve" smooth="yes"/>
      <point x="340" y="29"/>
      <point x="285" y="-15"/>
    </contour>
  </outline>
</glyph>
<glyph name="seveninferior" format="2">
  <advance width="371"/>
  <unicode hex="2087"/>
  <anchor x="207" y="177" name="_center"/>
  <outline>
    <contour>
      <point x="71" y="-40" type="curve"/>
      <point x="109" y="-40" type="line"/>
      <point x="152" y="91"/>
      <point x="238" y="231"/>
      <point x="381" y="368" type="curve"/>
      <point x="386" y="393" type="line"/>
      <point x="54" y="393" type="line"/>
      <point x="28" y="267" type="line"/>
      <point x="57" y="267" type="line"/>
      <point x="77" y="362" type="line"/>
      <point x="337" y="362" type="line"/>
      <point x="223" y="254"/>
      <point x="124" y="121"/>
    </contour>
  </outline>
</glyph>
<glyph name="eightinferior" format="2">
  <advance width="441"/>
  <unicode hex="2088"/>
  <anchor x="199" y="177" name="_center"/>
  <outline>
    <contour>
      <point x="178" y="-44" type="curve" smooth="yes"/>
      <point x="286" y="-44"/>
      <point x="360" y="-2"/>
      <point x="363" y="81" type="curve" smooth="yes"/>
      <point x="365" y="130"/>
      <point x="327" y="174"/>
      <point x="271" y="179" type="curve"/>
      <point x="271" y="182" type="line"/>
      <point x="342" y="187"/>
      <point x="394" y="225"/>
      <point x="396" y="289" type="curve" smooth="yes"/>
      <point x="399" y="363"/>
      <point x="324" y="397"/>
      <point x="231" y="397" type="curve" smooth="yes"/>
      <point x="125" y="397"/>
      <point x="58" y="353"/>
      <point x="55" y="279" type="curve" smooth="yes"/>
      <point x="53" y="237"/>
      <point x="83" y="199"/>
      <point x="138" y="189" type="curve"/>
      <point x="137" y="187" type="line"/>
      <point x="63" y="185"/>
      <point x="3" y="138"/>
      <point x="1" y="70" type="curve" smooth="yes"/>
      <point x="-1" y="-1"/>
      <point x="65" y="-44"/>
    </contour>
    <contour>
      <point x="180" y="-14" type="curve" smooth="yes"/>
      <point x="94" y="-14"/>
      <point x="38" y="18"/>
      <point x="40" y="75" type="curve" smooth="yes"/>
      <point x="42" y="138"/>
      <point x="93" y="170"/>
      <point x="182" y="170" type="curve" smooth="yes"/>
      <point x="272" y="170"/>
      <point x="327" y="142"/>
      <point x="325" y="85" type="curve" smooth="yes"/>
      <point x="323" y="26"/>
      <point x="278" y="-14"/>
    </contour>
    <contour>
      <point x="225" y="197" type="curve" smooth="yes"/>
      <point x="166" y="197"/>
      <point x="90" y="212"/>
      <point x="92" y="279" type="curve" smooth="yes"/>
      <point x="94" y="336"/>
      <point x="144" y="368"/>
      <point x="226" y="368" type="curve" smooth="yes"/>
      <point x="296" y="368"/>
      <point x="361" y="349"/>
      <point x="358" y="280" type="curve" smooth="yes"/>
      <point x="356" y="228"/>
      <point x="304" y="197"/>
    </contour>
  </outline>
</glyph>
<glyph name="peseta" format="2">
  <advance width="1519"/>
  <unicode hex="20A7"/>
  <outline>
    <contour>
      <point x="31" y="0" type="line"/>
      <point x="69" y="0" type="line"/>
      <point x="216" y="705" type="line"/>
      <point x="199" y="692" type="line"/>
      <point x="434" y="692" type="line" smooth="yes"/>
      <point x="553" y="692"/>
      <point x="625" y="647"/>
      <point x="621" y="537" type="curve" smooth="yes"/>
      <point x="616" y="401"/>
      <point x="536" y="326"/>
      <point x="383" y="326" type="curve" smooth="yes"/>
      <point x="127" y="326" type="line"/>
      <point x="120" y="290" type="line"/>
      <point x="378" y="290" type="line" smooth="yes"/>
      <point x="552" y="290"/>
      <point x="655" y="381"/>
      <point x="661" y="540" type="curve" smooth="yes"/>
      <point x="665" y="656"/>
      <point x="592" y="729"/>
      <point x="445" y="729" type="curve" smooth="yes"/>
      <point x="182" y="729" type="line"/>
    </contour>
    <contour>
      <point x="828" y="0" type="curve" smooth="yes"/>
      <point x="904" y="0" type="line"/>
      <point x="912" y="36" type="line"/>
      <point x="835" y="36" type="line" smooth="yes"/>
      <point x="792" y="36"/>
      <point x="770" y="49"/>
      <point x="781" y="102" type="curve" smooth="yes"/>
      <point x="862" y="485" type="line"/>
      <point x="1006" y="485" type="line"/>
      <point x="1012" y="517" type="line"/>
      <point x="868" y="517" type="line"/>
      <point x="905" y="690" type="line"/>
      <point x="866" y="681" type="line"/>
      <point x="831" y="517" type="line"/>
      <point x="715" y="517" type="line"/>
      <point x="709" y="485" type="line"/>
      <point x="825" y="485" type="line"/>
      <point x="743" y="94" type="line" smooth="yes"/>
      <point x="728" y="20"/>
      <point x="778" y="0"/>
    </contour>
    <contour>
      <point x="1222" y="-10" type="curve" smooth="yes"/>
      <point x="1371" y="-10"/>
      <point x="1450" y="45"/>
      <point x="1450" y="151" type="curve" smooth="yes"/>
      <point x="1450" y="244"/>
      <point x="1356" y="262"/>
      <point x="1260" y="279" type="curve" smooth="yes"/>
      <point x="1151" y="297"/>
      <point x="1087" y="313"/>
      <point x="1087" y="381" type="curve" smooth="yes"/>
      <point x="1087" y="452"/>
      <point x="1152" y="494"/>
      <point x="1256" y="494" type="curve" smooth="yes"/>
      <point x="1375" y="494"/>
      <point x="1450" y="452"/>
      <point x="1449" y="367" type="curve"/>
      <point x="1488" y="367" type="line"/>
      <point x="1494" y="465"/>
      <point x="1402" y="527"/>
      <point x="1261" y="527" type="curve" smooth="yes"/>
      <point x="1130" y="527"/>
      <point x="1049" y="469"/>
      <point x="1049" y="377" type="curve" smooth="yes"/>
      <point x="1049" y="287"/>
      <point x="1141" y="265"/>
      <point x="1241" y="247" type="curve" smooth="yes"/>
      <point x="1365" y="225"/>
      <point x="1412" y="208"/>
      <point x="1412" y="143" type="curve" smooth="yes"/>
      <point x="1412" y="65"/>
      <point x="1350" y="24"/>
      <point x="1230" y="24" type="curve" smooth="yes"/>
      <point x="1081" y="24"/>
      <point x="1012" y="78"/>
      <point x="1019" y="160" type="curve"/>
      <point x="982" y="160" type="line"/>
      <point x="973" y="59"/>
      <point x="1061" y="-10"/>
    </contour>
  </outline>
</glyph>
<glyph name="won" format="2">
  <advance width="1010"/>
  <unicode hex="20A9"/>
  <outline>
    <contour>
      <point x="209" y="0" type="line"/>
      <point x="262" y="0" type="line"/>
      <point x="507" y="515" type="line"/>
      <point x="589" y="687" type="line"/>
      <point x="594" y="687" type="line"/>
      <point x="603" y="517" type="line"/>
      <point x="630" y="0" type="line"/>
      <point x="687" y="0" type="line"/>
      <point x="1071" y="729" type="line"/>
      <point x="1028" y="729" type="line"/>
      <point x="782" y="258" type="line"/>
      <point x="669" y="42" type="line"/>
      <point x="662" y="42" type="line"/>
      <point x="651" y="262" type="line"/>
      <point x="627" y="729" type="line"/>
      <point x="572" y="729" type="line"/>
      <point x="344" y="250" type="line"/>
      <point x="245" y="43" type="line"/>
      <point x="239" y="43" type="line"/>
      <point x="218" y="253" type="line"/>
      <point x="172" y="729" type="line"/>
      <point x="133" y="729" type="line"/>
    </contour>
    <contour>
      <point x="77" y="348" type="line"/>
      <point x="970" y="348" type="line"/>
      <point x="977" y="382" type="line"/>
      <point x="84" y="382" type="line"/>
    </contour>
  </outline>
</glyph>
<glyph name="sheqel" format="2">
  <advance width="826"/>
  <unicode hex="20AA"/>
  <outline>
    <contour>
      <point x="238" y="0" type="line"/>
      <point x="621" y="0" type="line" smooth="yes"/>
      <point x="665" y="0"/>
      <point x="691" y="18"/>
      <point x="701" y="67" type="curve" smooth="yes"/>
      <point x="838" y="729" type="line"/>
      <point x="800" y="729" type="line"/>
      <point x="657" y="37" type="line"/>
      <point x="283" y="37" type="line"/>
      <point x="394" y="571" type="line"/>
      <point x="356" y="571" type="line"/>
    </contour>
    <contour>
      <point x="32" y="0" type="line"/>
      <point x="70" y="0" type="line"/>
      <point x="213" y="692" type="line"/>
      <point x="587" y="692" type="line"/>
      <point x="476" y="159" type="line"/>
      <point x="515" y="159" type="line"/>
      <point x="620" y="663" type="line" smooth="yes"/>
      <point x="630" y="712"/>
      <point x="611" y="729"/>
      <point x="567" y="729" type="curve" smooth="yes"/>
      <point x="182" y="729" type="line"/>
    </contour>
  </outline>
</glyph>
<glyph name="euro" format="2">
  <advance width="906"/>
  <unicode hex="20AC"/>
  <outline>
    <contour>
      <point x="492" y="-9" type="curve" smooth="yes"/>
      <point x="666" y="-9"/>
      <point x="814" y="80"/>
      <point x="862" y="236" type="curve"/>
      <point x="823" y="236" type="line"/>
      <point x="777" y="109"/>
      <point x="661" y="27"/>
      <point x="497" y="27" type="curve" smooth="yes"/>
      <point x="316" y="27"/>
      <point x="196" y="127"/>
      <point x="196" y="314" type="curve" smooth="yes"/>
      <point x="196" y="552"/>
      <point x="343" y="703"/>
      <point x="570" y="703" type="curve" smooth="yes"/>
      <point x="723" y="703"/>
      <point x="840" y="620"/>
      <point x="862" y="497" type="curve"/>
      <point x="900" y="497" type="line"/>
      <point x="880" y="642"/>
      <point x="749" y="739"/>
      <point x="572" y="739" type="curve" smooth="yes"/>
      <point x="327" y="739"/>
      <point x="156" y="568"/>
      <point x="156" y="317" type="curve" smooth="yes"/>
      <point x="156" y="115"/>
      <point x="287" y="-9"/>
    </contour>
    <contour>
      <point x="40" y="268" type="line"/>
      <point x="569" y="268" type="line"/>
      <point x="581" y="303" type="line"/>
      <point x="47" y="303" type="line"/>
    </contour>
    <contour>
      <point x="81" y="426" type="line"/>
      <point x="639" y="426" type="line"/>
      <point x="651" y="461" type="line"/>
      <point x="88" y="461" type="line"/>
    </contour>
  </outline>
</glyph>
<glyph name="tenge" format="2">
  <advance width="613"/>
  <unicode hex="20B8"/>
  <outline>
    <contour>
      <point x="341" y="508" type="line"/>
      <point x="236" y="0" type="line"/>
      <point x="272" y="0" type="line"/>
      <point x="377" y="508" type="line"/>
    </contour>
    <contour>
      <point x="626" y="498" type="line"/>
      <point x="633" y="534" type="line"/>
      <point x="94" y="534" type="line"/>
      <point x="87" y="498" type="line"/>
    </contour>
    <contour>
      <point x="666" y="693" type="line"/>
      <point x="673" y="729" type="line"/>
      <point x="134" y="729" type="line"/>
      <point x="127" y="693" type="line"/>
    </contour>
  </outline>
</glyph>
<glyph name="rupeeIndian" format="2">
  <advance width="668"/>
  <unicode hex="20B9"/>
  <outline>
    <contour>
      <point x="434" y="0" type="line"/>
      <point x="471" y="0" type="line"/>
      <point x="479" y="188" type="line" smooth="yes"/>
      <point x="482" y="260"/>
      <point x="459" y="314"/>
      <point x="404" y="334" type="curve"/>
      <point x="406" y="340" type="line"/>
      <point x="496" y="356"/>
      <point x="573" y="415"/>
      <point x="594" y="507" type="curve"/>
      <point x="682" y="507" type="line"/>
      <point x="690" y="541" type="line"/>
      <point x="600" y="541" type="line"/>
      <point x="603" y="610"/>
      <point x="576" y="670"/>
      <point x="530" y="691" type="curve"/>
      <point x="530" y="694" type="line"/>
      <point x="721" y="694" type="line"/>
      <point x="728" y="729" type="line"/>
      <point x="143" y="729" type="line"/>
      <point x="136" y="694" type="line"/>
      <point x="407" y="694" type="line" smooth="yes"/>
      <point x="508" y="694"/>
      <point x="568" y="647"/>
      <point x="558" y="542" type="curve"/>
      <point x="104" y="542" type="line"/>
      <point x="97" y="507" type="line"/>
      <point x="551" y="507" type="line"/>
      <point x="529" y="415"/>
      <point x="453" y="359"/>
      <point x="331" y="359" type="curve" smooth="yes"/>
      <point x="66" y="359" type="line"/>
      <point x="59" y="323" type="line"/>
      <point x="319" y="323" type="line" smooth="yes"/>
      <point x="390" y="323"/>
      <point x="444" y="302"/>
      <point x="440" y="187" type="curve" smooth="yes"/>
    </contour>
  </outline>
</glyph>
<glyph name="liraTurkish" format="2">
  <advance width="644"/>
  <unicode hex="20BA"/>
  <outline>
    <contour>
      <point x="99" y="0" type="line"/>
      <point x="138" y="0" type="line" smooth="yes"/>
      <point x="382" y="0"/>
      <point x="560" y="102"/>
      <point x="620" y="317" type="curve"/>
      <point x="582" y="317" type="line"/>
      <point x="536" y="146"/>
      <point x="394" y="31"/>
      <point x="142" y="33" type="curve"/>
      <point x="286" y="729" type="line"/>
      <point x="249" y="729" type="line"/>
    </contour>
    <contour>
      <point x="45" y="287" type="line"/>
      <point x="489" y="436" type="line"/>
      <point x="496" y="471" type="line"/>
      <point x="52" y="322" type="line"/>
    </contour>
    <contour>
      <point x="78" y="446" type="line"/>
      <point x="522" y="595" type="line"/>
      <point x="529" y="630" type="line"/>
      <point x="85" y="481" type="line"/>
    </contour>
  </outline>
</glyph>
<glyph name="literSign" format="2">
  <advance width="509"/>
  <unicode hex="2113"/>
  <outline>
    <contour>
      <point x="260" y="-10" type="curve" smooth="yes"/>
      <point x="331" y="-10"/>
      <point x="396" y="31"/>
      <point x="446" y="114" type="curve"/>
      <point x="416" y="127" type="line"/>
      <point x="373" y="57"/>
      <point x="322" y="22"/>
      <point x="261" y="22" type="curve" smooth="yes"/>
      <point x="121" y="22"/>
      <point x="144" y="237"/>
      <point x="175" y="400" type="curve" smooth="yes"/>
      <point x="212" y="590"/>
      <point x="288" y="705"/>
      <point x="376" y="705" type="curve" smooth="yes"/>
      <point x="439" y="705"/>
      <point x="471" y="634"/>
      <point x="445" y="508" type="curve" smooth="yes"/>
      <point x="409" y="332"/>
      <point x="251" y="185"/>
      <point x="10" y="157" type="curve"/>
      <point x="8" y="126" type="line"/>
      <point x="250" y="154"/>
      <point x="437" y="301"/>
      <point x="479" y="508" type="curve" smooth="yes"/>
      <point x="507" y="645"/>
      <point x="466" y="737"/>
      <point x="377" y="737" type="curve" smooth="yes"/>
      <point x="271" y="737"/>
      <point x="182" y="612"/>
      <point x="142" y="403" type="curve" smooth="yes"/>
      <point x="102" y="192"/>
      <point x="102" y="-10"/>
    </contour>
  </outline>
</glyph>
<glyph name="numero" format="2">
  <advance width="1235"/>
  <unicode hex="2116"/>
  <outline>
    <contour>
      <point x="31" y="0" type="line"/>
      <point x="69" y="0" type="line"/>
      <point x="159" y="436" type="line"/>
      <point x="210" y="689" type="line"/>
      <point x="214" y="689" type="line"/>
      <point x="632" y="0" type="line"/>
      <point x="683" y="0" type="line"/>
      <point x="835" y="729" type="line"/>
      <point x="797" y="729" type="line"/>
      <point x="710" y="303" type="line"/>
      <point x="657" y="40" type="line"/>
      <point x="652" y="40" type="line"/>
      <point x="235" y="729" type="line"/>
      <point x="182" y="729" type="line"/>
    </contour>
    <contour>
      <point x="878" y="231" type="line"/>
      <point x="1160" y="231" type="line"/>
      <point x="1166" y="263" type="line"/>
      <point x="884" y="263" type="line"/>
    </contour>
    <contour>
      <point x="1048" y="333" type="curve" smooth="yes"/>
      <point x="1166" y="333"/>
      <point x="1246" y="429"/>
      <point x="1246" y="567" type="curve" smooth="yes"/>
      <point x="1246" y="675"/>
      <point x="1186" y="739"/>
      <point x="1082" y="739" type="curve" smooth="yes"/>
      <point x="964" y="739"/>
      <point x="884" y="643"/>
      <point x="884" y="504" type="curve" smooth="yes"/>
      <point x="884" y="397"/>
      <point x="944" y="333"/>
    </contour>
    <contour>
      <point x="1046" y="364" type="curve" smooth="yes"/>
      <point x="965" y="364"/>
      <point x="921" y="416"/>
      <point x="921" y="504" type="curve" smooth="yes"/>
      <point x="921" y="627"/>
      <point x="986" y="707"/>
      <point x="1084" y="707" type="curve" smooth="yes"/>
      <point x="1164" y="707"/>
      <point x="1209" y="656"/>
      <point x="1209" y="568" type="curve" smooth="yes"/>
      <point x="1209" y="445"/>
      <point x="1144" y="364"/>
    </contour>
  </outline>
</glyph>
<glyph name="trademark" format="2">
  <advance width="813"/>
  <unicode hex="2122"/>
  <outline>
    <contour>
      <point x="397" y="419" type="line"/>
      <point x="430" y="419" type="line"/>
      <point x="460" y="569" type="line"/>
      <point x="484" y="686" type="line"/>
      <point x="486" y="686" type="line"/>
      <point x="564" y="419" type="line"/>
      <point x="592" y="419" type="line"/>
      <point x="781" y="686" type="line"/>
      <point x="784" y="686" type="line"/>
      <point x="757" y="569" type="line"/>
      <point x="726" y="419" type="line"/>
      <point x="761" y="419" type="line"/>
      <point x="825" y="729" type="line"/>
      <point x="778" y="729" type="line"/>
      <point x="587" y="459" type="line"/>
      <point x="584" y="459" type="line"/>
      <point x="506" y="729" type="line"/>
      <point x="461" y="729" type="line"/>
    </contour>
    <contour>
      <point x="187" y="419" type="line"/>
      <point x="221" y="419" type="line"/>
      <point x="279" y="699" type="line"/>
      <point x="402" y="699" type="line"/>
      <point x="408" y="729" type="line"/>
      <point x="133" y="729" type="line"/>
      <point x="127" y="699" type="line"/>
      <point x="245" y="699" type="line"/>
    </contour>
  </outline>
</glyph>
<glyph name="leftArrow" format="2">
  <advance width="686"/>
  <unicode hex="2190"/>
  <outline>
    <contour>
      <point x="606" y="383" type="line"/>
      <point x="123" y="383" type="line"/>
      <point x="256" y="564" type="line"/>
      <point x="215" y="564" type="line"/>
      <point x="67" y="365" type="line"/>
      <point x="215" y="166" type="line"/>
      <point x="256" y="166" type="line"/>
      <point x="123" y="347" type="line"/>
      <point x="606" y="347" type="line"/>
    </contour>
  </outline>
</glyph>
<glyph name="upArrow" format="2">
  <advance width="530"/>
  <unicode hex="2191"/>
  <outline>
    <contour>
      <point x="279" y="95" type="line"/>
      <point x="315" y="95" type="line"/>
      <point x="315" y="578" type="line"/>
      <point x="496" y="445" type="line"/>
      <point x="496" y="486" type="line"/>
      <point x="297" y="634" type="line"/>
      <point x="98" y="486" type="line"/>
      <point x="98" y="445" type="line"/>
      <point x="279" y="578" type="line"/>
    </contour>
  </outline>
</glyph>
<glyph name="rightArrow" format="2">
  <advance width="685"/>
  <unicode hex="2192"/>
  <outline>
    <contour>
      <point x="104" y="383" type="line"/>
      <point x="104" y="347" type="line"/>
      <point x="587" y="347" type="line"/>
      <point x="454" y="166" type="line"/>
      <point x="495" y="166" type="line"/>
      <point x="643" y="365" type="line"/>
      <point x="495" y="564" type="line"/>
      <point x="454" y="564" type="line"/>
      <point x="587" y="383" type="line"/>
    </contour>
  </outline>
</glyph>
<glyph name="downArrow" format="2">
  <advance width="528"/>
  <unicode hex="2193"/>
  <outline>
    <contour>
      <point x="235" y="634" type="line"/>
      <point x="235" y="151" type="line"/>
      <point x="54" y="284" type="line"/>
      <point x="54" y="243" type="line"/>
      <point x="253" y="95" type="line"/>
      <point x="452" y="243" type="line"/>
      <point x="452" y="284" type="line"/>
      <point x="271" y="151" type="line"/>
      <point x="271" y="634" type="line"/>
    </contour>
  </outline>
</glyph>
<glyph name="leftRightArrow" format="2">
  <advance width="779"/>
  <unicode hex="2194"/>
  <outline>
    <contour>
      <point x="214" y="166" type="line"/>
      <point x="255" y="166" type="line"/>
      <point x="122" y="347" type="line"/>
      <point x="679" y="347" type="line"/>
      <point x="546" y="166" type="line"/>
      <point x="587" y="166" type="line"/>
      <point x="735" y="365" type="line"/>
      <point x="587" y="564" type="line"/>
      <point x="546" y="564" type="line"/>
      <point x="679" y="383" type="line"/>
      <point x="122" y="383" type="line"/>
      <point x="255" y="564" type="line"/>
      <point x="214" y="564" type="line"/>
      <point x="66" y="365" type="line"/>
    </contour>
  </outline>
</glyph>
<glyph name="emptyset" format="2">
  <advance width="790"/>
  <unicode hex="2205"/>
  <outline>
    <contour>
      <point x="418" y="0" type="curve" smooth="yes"/>
      <point x="614" y="0"/>
      <point x="777" y="151"/>
      <point x="777" y="366" type="curve" smooth="yes"/>
      <point x="777" y="578"/>
      <point x="614" y="729"/>
      <point x="418" y="729" type="curve" smooth="yes"/>
      <point x="220" y="729"/>
      <point x="58" y="578"/>
      <point x="58" y="366" type="curve" smooth="yes"/>
      <point x="58" y="151"/>
      <point x="220" y="0"/>
    </contour>
    <contour>
      <point x="418" y="28" type="curve" smooth="yes"/>
      <point x="304" y="28"/>
      <point x="202" y="87"/>
      <point x="143" y="181" type="curve"/>
      <point x="707" y="524" type="line"/>
      <point x="731" y="478"/>
      <point x="744" y="424"/>
      <point x="744" y="366" type="curve" smooth="yes"/>
      <point x="744" y="171"/>
      <point x="594" y="28"/>
    </contour>
    <contour>
      <point x="128" y="207" type="line"/>
      <point x="104" y="254"/>
      <point x="91" y="308"/>
      <point x="91" y="366" type="curve" smooth="yes"/>
      <point x="91" y="560"/>
      <point x="241" y="701"/>
      <point x="418" y="701" type="curve" smooth="yes"/>
      <point x="531" y="701"/>
      <point x="633" y="643"/>
      <point x="691" y="551" type="curve"/>
    </contour>
  </outline>
</glyph>
<glyph name="product" format="2">
  <advance width="763"/>
  <unicode hex="220F"/>
  <outline>
    <contour>
      <point x="-21" y="-151" type="line"/>
      <point x="17" y="-151" type="line"/>
      <point x="194" y="693" type="line"/>
      <point x="750" y="693" type="line"/>
      <point x="573" y="-151" type="line"/>
      <point x="611" y="-151" type="line"/>
      <point x="796" y="729" type="line"/>
      <point x="164" y="729" type="line"/>
    </contour>
  </outline>
</glyph>
<glyph name="summation" format="2">
  <advance width="593"/>
  <unicode hex="2211"/>
  <outline>
    <contour>
      <point x="-71" y="-151" type="line"/>
      <point x="493" y="-151" type="line"/>
      <point x="500" y="-117" type="line"/>
      <point x="157" y="-117" type="line"/>
      <point x="-17" y="-117" type="line"/>
      <point x="-16" y="-114" type="line"/>
      <point x="410" y="288" type="line"/>
      <point x="144" y="692" type="line"/>
      <point x="146" y="695" type="line"/>
      <point x="291" y="695" type="line"/>
      <point x="671" y="695" type="line"/>
      <point x="678" y="729" type="line"/>
      <point x="114" y="729" type="line"/>
      <point x="106" y="689" type="line"/>
      <point x="362" y="293" type="line"/>
      <point x="362" y="290" type="line"/>
      <point x="-63" y="-111" type="line"/>
    </contour>
  </outline>
</glyph>
<glyph name="minus" format="2">
  <advance width="720"/>
  <unicode hex="2212"/>
  <outline>
    <contour>
      <point x="133" y="345" type="line"/>
      <point x="623" y="345" type="line"/>
      <point x="630" y="377" type="line"/>
      <point x="140" y="377" type="line"/>
    </contour>
  </outline>
</glyph>
<glyph name="radical" format="2">
  <advance width="679"/>
  <unicode hex="221A"/>
  <outline>
    <contour>
      <point x="204" y="-151" type="line"/>
      <point x="235" y="-151" type="line"/>
      <point x="767" y="729" type="line"/>
      <point x="725" y="729" type="line"/>
      <point x="230" y="-93" type="line"/>
      <point x="227" y="-93" type="line"/>
      <point x="145" y="366" type="line"/>
      <point x="33" y="366" type="line"/>
      <point x="26" y="335" type="line"/>
      <point x="115" y="335" type="line"/>
    </contour>
  </outline>
</glyph>
<glyph name="infinity" format="2">
  <advance width="902"/>
  <unicode hex="221E"/>
  <outline>
    <contour>
      <point x="250" y="154" type="curve" smooth="yes"/>
      <point x="356" y="154"/>
      <point x="420" y="243"/>
      <point x="474" y="340" type="curve"/>
      <point x="533" y="234"/>
      <point x="594" y="154"/>
      <point x="700" y="154" type="curve" smooth="yes"/>
      <point x="817" y="154"/>
      <point x="882" y="257"/>
      <point x="882" y="364" type="curve" smooth="yes"/>
      <point x="882" y="475"/>
      <point x="817" y="576"/>
      <point x="700" y="576" type="curve" smooth="yes"/>
      <point x="589" y="576"/>
      <point x="529" y="486"/>
      <point x="474" y="391" type="curve"/>
      <point x="420" y="486"/>
      <point x="359" y="576"/>
      <point x="249" y="576" type="curve" smooth="yes"/>
      <point x="133" y="576"/>
      <point x="64" y="477"/>
      <point x="64" y="364" type="curve" smooth="yes"/>
      <point x="64" y="246"/>
      <point x="133" y="154"/>
    </contour>
    <contour>
      <point x="248" y="186" type="curve" smooth="yes"/>
      <point x="159" y="186"/>
      <point x="97" y="256"/>
      <point x="97" y="364" type="curve" smooth="yes"/>
      <point x="97" y="467"/>
      <point x="157" y="543"/>
      <point x="247" y="543" type="curve" smooth="yes"/>
      <point x="329" y="543"/>
      <point x="381" y="485"/>
      <point x="454" y="365" type="curve"/>
      <point x="381" y="241"/>
      <point x="325" y="186"/>
    </contour>
    <contour>
      <point x="700" y="186" type="curve" smooth="yes"/>
      <point x="615" y="186"/>
      <point x="568" y="245"/>
      <point x="493" y="365" type="curve"/>
      <point x="567" y="483"/>
      <point x="616" y="543"/>
      <point x="700" y="543" type="curve" smooth="yes"/>
      <point x="790" y="543"/>
      <point x="852" y="466"/>
      <point x="852" y="364" type="curve" smooth="yes"/>
      <point x="852" y="265"/>
      <point x="790" y="186"/>
    </contour>
  </outline>
</glyph>
<glyph name="integral" format="2">
  <advance width="418"/>
  <unicode hex="222B"/>
  <outline>
    <contour>
      <point x="-77" y="-151" type="line"/>
      <point x="94" y="-151" type="line" smooth="yes"/>
      <point x="132" y="-151"/>
      <point x="146" y="-127"/>
      <point x="152" y="-101" type="curve" smooth="yes"/>
      <point x="318" y="695" type="line"/>
      <point x="499" y="695" type="line"/>
      <point x="507" y="729" type="line"/>
      <point x="335" y="729" type="line" smooth="yes"/>
      <point x="307" y="729"/>
      <point x="285" y="708"/>
      <point x="278" y="675" type="curve" smooth="yes"/>
      <point x="112" y="-118" type="line"/>
      <point x="-70" y="-118" type="line"/>
    </contour>
  </outline>
</glyph>
<glyph name="approxequal" format="2">
  <advance width="720"/>
  <unicode hex="2248"/>
  <outline>
    <contour>
      <point x="434" y="218" type="curve" smooth="yes"/>
      <point x="489" y="218"/>
      <point x="535" y="253"/>
      <point x="545" y="320" type="curve"/>
      <point x="513" y="320" type="line"/>
      <point x="505" y="276"/>
      <point x="478" y="256"/>
      <point x="444" y="256" type="curve" smooth="yes"/>
      <point x="379" y="256"/>
      <point x="334" y="304"/>
      <point x="276" y="304" type="curve" smooth="yes"/>
      <point x="228" y="304"/>
      <point x="187" y="270"/>
      <point x="178" y="202" type="curve"/>
      <point x="209" y="202" type="line"/>
      <point x="214" y="243"/>
      <point x="237" y="266"/>
      <point x="268" y="266" type="curve" smooth="yes"/>
      <point x="321" y="266"/>
      <point x="372" y="218"/>
    </contour>
    <contour>
      <point x="475" y="418" type="curve" smooth="yes"/>
      <point x="533" y="418"/>
      <point x="577" y="455"/>
      <point x="587" y="520" type="curve"/>
      <point x="555" y="520" type="line"/>
      <point x="547" y="476"/>
      <point x="521" y="456"/>
      <point x="485" y="456" type="curve" smooth="yes"/>
      <point x="421" y="456"/>
      <point x="375" y="504"/>
      <point x="318" y="504" type="curve" smooth="yes"/>
      <point x="268" y="504"/>
      <point x="229" y="469"/>
      <point x="219" y="402" type="curve"/>
      <point x="251" y="402" type="line"/>
      <point x="256" y="444"/>
      <point x="278" y="465"/>
      <point x="310" y="465" type="curve" smooth="yes"/>
      <point x="363" y="465"/>
      <point x="413" y="418"/>
    </contour>
  </outline>
</glyph>
<glyph name="notequal" format="2">
  <advance width="720"/>
  <unicode hex="2260"/>
  <outline>
    <contour>
      <point x="184" y="101" type="line"/>
      <point x="225" y="101" type="line"/>
      <point x="576" y="629" type="line"/>
      <point x="537" y="629" type="line"/>
    </contour>
    <contour>
      <point x="107" y="227" type="line"/>
      <point x="597" y="227" type="line"/>
      <point x="604" y="259" type="line"/>
      <point x="114" y="259" type="line"/>
    </contour>
    <contour>
      <point x="157" y="464" type="line"/>
      <point x="647" y="464" type="line"/>
      <point x="653" y="496" type="line"/>
      <point x="163" y="496" type="line"/>
    </contour>
  </outline>
</glyph>
<glyph name="lessequal" format="2">
  <advance width="720"/>
  <unicode hex="2264"/>
  <outline>
    <contour>
      <point x="589" y="117" type="line"/>
      <point x="597" y="154" type="line"/>
      <point x="153" y="358" type="line"/>
      <point x="154" y="362" type="line"/>
      <point x="683" y="566" type="line"/>
      <point x="692" y="607" type="line"/>
      <point x="119" y="384" type="line"/>
      <point x="109" y="340" type="line"/>
    </contour>
    <contour>
      <point x="38" y="0" type="line"/>
      <point x="574" y="0" type="line"/>
      <point x="581" y="34" type="line"/>
      <point x="45" y="34" type="line"/>
    </contour>
  </outline>
</glyph>
<glyph name="greaterequal" format="2">
  <advance width="720"/>
  <unicode hex="2265"/>
  <outline>
    <contour>
      <point x="66" y="116" type="line"/>
      <point x="639" y="339" type="line"/>
      <point x="649" y="383" type="line"/>
      <point x="169" y="606" type="line"/>
      <point x="161" y="569" type="line"/>
      <point x="605" y="365" type="line"/>
      <point x="604" y="361" type="line"/>
      <point x="75" y="157" type="line"/>
    </contour>
    <contour>
      <point x="43" y="0" type="line"/>
      <point x="579" y="0" type="line"/>
      <point x="586" y="34" type="line"/>
      <point x="50" y="34" type="line"/>
    </contour>
  </outline>
</glyph>
<glyph name="blackCircle" format="2">
  <advance width="903"/>
  <unicode hex="25CF"/>
  <anchor x="473" y="363" name="center"/>
  <outline>
    <contour>
      <point x="473" y="-10" type="curve" smooth="yes"/>
      <point x="250" y="-10"/>
      <point x="91" y="139"/>
      <point x="91" y="363" type="curve" smooth="yes"/>
      <point x="91" y="587"/>
      <point x="250" y="736"/>
      <point x="473" y="736" type="curve" smooth="yes"/>
      <point x="696" y="736"/>
      <point x="855" y="587"/>
      <point x="855" y="363" type="curve" smooth="yes"/>
      <point x="855" y="139"/>
      <point x="696" y="-10"/>
    </contour>
  </outline>
</glyph>
<glyph name="whiteSmilingFace" format="2">
  <advance width="888"/>
  <unicode hex="263A"/>
  <outline>
    <contour>
      <point x="467" y="-10" type="curve" smooth="yes"/>
      <point x="684" y="-10"/>
      <point x="841" y="140"/>
      <point x="841" y="366" type="curve" smooth="yes"/>
      <point x="841" y="590"/>
      <point x="684" y="739"/>
      <point x="467" y="739" type="curve" smooth="yes"/>
      <point x="250" y="739"/>
      <point x="92" y="590"/>
      <point x="92" y="366" type="curve" smooth="yes"/>
      <point x="92" y="140"/>
      <point x="250" y="-10"/>
    </contour>
    <contour>
      <point x="465" y="105" type="curve" smooth="yes"/>
      <point x="604" y="105"/>
      <point x="699" y="187"/>
      <point x="717" y="311" type="curve"/>
      <point x="753" y="311" type="line"/>
      <point x="753" y="326" type="line"/>
      <point x="644" y="326" type="line"/>
      <point x="644" y="311" type="line"/>
      <point x="683" y="311" type="line"/>
      <point x="671" y="206"/>
      <point x="582" y="136"/>
      <point x="465" y="136" type="curve" smooth="yes"/>
      <point x="351" y="136"/>
      <point x="261" y="206"/>
      <point x="248" y="311" type="curve"/>
      <point x="289" y="311" type="line"/>
      <point x="289" y="326" type="line"/>
      <point x="180" y="326" type="line"/>
      <point x="180" y="311" type="line"/>
      <point x="215" y="311" type="line"/>
      <point x="232" y="187"/>
      <point x="328" y="105"/>
    </contour>
    <contour>
      <point x="467" y="19" type="curve" smooth="yes"/>
      <point x="269" y="19"/>
      <point x="125" y="158"/>
      <point x="125" y="366" type="curve" smooth="yes"/>
      <point x="125" y="572"/>
      <point x="269" y="710"/>
      <point x="467" y="710" type="curve" smooth="yes"/>
      <point x="664" y="710"/>
      <point x="808" y="572"/>
      <point x="808" y="366" type="curve" smooth="yes"/>
      <point x="808" y="158"/>
      <point x="664" y="19"/>
    </contour>
    <contour>
      <point x="390" y="412" type="curve" smooth="yes"/>
      <point x="417" y="412"/>
      <point x="438" y="431"/>
      <point x="438" y="458" type="curve" smooth="yes"/>
      <point x="438" y="485"/>
      <point x="417" y="504"/>
      <point x="390" y="504" type="curve" smooth="yes"/>
      <point x="363" y="504"/>
      <point x="342" y="485"/>
      <point x="342" y="458" type="curve" smooth="yes"/>
      <point x="342" y="431"/>
      <point x="363" y="412"/>
    </contour>
    <contour>
      <point x="544" y="412" type="curve" smooth="yes"/>
      <point x="571" y="412"/>
      <point x="592" y="431"/>
      <point x="592" y="458" type="curve" smooth="yes"/>
      <point x="592" y="485"/>
      <point x="571" y="504"/>
      <point x="544" y="504" type="curve" smooth="yes"/>
      <point x="517" y="504"/>
      <point x="496" y="485"/>
      <point x="496" y="458" type="curve" smooth="yes"/>
      <point x="496" y="431"/>
      <point x="517" y="412"/>
    </contour>
  </outline>
</glyph>
<glyph name="checkmark" format="2">
  <advance width="904"/>
  <unicode hex="2713"/>
  <outline>
    <contour>
      <point x="316" y="137" type="line"/>
      <point x="831" y="560" type="line"/>
      <point x="810" y="587" type="line"/>
      <point x="321" y="187" type="line"/>
      <point x="167" y="412" type="line"/>
      <point x="140" y="389" type="line"/>
    </contour>
  </outline>
</glyph>
<glyph name="fi" format="2">
  <advance width="474"/>
  <unicode hex="FB01"/>
  <outline>
    <contour>
      <point x="64" y="0" type="line"/>
      <point x="100" y="0" type="line"/>
      <point x="201" y="485" type="line"/>
      <point x="419" y="485" type="line"/>
      <point x="318" y="0" type="line"/>
      <point x="354" y="0" type="line"/>
      <point x="462" y="517" type="line"/>
      <point x="207" y="517" type="line"/>
      <point x="224" y="599" type="line" smooth="yes"/>
      <point x="239" y="673"/>
      <point x="264" y="695"/>
      <point x="330" y="695" type="curve" smooth="yes"/>
      <point x="384" y="695" type="line"/>
      <point x="391" y="729" type="line"/>
      <point x="323" y="729" type="line" smooth="yes"/>
      <point x="253" y="729"/>
      <point x="208" y="697"/>
      <point x="191" y="614" type="curve" smooth="yes"/>
      <point x="171" y="517" type="line"/>
      <point x="65" y="517" type="line"/>
      <point x="59" y="485" type="line"/>
      <point x="164" y="485" type="line"/>
    </contour>
    <contour>
      <point x="471" y="625" type="curve" smooth="yes"/>
      <point x="491" y="625"/>
      <point x="504" y="639"/>
      <point x="504" y="658" type="curve" smooth="yes"/>
      <point x="504" y="676"/>
      <point x="491" y="687"/>
      <point x="475" y="687" type="curve" smooth="yes"/>
      <point x="455" y="687"/>
      <point x="442" y="673"/>
      <point x="442" y="654" type="curve" smooth="yes"/>
      <point x="442" y="636"/>
      <point x="455" y="625"/>
    </contour>
  </outline>
</glyph>
<glyph name="fl" format="2">
  <advance width="511"/>
  <unicode hex="FB02"/>
  <outline>
    <contour>
      <point x="64" y="0" type="line"/>
      <point x="100" y="0" type="line"/>
      <point x="201" y="485" type="line"/>
      <point x="454" y="485" type="line"/>
      <point x="354" y="0" type="line"/>
      <point x="391" y="0" type="line"/>
      <point x="542" y="729" type="line"/>
      <point x="505" y="729" type="line"/>
      <point x="461" y="517" type="line"/>
      <point x="207" y="517" type="line"/>
      <point x="224" y="599" type="line" smooth="yes"/>
      <point x="239" y="673"/>
      <point x="264" y="695"/>
      <point x="330" y="695" type="curve" smooth="yes"/>
      <point x="384" y="695" type="line"/>
      <point x="391" y="729" type="line"/>
      <point x="323" y="729" type="line" smooth="yes"/>
      <point x="253" y="729"/>
      <point x="208" y="697"/>
      <point x="191" y="614" type="curve" smooth="yes"/>
      <point x="171" y="517" type="line"/>
      <point x="65" y="517" type="line"/>
      <point x="59" y="485" type="line"/>
      <point x="164" y="485" type="line"/>
    </contour>
  </outline>
</glyph>
<glyph name="G.ss06" format="2">
  <advance width="814"/>
  <anchor x="397" y="0" name="bottom"/>
  <anchor x="474" y="729" name="top"/>
  <outline>
    <contour>
      <point x="401" y="-10" type="curve" smooth="yes"/>
      <point x="604" y="-10"/>
      <point x="747" y="101"/>
      <point x="789" y="298" type="curve" smooth="yes"/>
      <point x="803" y="366" type="line"/>
      <point x="411" y="366" type="line"/>
      <point x="403" y="331" type="line"/>
      <point x="770" y="331" type="line"/>
      <point x="758" y="343" type="line"/>
      <point x="748" y="295" type="line" smooth="yes"/>
      <point x="714" y="124"/>
      <point x="585" y="27"/>
      <point x="403" y="27" type="curve" smooth="yes"/>
      <point x="219" y="27"/>
      <point x="99" y="127"/>
      <point x="99" y="314" type="curve" smooth="yes"/>
      <point x="99" y="551"/>
      <point x="245" y="703"/>
      <point x="469" y="703" type="curve" smooth="yes"/>
      <point x="612" y="703"/>
      <point x="746" y="625"/>
      <point x="762" y="494" type="curve"/>
      <point x="800" y="494" type="line"/>
      <point x="786" y="642"/>
      <point x="644" y="739"/>
      <point x="472" y="739" type="curve" smooth="yes"/>
      <point x="230" y="739"/>
      <point x="59" y="568"/>
      <point x="59" y="317" type="curve" smooth="yes"/>
      <point x="59" y="115"/>
      <point x="190" y="-10"/>
    </contour>
  </outline>
</glyph>
<glyph name="I.ss02" format="2">
  <advance width="522"/>
  <anchor x="207" y="0" name="bottom"/>
  <anchor x="447" y="0" name="ogonek"/>
  <anchor x="357" y="729" name="top"/>
  <anchor x="100" y="729" name="topleft"/>
  <outline>
    <contour>
      <point x="194" y="27" type="line"/>
      <point x="232" y="27" type="line"/>
      <point x="372" y="702" type="line"/>
      <point x="334" y="702" type="line"/>
    </contour>
    <contour>
      <point x="111" y="693" type="line"/>
      <point x="590" y="693" type="line"/>
      <point x="597" y="729" type="line"/>
      <point x="118" y="729" type="line"/>
    </contour>
    <contour>
      <point x="-32" y="0" type="line"/>
      <point x="447" y="0" type="line"/>
      <point x="454" y="36" type="line"/>
      <point x="-25" y="36" type="line"/>
    </contour>
  </outline>
</glyph>
<glyph name="_B.currency" format="2">
  <advance width="753"/>
  <anchor x="388" y="0" name="bottom"/>
  <outline>
    <contour>
      <point x="31" y="0" type="line"/>
      <point x="415" y="0" type="line" smooth="yes"/>
      <point x="586" y="0"/>
      <point x="686" y="83"/>
      <point x="691" y="221" type="curve" smooth="yes"/>
      <point x="694" y="295"/>
      <point x="648" y="357"/>
      <point x="580" y="372" type="curve"/>
      <point x="580" y="375" type="line"/>
      <point x="674" y="395"/>
      <point x="741" y="468"/>
      <point x="745" y="564" type="curve" smooth="yes"/>
      <point x="748" y="669"/>
      <point x="686" y="729"/>
      <point x="550" y="729" type="curve" smooth="yes"/>
      <point x="182" y="729" type="line"/>
    </contour>
    <contour>
      <point x="76" y="36" type="line"/>
      <point x="142" y="356" type="line"/>
      <point x="498" y="356" type="line" smooth="yes"/>
      <point x="603" y="356"/>
      <point x="654" y="307"/>
      <point x="651" y="219" type="curve" smooth="yes"/>
      <point x="647" y="104"/>
      <point x="563" y="36"/>
      <point x="422" y="36" type="curve" smooth="yes"/>
    </contour>
    <contour>
      <point x="151" y="391" type="line"/>
      <point x="214" y="694" type="line"/>
      <point x="543" y="694" type="line" smooth="yes"/>
      <point x="652" y="694"/>
      <point x="708" y="647"/>
      <point x="705" y="562" type="curve" smooth="yes"/>
      <point x="701" y="456"/>
      <point x="626" y="391"/>
      <point x="496" y="391" type="curve" smooth="yes"/>
    </contour>
  </outline>
</glyph>
<glyph name="_Thorn.bowl" format="2">
  <advance width="689"/>
  <anchor x="1" y="0" name="_bottom"/>
  <outline>
    <contour>
      <point x="29" y="145" type="line"/>
      <point x="379" y="145" type="line" smooth="yes"/>
      <point x="536" y="145"/>
      <point x="640" y="217"/>
      <point x="666" y="341" type="curve" smooth="yes"/>
      <point x="694" y="471"/>
      <point x="636" y="584"/>
      <point x="446" y="584" type="curve" smooth="yes"/>
      <point x="107" y="584" type="line"/>
      <point x="100" y="547" type="line"/>
      <point x="435" y="547" type="line" smooth="yes"/>
      <point x="618" y="547"/>
      <point x="648" y="449"/>
      <point x="626" y="343" type="curve" smooth="yes"/>
      <point x="605" y="239"/>
      <point x="521" y="181"/>
      <point x="384" y="181" type="curve" smooth="yes"/>
      <point x="36" y="181" type="line"/>
    </contour>
  </outline>
</glyph>
<glyph name="_baht.bar" format="2">
  <advance width="112"/>
  <anchor x="91" y="0" name="_bottom"/>
  <outline>
    <contour>
      <point x="-31" y="-85" type="line"/>
      <point x="1" y="-85" type="line"/>
      <point x="23" y="22" type="line"/>
      <point x="-9" y="22" type="line"/>
    </contour>
    <contour>
      <point x="134" y="714" type="line"/>
      <point x="166" y="714" type="line"/>
      <point x="187" y="814" type="line"/>
      <point x="155" y="814" type="line"/>
    </contour>
  </outline>
</glyph>
